<svg width="480" height="550" viewBox="0 0 480 550" fill="none" xmlns="http://www.w3.org/2000/svg">
<rect width="480" height="550" fill="#504DE6"/>
<path d="M146.39 249.847V253.985H154.462V262.097H158.6V253.985H166.672V249.847H158.6V241.775H154.462V249.847H146.39ZM194.811 265.586C203.411 265.586 209.333 259.542 209.333 250.821C209.333 241.978 203.289 235.934 194.527 235.934H184.143V265.586H194.811ZM194.04 240.72C200.166 240.72 203.857 244.533 203.857 250.821C203.857 256.986 200.247 260.799 194.324 260.799H189.335V240.72H194.04ZM219.362 235.934H214.17V265.586H219.362V235.934ZM238.916 240.314C242.485 240.314 245.487 241.937 246.42 245.426H251.896C251.044 239.381 245.811 235.447 239.037 235.447C230.113 235.447 224.231 241.856 224.231 250.861C224.231 259.988 230.032 266.032 238.348 266.032C242.363 266.032 245.73 264.45 247.353 262.179L247.677 265.586H252.058V248.914H238.267V253.498H247.231V253.619C247.231 258.366 244.108 261.205 238.956 261.205C233.48 261.205 229.667 257.595 229.667 250.983C229.667 244.574 233.034 240.314 238.916 240.314ZM262.858 235.934H257.665V265.586H262.858V235.934ZM266.834 240.72H275.515V265.586H280.707V240.72H289.388V235.934H266.834V240.72ZM293.259 265.586L295.652 258.731H306.726L309.119 265.586H314.595L303.886 235.934H298.573L287.864 265.586H293.259ZM300.56 244.777C300.844 243.965 301.087 243.073 301.209 242.505C301.29 243.113 301.574 244.006 301.818 244.777L305.225 254.35H297.193L300.56 244.777ZM323.506 235.934H318.314V265.586H335.918V260.799H323.506V235.934ZM111.175 310.586L113.569 303.731H124.643L127.036 310.586H132.512L121.803 280.934H116.489L105.78 310.586H111.175ZM118.477 289.777C118.761 288.965 119.004 288.073 119.126 287.505C119.207 288.113 119.491 289.006 119.734 289.777L123.142 299.35H115.11L118.477 289.777ZM146.899 310.586C155.498 310.586 161.421 304.542 161.421 295.821C161.421 286.978 155.377 280.934 146.615 280.934H136.23V310.586H146.899ZM146.128 285.72C152.253 285.72 155.944 289.533 155.944 295.821C155.944 301.986 152.334 305.799 146.412 305.799H141.422V285.72H146.128ZM173.107 310.586H178.462L189.495 280.934H184.1L177.691 298.011C177.123 299.512 176.515 301.337 175.784 303.933C175.135 301.54 174.568 299.796 173.919 298.011L167.428 280.934H161.912L173.107 310.586ZM211.611 310.586V305.799H198.387V297.93H210.231V293.346H198.387V285.72H211.611V280.934H193.194V310.586H211.611ZM222.432 310.586V299.512H228.801L233.831 310.586H239.51L233.871 298.417C237.36 296.997 239.226 294.157 239.226 290.182C239.226 284.341 235.291 280.934 228.557 280.934H217.24V310.586H222.432ZM222.432 285.558H228.557C231.843 285.558 233.79 287.221 233.79 290.182C233.79 293.184 231.843 294.928 228.557 294.928H222.432V285.558ZM241.422 285.72H250.103V310.586H255.295V285.72H263.976V280.934H241.422V285.72ZM273.137 280.934H267.945V310.586H273.137V280.934ZM278.007 289.209C278.007 293.752 280.643 296.632 285.673 297.727L290.379 298.782C292.813 299.309 293.827 300.485 293.827 302.473C293.827 304.948 291.636 306.448 288.188 306.448C284.862 306.448 282.834 304.948 282.793 302.433H277.601C277.723 307.746 281.86 311.113 288.188 311.113C294.719 311.113 299.019 307.544 299.019 302.027C299.019 297.605 296.544 295.009 291.474 293.914L286.809 292.9C284.335 292.332 283.199 291.156 283.199 289.046C283.199 286.572 285.268 285.03 288.472 285.03C291.393 285.03 293.218 286.531 293.34 289.087H298.532C298.37 283.732 294.557 280.406 288.553 280.406C282.306 280.406 278.007 284.016 278.007 289.209ZM308.908 280.934H303.716V310.586H308.908V280.934ZM320.592 310.586V289.574L334.546 310.586H339.658V280.934H334.546V301.946L320.633 280.934H315.481V310.586H320.592ZM359.202 285.314C362.772 285.314 365.773 286.937 366.706 290.426H372.182C371.331 284.381 366.098 280.447 359.324 280.447C350.399 280.447 344.518 286.856 344.518 295.861C344.518 304.988 350.318 311.032 358.634 311.032C362.65 311.032 366.017 309.45 367.639 307.179L367.964 310.586H372.345V293.914H358.553V298.498H367.518V298.619C367.518 303.366 364.394 306.205 359.242 306.205C353.766 306.205 349.953 302.595 349.953 295.983C349.953 289.574 353.32 285.314 359.202 285.314Z" fill="#FAF5EE"/>
</svg>
