<svg width="480" height="550" viewBox="0 0 480 550" fill="none" xmlns="http://www.w3.org/2000/svg">
<rect width="480" height="550" fill="#12182E"/>
<path d="M174.639 260.284H172.339V258.284H179.139V260.284H176.839V272.284H174.639V260.284ZM183.306 272.484C182.226 272.484 181.399 272.178 180.826 271.564C180.253 270.951 179.966 270.084 179.966 268.964V261.604C179.966 260.484 180.253 259.618 180.826 259.004C181.399 258.391 182.226 258.084 183.306 258.084C184.386 258.084 185.213 258.391 185.786 259.004C186.359 259.618 186.646 260.484 186.646 261.604V268.964C186.646 270.084 186.359 270.951 185.786 271.564C185.213 272.178 184.386 272.484 183.306 272.484ZM183.306 270.484C184.066 270.484 184.446 270.024 184.446 269.104V261.464C184.446 260.544 184.066 260.084 183.306 260.084C182.546 260.084 182.166 260.544 182.166 261.464V269.104C182.166 270.024 182.546 270.484 183.306 270.484ZM194.437 272.484C193.384 272.484 192.577 272.184 192.017 271.584C191.47 270.984 191.197 270.138 191.197 269.044V261.524C191.197 260.431 191.47 259.584 192.017 258.984C192.577 258.384 193.384 258.084 194.437 258.084C195.49 258.084 196.29 258.384 196.837 258.984C197.397 259.584 197.677 260.431 197.677 261.524V263.004H195.597V261.384C195.597 260.518 195.23 260.084 194.497 260.084C193.764 260.084 193.397 260.518 193.397 261.384V269.204C193.397 270.058 193.764 270.484 194.497 270.484C195.23 270.484 195.597 270.058 195.597 269.204V267.064H197.677V269.044C197.677 270.138 197.397 270.984 196.837 271.584C196.29 272.184 195.49 272.484 194.437 272.484ZM198.993 258.284H202.253C203.387 258.284 204.213 258.551 204.733 259.084C205.253 259.604 205.513 260.411 205.513 261.504V262.364C205.513 263.818 205.033 264.738 204.073 265.124V265.164C204.607 265.324 204.98 265.651 205.193 266.144C205.42 266.638 205.533 267.298 205.533 268.124V270.584C205.533 270.984 205.547 271.311 205.573 271.564C205.6 271.804 205.667 272.044 205.773 272.284H203.533C203.453 272.058 203.4 271.844 203.373 271.644C203.347 271.444 203.333 271.084 203.333 270.564V268.004C203.333 267.364 203.227 266.918 203.013 266.664C202.813 266.411 202.46 266.284 201.953 266.284H201.193V272.284H198.993V258.284ZM201.993 264.284C202.433 264.284 202.76 264.171 202.973 263.944C203.2 263.718 203.313 263.338 203.313 262.804V261.724C203.313 261.218 203.22 260.851 203.033 260.624C202.86 260.398 202.58 260.284 202.193 260.284H201.193V264.284H201.993ZM207.06 258.284H213.06V260.284H209.26V263.984H212.28V265.984H209.26V270.284H213.06V272.284H207.06V258.284ZM216.025 258.284H219.005L221.285 272.284H219.085L218.685 269.504V269.544H216.185L215.785 272.284H213.745L216.025 258.284ZM218.425 267.644L217.445 260.724H217.405L216.445 267.644H218.425ZM223.155 260.284H220.855V258.284H227.655V260.284H225.355V272.284H223.155V260.284ZM228.72 258.284H234.72V260.284H230.92V263.984H233.94V265.984H230.92V270.284H234.72V272.284H228.72V258.284ZM239.189 258.284H242.329L243.729 268.304H243.769L245.169 258.284H248.309V272.284H246.229V261.684H246.189L244.589 272.284H242.749L241.149 261.684H241.109V272.284H239.189V258.284ZM251.65 258.284H254.63L256.91 272.284H254.71L254.31 269.504V269.544H251.81L251.41 272.284H249.37L251.65 258.284ZM254.05 267.644L253.07 260.724H253.03L252.07 267.644H254.05ZM257.978 258.284H261.238C262.371 258.284 263.198 258.551 263.718 259.084C264.238 259.604 264.498 260.411 264.498 261.504V262.364C264.498 263.818 264.018 264.738 263.058 265.124V265.164C263.591 265.324 263.964 265.651 264.178 266.144C264.404 266.638 264.518 267.298 264.518 268.124V270.584C264.518 270.984 264.531 271.311 264.558 271.564C264.584 271.804 264.651 272.044 264.758 272.284H262.518C262.438 272.058 262.384 271.844 262.358 271.644C262.331 271.444 262.318 271.084 262.318 270.564V268.004C262.318 267.364 262.211 266.918 261.998 266.664C261.798 266.411 261.444 266.284 260.938 266.284H260.178V272.284H257.978V258.284ZM260.978 264.284C261.418 264.284 261.744 264.171 261.958 263.944C262.184 263.718 262.298 263.338 262.298 262.804V261.724C262.298 261.218 262.204 260.851 262.018 260.624C261.844 260.398 261.564 260.284 261.178 260.284H260.178V264.284H260.978ZM266.044 258.284H268.244V264.184L271.044 258.284H273.244L270.624 263.424L273.284 272.284H270.984L269.124 266.044L268.244 267.824V272.284H266.044V258.284ZM274.325 258.284H280.325V260.284H276.525V263.984H279.545V265.984H276.525V270.284H280.325V272.284H274.325V258.284ZM283.311 260.284H281.011V258.284H287.811V260.284H285.511V272.284H283.311V260.284ZM288.876 258.284H291.076V272.284H288.876V258.284ZM292.724 258.284H295.484L297.624 266.664H297.664V258.284H299.624V272.284H297.364L294.724 262.064H294.684V272.284H292.724V258.284ZM304.379 272.484C303.312 272.484 302.499 272.184 301.939 271.584C301.379 270.971 301.099 270.098 301.099 268.964V261.604C301.099 260.471 301.379 259.604 301.939 259.004C302.499 258.391 303.312 258.084 304.379 258.084C305.446 258.084 306.259 258.391 306.819 259.004C307.379 259.604 307.659 260.471 307.659 261.604V262.804H305.579V261.464C305.579 260.544 305.199 260.084 304.439 260.084C303.679 260.084 303.299 260.544 303.299 261.464V269.124C303.299 270.031 303.679 270.484 304.439 270.484C305.199 270.484 305.579 270.031 305.579 269.124V266.384H304.479V264.384H307.659V268.964C307.659 270.098 307.379 270.971 306.819 271.584C306.259 272.184 305.446 272.484 304.379 272.484ZM162.762 291.484C161.695 291.484 160.888 291.184 160.342 290.584C159.795 289.971 159.522 289.098 159.522 287.964V287.164H161.602V288.124C161.602 289.031 161.982 289.484 162.742 289.484C163.115 289.484 163.395 289.378 163.582 289.164C163.782 288.938 163.882 288.578 163.882 288.084C163.882 287.498 163.748 286.984 163.482 286.544C163.215 286.091 162.722 285.551 162.002 284.924C161.095 284.124 160.462 283.404 160.102 282.764C159.742 282.111 159.562 281.378 159.562 280.564C159.562 279.458 159.842 278.604 160.402 278.004C160.962 277.391 161.775 277.084 162.842 277.084C163.895 277.084 164.688 277.391 165.222 278.004C165.768 278.604 166.042 279.471 166.042 280.604V281.184H163.962V280.464C163.962 279.984 163.868 279.638 163.682 279.424C163.495 279.198 163.222 279.084 162.862 279.084C162.128 279.084 161.762 279.531 161.762 280.424C161.762 280.931 161.895 281.404 162.162 281.844C162.442 282.284 162.942 282.818 163.662 283.444C164.582 284.244 165.215 284.971 165.562 285.624C165.908 286.278 166.082 287.044 166.082 287.924C166.082 289.071 165.795 289.951 165.222 290.564C164.662 291.178 163.842 291.484 162.762 291.484ZM170.523 291.484C169.443 291.484 168.616 291.178 168.043 290.564C167.47 289.951 167.183 289.084 167.183 287.964V280.604C167.183 279.484 167.47 278.618 168.043 278.004C168.616 277.391 169.443 277.084 170.523 277.084C171.603 277.084 172.43 277.391 173.003 278.004C173.576 278.618 173.863 279.484 173.863 280.604V287.964C173.863 289.084 173.576 289.951 173.003 290.564C172.43 291.178 171.603 291.484 170.523 291.484ZM170.523 289.484C171.283 289.484 171.663 289.024 171.663 288.104V280.464C171.663 279.544 171.283 279.084 170.523 279.084C169.763 279.084 169.383 279.544 169.383 280.464V288.104C169.383 289.024 169.763 289.484 170.523 289.484ZM175.351 277.284H177.551V289.284H181.171V291.284H175.351V277.284ZM185.426 291.484C184.359 291.484 183.546 291.184 182.986 290.584C182.426 289.971 182.146 289.098 182.146 287.964V277.284H184.346V288.124C184.346 288.604 184.439 288.951 184.626 289.164C184.826 289.378 185.106 289.484 185.466 289.484C185.826 289.484 186.099 289.378 186.286 289.164C186.486 288.951 186.586 288.604 186.586 288.124V277.284H188.706V287.964C188.706 289.098 188.426 289.971 187.866 290.584C187.306 291.184 186.492 291.484 185.426 291.484ZM191.993 279.284H189.693V277.284H196.493V279.284H194.193V291.284H191.993V279.284ZM197.558 277.284H199.758V291.284H197.558V277.284ZM204.585 291.484C203.505 291.484 202.679 291.178 202.105 290.564C201.532 289.951 201.245 289.084 201.245 287.964V280.604C201.245 279.484 201.532 278.618 202.105 278.004C202.679 277.391 203.505 277.084 204.585 277.084C205.665 277.084 206.492 277.391 207.065 278.004C207.639 278.618 207.925 279.484 207.925 280.604V287.964C207.925 289.084 207.639 289.951 207.065 290.564C206.492 291.178 205.665 291.484 204.585 291.484ZM204.585 289.484C205.345 289.484 205.725 289.024 205.725 288.104V280.464C205.725 279.544 205.345 279.084 204.585 279.084C203.825 279.084 203.445 279.544 203.445 280.464V288.104C203.445 289.024 203.825 289.484 204.585 289.484ZM209.413 277.284H212.173L214.313 285.664H214.353V277.284H216.313V291.284H214.053L211.413 281.064H211.373V291.284H209.413V277.284ZM220.808 291.484C219.742 291.484 218.935 291.184 218.388 290.584C217.842 289.971 217.568 289.098 217.568 287.964V287.164H219.648V288.124C219.648 289.031 220.028 289.484 220.788 289.484C221.162 289.484 221.442 289.378 221.628 289.164C221.828 288.938 221.928 288.578 221.928 288.084C221.928 287.498 221.795 286.984 221.528 286.544C221.262 286.091 220.768 285.551 220.048 284.924C219.142 284.124 218.508 283.404 218.148 282.764C217.788 282.111 217.608 281.378 217.608 280.564C217.608 279.458 217.888 278.604 218.448 278.004C219.008 277.391 219.822 277.084 220.888 277.084C221.942 277.084 222.735 277.391 223.268 278.004C223.815 278.604 224.088 279.471 224.088 280.604V281.184H222.008V280.464C222.008 279.984 221.915 279.638 221.728 279.424C221.542 279.198 221.268 279.084 220.908 279.084C220.175 279.084 219.808 279.531 219.808 280.424C219.808 280.931 219.942 281.404 220.208 281.844C220.488 282.284 220.988 282.818 221.708 283.444C222.628 284.244 223.262 284.971 223.608 285.624C223.955 286.278 224.128 287.044 224.128 287.924C224.128 289.071 223.842 289.951 223.268 290.564C222.708 291.178 221.888 291.484 220.808 291.484ZM230.313 279.284H228.013V277.284H234.813V279.284H232.513V291.284H230.313V279.284ZM235.878 277.284H238.078V282.984H240.438V277.284H242.638V291.284H240.438V284.984H238.078V291.284H235.878V277.284ZM245.977 277.284H248.957L251.237 291.284H249.037L248.637 288.504V288.544H246.137L245.737 291.284H243.697L245.977 277.284ZM248.377 286.644L247.397 279.724H247.357L246.397 286.644H248.377ZM253.106 279.284H250.806V277.284H257.606V279.284H255.306V291.284H253.106V279.284ZM261.874 277.284H267.874V279.284H264.074V282.984H267.094V284.984H264.074V289.284H267.874V291.284H261.874V277.284ZM269.14 277.284H272.28L273.68 287.304H273.72L275.12 277.284H278.26V291.284H276.18V280.684H276.14L274.54 291.284H272.7L271.1 280.684H271.06V291.284H269.14V277.284ZM279.902 277.284H283.142C284.235 277.284 285.055 277.578 285.602 278.164C286.148 278.751 286.422 279.611 286.422 280.744V282.124C286.422 283.258 286.148 284.118 285.602 284.704C285.055 285.291 284.235 285.584 283.142 285.584H282.102V291.284H279.902V277.284ZM283.142 283.584C283.502 283.584 283.768 283.484 283.942 283.284C284.128 283.084 284.222 282.744 284.222 282.264V280.604C284.222 280.124 284.128 279.784 283.942 279.584C283.768 279.384 283.502 279.284 283.142 279.284H282.102V283.584H283.142ZM290.796 291.484C289.716 291.484 288.89 291.178 288.316 290.564C287.743 289.951 287.456 289.084 287.456 287.964V280.604C287.456 279.484 287.743 278.618 288.316 278.004C288.89 277.391 289.716 277.084 290.796 277.084C291.876 277.084 292.703 277.391 293.276 278.004C293.85 278.618 294.136 279.484 294.136 280.604V287.964C294.136 289.084 293.85 289.951 293.276 290.564C292.703 291.178 291.876 291.484 290.796 291.484ZM290.796 289.484C291.556 289.484 291.936 289.024 291.936 288.104V280.464C291.936 279.544 291.556 279.084 290.796 279.084C290.036 279.084 289.656 279.544 289.656 280.464V288.104C289.656 289.024 290.036 289.484 290.796 289.484ZM295.104 277.284H297.224L298.204 288.044H298.244L299.284 277.284H301.684L302.724 288.044H302.764L303.744 277.284H305.644L304.224 291.284H301.484L300.484 281.844H300.444L299.444 291.284H296.524L295.104 277.284ZM306.757 277.284H312.757V279.284H308.957V282.984H311.977V284.984H308.957V289.284H312.757V291.284H306.757V277.284ZM314.023 277.284H317.283C318.416 277.284 319.243 277.551 319.763 278.084C320.283 278.604 320.543 279.411 320.543 280.504V281.364C320.543 282.818 320.063 283.738 319.103 284.124V284.164C319.636 284.324 320.009 284.651 320.223 285.144C320.449 285.638 320.563 286.298 320.563 287.124V289.584C320.563 289.984 320.576 290.311 320.603 290.564C320.629 290.804 320.696 291.044 320.803 291.284H318.563C318.483 291.058 318.429 290.844 318.403 290.644C318.376 290.444 318.363 290.084 318.363 289.564V287.004C318.363 286.364 318.256 285.918 318.043 285.664C317.843 285.411 317.489 285.284 316.983 285.284H316.223V291.284H314.023V277.284ZM317.023 283.284C317.463 283.284 317.789 283.171 318.003 282.944C318.229 282.718 318.343 282.338 318.343 281.804V280.724C318.343 280.218 318.249 279.851 318.063 279.624C317.889 279.398 317.609 279.284 317.223 279.284H316.223V283.284H317.023ZM174.59 296.284H177.57L179.85 310.284H177.65L177.25 307.504V307.544H174.75L174.35 310.284H172.31L174.59 296.284ZM176.99 305.644L176.01 298.724H175.97L175.01 305.644H176.99ZM184.078 310.484C183.011 310.484 182.198 310.184 181.638 309.584C181.078 308.971 180.798 308.098 180.798 306.964V296.284H182.998V307.124C182.998 307.604 183.091 307.951 183.278 308.164C183.478 308.378 183.758 308.484 184.118 308.484C184.478 308.484 184.751 308.378 184.938 308.164C185.138 307.951 185.238 307.604 185.238 307.124V296.284H187.358V306.964C187.358 308.098 187.078 308.971 186.518 309.584C185.958 310.184 185.145 310.484 184.078 310.484ZM190.645 298.284H188.345V296.284H195.145V298.284H192.845V310.284H190.645V298.284ZM196.21 296.284H198.41V301.984H200.77V296.284H202.97V310.284H200.77V303.984H198.41V310.284H196.21V296.284ZM204.609 296.284H210.609V298.284H206.809V301.984H209.829V303.984H206.809V308.284H210.609V310.284H204.609V296.284ZM211.874 296.284H214.634L216.774 304.664H216.814V296.284H218.774V310.284H216.514L213.874 300.064H213.834V310.284H211.874V296.284ZM222.129 298.284H219.829V296.284H226.629V298.284H224.329V310.284H222.129V298.284ZM227.694 296.284H229.894V310.284H227.694V296.284ZM234.642 310.484C233.589 310.484 232.782 310.184 232.222 309.584C231.675 308.984 231.402 308.138 231.402 307.044V299.524C231.402 298.431 231.675 297.584 232.222 296.984C232.782 296.384 233.589 296.084 234.642 296.084C235.695 296.084 236.495 296.384 237.042 296.984C237.602 297.584 237.882 298.431 237.882 299.524V301.004H235.802V299.384C235.802 298.518 235.435 298.084 234.702 298.084C233.969 298.084 233.602 298.518 233.602 299.384V307.204C233.602 308.058 233.969 308.484 234.702 308.484C235.435 308.484 235.802 308.058 235.802 307.204V305.064H237.882V307.044C237.882 308.138 237.602 308.984 237.042 309.584C236.495 310.184 235.695 310.484 234.642 310.484ZM242.402 296.284H245.722C246.855 296.284 247.682 296.551 248.202 297.084C248.722 297.604 248.982 298.411 248.982 299.504V300.064C248.982 300.784 248.862 301.371 248.622 301.824C248.395 302.278 248.042 302.604 247.562 302.804V302.844C248.655 303.218 249.202 304.191 249.202 305.764V306.964C249.202 308.044 248.915 308.871 248.342 309.444C247.782 310.004 246.955 310.284 245.862 310.284H242.402V296.284ZM245.462 301.984C245.902 301.984 246.228 301.871 246.442 301.644C246.668 301.418 246.782 301.038 246.782 300.504V299.724C246.782 299.218 246.688 298.851 246.502 298.624C246.328 298.398 246.048 298.284 245.662 298.284H244.602V301.984H245.462ZM245.862 308.284C246.248 308.284 246.535 308.184 246.722 307.984C246.908 307.771 247.002 307.411 247.002 306.904V305.684C247.002 305.044 246.888 304.604 246.662 304.364C246.448 304.111 246.088 303.984 245.582 303.984H244.602V308.284H245.862ZM250.487 296.284H253.747C254.881 296.284 255.707 296.551 256.227 297.084C256.747 297.604 257.007 298.411 257.007 299.504V300.364C257.007 301.818 256.527 302.738 255.567 303.124V303.164C256.101 303.324 256.474 303.651 256.687 304.144C256.914 304.638 257.027 305.298 257.027 306.124V308.584C257.027 308.984 257.041 309.311 257.067 309.564C257.094 309.804 257.161 310.044 257.267 310.284H255.027C254.947 310.058 254.894 309.844 254.867 309.644C254.841 309.444 254.827 309.084 254.827 308.564V306.004C254.827 305.364 254.721 304.918 254.507 304.664C254.307 304.411 253.954 304.284 253.447 304.284H252.687V310.284H250.487V296.284ZM253.487 302.284C253.927 302.284 254.254 302.171 254.467 301.944C254.694 301.718 254.807 301.338 254.807 300.804V299.724C254.807 299.218 254.714 298.851 254.527 298.624C254.354 298.398 254.074 298.284 253.687 298.284H252.687V302.284H253.487ZM260.254 296.284H263.234L265.514 310.284H263.314L262.914 307.504V307.544H260.414L260.014 310.284H257.974L260.254 296.284ZM262.654 305.644L261.674 298.724H261.634L260.674 305.644H262.654ZM266.581 296.284H269.341L271.481 304.664H271.521V296.284H273.481V310.284H271.221L268.581 300.064H268.541V310.284H266.581V296.284ZM275.116 296.284H278.476C279.57 296.284 280.39 296.578 280.936 297.164C281.483 297.751 281.756 298.611 281.756 299.744V306.824C281.756 307.958 281.483 308.818 280.936 309.404C280.39 309.991 279.57 310.284 278.476 310.284H275.116V296.284ZM278.436 308.284C278.796 308.284 279.07 308.178 279.256 307.964C279.456 307.751 279.556 307.404 279.556 306.924V299.644C279.556 299.164 279.456 298.818 279.256 298.604C279.07 298.391 278.796 298.284 278.436 298.284H277.316V308.284H278.436ZM286.101 310.484C285.035 310.484 284.228 310.184 283.681 309.584C283.135 308.971 282.861 308.098 282.861 306.964V306.164H284.941V307.124C284.941 308.031 285.321 308.484 286.081 308.484C286.455 308.484 286.735 308.378 286.921 308.164C287.121 307.938 287.221 307.578 287.221 307.084C287.221 306.498 287.088 305.984 286.821 305.544C286.555 305.091 286.061 304.551 285.341 303.924C284.435 303.124 283.801 302.404 283.441 301.764C283.081 301.111 282.901 300.378 282.901 299.564C282.901 298.458 283.181 297.604 283.741 297.004C284.301 296.391 285.115 296.084 286.181 296.084C287.235 296.084 288.028 296.391 288.561 297.004C289.108 297.604 289.381 298.471 289.381 299.604V300.184H287.301V299.464C287.301 298.984 287.208 298.638 287.021 298.424C286.835 298.198 286.561 298.084 286.201 298.084C285.468 298.084 285.101 298.531 285.101 299.424C285.101 299.931 285.235 300.404 285.501 300.844C285.781 301.284 286.281 301.818 287.001 302.444C287.921 303.244 288.555 303.971 288.901 304.624C289.248 305.278 289.421 306.044 289.421 306.924C289.421 308.071 289.135 308.951 288.561 309.564C288.001 310.178 287.181 310.484 286.101 310.484ZM295.606 298.284H293.306V296.284H300.106V298.284H297.806V310.284H295.606V298.284ZM304.273 310.484C303.193 310.484 302.366 310.178 301.793 309.564C301.22 308.951 300.933 308.084 300.933 306.964V299.604C300.933 298.484 301.22 297.618 301.793 297.004C302.366 296.391 303.193 296.084 304.273 296.084C305.353 296.084 306.18 296.391 306.753 297.004C307.326 297.618 307.613 298.484 307.613 299.604V306.964C307.613 308.084 307.326 308.951 306.753 309.564C306.18 310.178 305.353 310.484 304.273 310.484ZM304.273 308.484C305.033 308.484 305.413 308.024 305.413 307.104V299.464C305.413 298.544 305.033 298.084 304.273 298.084C303.513 298.084 303.133 298.544 303.133 299.464V307.104C303.133 308.024 303.513 308.484 304.273 308.484ZM164.706 315.284H167.966C169.1 315.284 169.926 315.551 170.446 316.084C170.966 316.604 171.226 317.411 171.226 318.504V319.364C171.226 320.818 170.746 321.738 169.786 322.124V322.164C170.32 322.324 170.693 322.651 170.906 323.144C171.133 323.638 171.246 324.298 171.246 325.124V327.584C171.246 327.984 171.26 328.311 171.286 328.564C171.313 328.804 171.38 329.044 171.486 329.284H169.246C169.166 329.058 169.113 328.844 169.086 328.644C169.06 328.444 169.046 328.084 169.046 327.564V325.004C169.046 324.364 168.94 323.918 168.726 323.664C168.526 323.411 168.173 323.284 167.666 323.284H166.906V329.284H164.706V315.284ZM167.706 321.284C168.146 321.284 168.473 321.171 168.686 320.944C168.913 320.718 169.026 320.338 169.026 319.804V318.724C169.026 318.218 168.933 317.851 168.746 317.624C168.573 317.398 168.293 317.284 167.906 317.284H166.906V321.284H167.706ZM172.773 315.284H178.773V317.284H174.973V320.984H177.993V322.984H174.973V327.284H178.773V329.284H172.773V315.284ZM181.738 315.284H184.718L186.998 329.284H184.798L184.398 326.504V326.544H181.898L181.498 329.284H179.458L181.738 315.284ZM184.138 324.644L183.158 317.724H183.118L182.158 324.644H184.138ZM191.127 329.484C190.073 329.484 189.267 329.184 188.707 328.584C188.16 327.984 187.887 327.138 187.887 326.044V318.524C187.887 317.431 188.16 316.584 188.707 315.984C189.267 315.384 190.073 315.084 191.127 315.084C192.18 315.084 192.98 315.384 193.527 315.984C194.087 316.584 194.367 317.431 194.367 318.524V320.004H192.287V318.384C192.287 317.518 191.92 317.084 191.187 317.084C190.453 317.084 190.087 317.518 190.087 318.384V326.204C190.087 327.058 190.453 327.484 191.187 327.484C191.92 327.484 192.287 327.058 192.287 326.204V324.064H194.367V326.044C194.367 327.138 194.087 327.984 193.527 328.584C192.98 329.184 192.18 329.484 191.127 329.484ZM195.683 315.284H197.883V320.984H200.243V315.284H202.443V329.284H200.243V322.984H197.883V329.284H195.683V315.284ZM209.004 317.284H206.704V315.284H213.504V317.284H211.204V329.284H209.004V317.284ZM214.569 315.284H216.769V320.984H219.129V315.284H221.329V329.284H219.129V322.984H216.769V329.284H214.569V315.284ZM222.968 315.284H228.968V317.284H225.168V320.984H228.188V322.984H225.168V327.284H228.968V329.284H222.968V315.284ZM230.234 315.284H232.434V329.284H230.234V315.284ZM234.081 315.284H237.341C238.475 315.284 239.301 315.551 239.821 316.084C240.341 316.604 240.601 317.411 240.601 318.504V319.364C240.601 320.818 240.121 321.738 239.161 322.124V322.164C239.695 322.324 240.068 322.651 240.281 323.144C240.508 323.638 240.621 324.298 240.621 325.124V327.584C240.621 327.984 240.635 328.311 240.661 328.564C240.688 328.804 240.755 329.044 240.861 329.284H238.621C238.541 329.058 238.488 328.844 238.461 328.644C238.435 328.444 238.421 328.084 238.421 327.564V325.004C238.421 324.364 238.315 323.918 238.101 323.664C237.901 323.411 237.548 323.284 237.041 323.284H236.281V329.284H234.081V315.284ZM237.081 321.284C237.521 321.284 237.848 321.171 238.061 320.944C238.288 320.718 238.401 320.338 238.401 319.804V318.724C238.401 318.218 238.308 317.851 238.121 317.624C237.948 317.398 237.668 317.284 237.281 317.284H236.281V321.284H237.081ZM245.351 315.284H248.591C249.684 315.284 250.504 315.578 251.051 316.164C251.597 316.751 251.871 317.611 251.871 318.744V320.124C251.871 321.258 251.597 322.118 251.051 322.704C250.504 323.291 249.684 323.584 248.591 323.584H247.551V329.284H245.351V315.284ZM248.591 321.584C248.951 321.584 249.217 321.484 249.391 321.284C249.577 321.084 249.671 320.744 249.671 320.264V318.604C249.671 318.124 249.577 317.784 249.391 317.584C249.217 317.384 248.951 317.284 248.591 317.284H247.551V321.584H248.591ZM256.246 329.484C255.166 329.484 254.339 329.178 253.766 328.564C253.192 327.951 252.906 327.084 252.906 325.964V318.604C252.906 317.484 253.192 316.618 253.766 316.004C254.339 315.391 255.166 315.084 256.246 315.084C257.326 315.084 258.152 315.391 258.726 316.004C259.299 316.618 259.586 317.484 259.586 318.604V325.964C259.586 327.084 259.299 327.951 258.726 328.564C258.152 329.178 257.326 329.484 256.246 329.484ZM256.246 327.484C257.006 327.484 257.386 327.024 257.386 326.104V318.464C257.386 317.544 257.006 317.084 256.246 317.084C255.486 317.084 255.106 317.544 255.106 318.464V326.104C255.106 327.024 255.486 327.484 256.246 327.484ZM262.715 317.284H260.415V315.284H267.215V317.284H264.915V329.284H262.715V317.284ZM268.28 315.284H274.28V317.284H270.48V320.984H273.5V322.984H270.48V327.284H274.28V329.284H268.28V315.284ZM275.546 315.284H278.306L280.446 323.664H280.486V315.284H282.446V329.284H280.186L277.546 319.064H277.506V329.284H275.546V315.284ZM285.801 317.284H283.501V315.284H290.301V317.284H288.001V329.284H285.801V317.284ZM291.366 315.284H293.566V329.284H291.366V315.284ZM296.914 315.284H299.894L302.174 329.284H299.974L299.574 326.504V326.544H297.074L296.674 329.284H294.634L296.914 315.284ZM299.314 324.644L298.334 317.724H298.294L297.334 324.644H299.314ZM303.241 315.284H305.441V327.284H309.061V329.284H303.241V315.284ZM310.312 327.164H312.432V329.284H310.312V327.164Z" fill="#7270FF"/>
<path d="M210.665 222.704C210.665 220.088 208.985 218.252 206.573 218.252C204.173 218.252 202.481 220.1 202.481 222.704C202.481 225.308 204.161 227.144 206.573 227.144C208.973 227.144 210.665 225.308 210.665 222.704ZM209.777 222.704C209.777 224.84 208.469 226.316 206.573 226.316C204.677 226.316 203.381 224.852 203.381 222.704C203.381 220.556 204.677 219.092 206.573 219.092C208.469 219.092 209.777 220.556 209.777 222.704ZM212.172 224.012C212.172 225.968 213.372 227.144 215.364 227.144C217.32 227.144 218.52 225.956 218.52 224.012V218.408H217.656V223.976C217.656 225.464 216.828 226.304 215.364 226.304C213.864 226.304 213.036 225.488 213.036 223.976V218.408H212.172V224.012ZM221.416 227V223.436H223.924L225.676 227H226.636L224.8 223.292C225.904 222.992 226.552 222.128 226.552 220.892C226.552 219.368 225.496 218.408 223.756 218.408H220.552V227H221.416ZM221.416 219.188H223.756C224.932 219.188 225.664 219.8 225.664 220.916C225.664 222.008 224.968 222.656 223.78 222.656H221.416V219.188ZM232.408 227V222.788C232.408 221.48 232.384 220.532 232.336 220.208L235.132 227H235.96L238.756 220.172C238.708 220.76 238.684 221.42 238.684 222.92V227H239.536V218.408H238.672L235.54 225.98L232.408 218.408H231.556V227H232.408ZM242.487 218.408H241.623V227H242.487V218.408ZM244.06 220.64C244.06 221.816 244.768 222.584 246.112 222.908L247.564 223.268C248.488 223.484 248.92 223.988 248.92 224.756C248.92 225.74 248.116 226.352 246.856 226.352C245.68 226.352 244.888 225.764 244.84 224.864H243.952C244.06 226.268 245.188 227.144 246.856 227.144C248.632 227.144 249.784 226.196 249.784 224.708C249.784 223.544 249.088 222.776 247.744 222.452L246.268 222.092C245.368 221.864 244.924 221.384 244.924 220.628C244.924 219.656 245.716 219.032 246.928 219.032C248.008 219.032 248.668 219.584 248.764 220.556H249.64C249.508 219.116 248.488 218.252 246.94 218.252C245.212 218.252 244.06 219.2 244.06 220.64ZM250.845 220.64C250.845 221.816 251.553 222.584 252.897 222.908L254.349 223.268C255.273 223.484 255.705 223.988 255.705 224.756C255.705 225.74 254.901 226.352 253.641 226.352C252.465 226.352 251.673 225.764 251.625 224.864H250.737C250.845 226.268 251.973 227.144 253.641 227.144C255.417 227.144 256.569 226.196 256.569 224.708C256.569 223.544 255.873 222.776 254.529 222.452L253.053 222.092C252.153 221.864 251.709 221.384 251.709 220.628C251.709 219.656 252.501 219.032 253.713 219.032C254.793 219.032 255.453 219.584 255.549 220.556H256.425C256.293 219.116 255.273 218.252 253.725 218.252C251.997 218.252 250.845 219.2 250.845 220.64ZM258.987 218.408H258.123V227H258.987V218.408ZM268.732 222.704C268.732 220.088 267.052 218.252 264.64 218.252C262.24 218.252 260.548 220.1 260.548 222.704C260.548 225.308 262.228 227.144 264.64 227.144C267.04 227.144 268.732 225.308 268.732 222.704ZM267.844 222.704C267.844 224.84 266.536 226.316 264.64 226.316C262.744 226.316 261.448 224.852 261.448 222.704C261.448 220.556 262.744 219.092 264.64 219.092C266.536 219.092 267.844 220.556 267.844 222.704ZM271.162 227V219.848L275.902 227H276.754V218.408H275.902V225.56L271.174 218.408H270.298V227H271.162Z" fill="#7270FF"/>
</svg>
