<svg width="480" height="549" viewBox="0 0 480 549" fill="none" xmlns="http://www.w3.org/2000/svg">
<rect y="-1" width="480" height="550" fill="#12182E"/>
<path d="M158.458 227H160.578L161.558 237.76H161.598L162.638 227H165.038L166.078 237.76H166.118L167.098 227H168.998L167.578 241H164.838L163.838 231.56H163.798L162.798 241H159.878L158.458 227ZM170.111 227H176.111V229H172.311V232.7H175.331V234.7H172.311V239H176.111V241H170.111V227ZM183.68 241.2C182.626 241.2 181.82 240.9 181.26 240.3C180.713 239.7 180.44 238.853 180.44 237.76V230.24C180.44 229.147 180.713 228.3 181.26 227.7C181.82 227.1 182.626 226.8 183.68 226.8C184.733 226.8 185.533 227.1 186.08 227.7C186.64 228.3 186.92 229.147 186.92 230.24V231.72H184.84V230.1C184.84 229.233 184.473 228.8 183.74 228.8C183.006 228.8 182.64 229.233 182.64 230.1V237.92C182.64 238.773 183.006 239.2 183.74 239.2C184.473 239.2 184.84 238.773 184.84 237.92V235.78H186.92V237.76C186.92 238.853 186.64 239.7 186.08 240.3C185.533 240.9 184.733 241.2 183.68 241.2ZM191.455 241.2C190.375 241.2 189.548 240.893 188.975 240.28C188.402 239.667 188.115 238.8 188.115 237.68V230.32C188.115 229.2 188.402 228.333 188.975 227.72C189.548 227.107 190.375 226.8 191.455 226.8C192.535 226.8 193.362 227.107 193.935 227.72C194.508 228.333 194.795 229.2 194.795 230.32V237.68C194.795 238.8 194.508 239.667 193.935 240.28C193.362 240.893 192.535 241.2 191.455 241.2ZM191.455 239.2C192.215 239.2 192.595 238.74 192.595 237.82V230.18C192.595 229.26 192.215 228.8 191.455 228.8C190.695 228.8 190.315 229.26 190.315 230.18V237.82C190.315 238.74 190.695 239.2 191.455 239.2ZM195.963 233H200.363V235H195.963V233ZM201.674 227H207.494V229H203.874V232.9H206.714V234.9H203.874V241H201.674V227ZM211.729 241.2C210.649 241.2 209.822 240.893 209.249 240.28C208.675 239.667 208.389 238.8 208.389 237.68V230.32C208.389 229.2 208.675 228.333 209.249 227.72C209.822 227.107 210.649 226.8 211.729 226.8C212.809 226.8 213.635 227.107 214.209 227.72C214.782 228.333 215.069 229.2 215.069 230.32V237.68C215.069 238.8 214.782 239.667 214.209 240.28C213.635 240.893 212.809 241.2 211.729 241.2ZM211.729 239.2C212.489 239.2 212.869 238.74 212.869 237.82V230.18C212.869 229.26 212.489 228.8 211.729 228.8C210.969 228.8 210.589 229.26 210.589 230.18V237.82C210.589 238.74 210.969 239.2 211.729 239.2ZM219.756 241.2C218.69 241.2 217.876 240.9 217.316 240.3C216.756 239.687 216.476 238.813 216.476 237.68V227H218.676V237.84C218.676 238.32 218.77 238.667 218.956 238.88C219.156 239.093 219.436 239.2 219.796 239.2C220.156 239.2 220.43 239.093 220.616 238.88C220.816 238.667 220.916 238.32 220.916 237.84V227H223.036V237.68C223.036 238.813 222.756 239.687 222.196 240.3C221.636 240.9 220.823 241.2 219.756 241.2ZM224.603 227H227.363L229.503 235.38H229.543V227H231.503V241H229.243L226.603 230.78H226.563V241H224.603V227ZM233.138 227H236.498C237.592 227 238.412 227.293 238.958 227.88C239.505 228.467 239.778 229.327 239.778 230.46V237.54C239.778 238.673 239.505 239.533 238.958 240.12C238.412 240.707 237.592 241 236.498 241H233.138V227ZM236.458 239C236.818 239 237.092 238.893 237.278 238.68C237.478 238.467 237.578 238.12 237.578 237.64V230.36C237.578 229.88 237.478 229.533 237.278 229.32C237.092 229.107 236.818 229 236.458 229H235.338V239H236.458ZM241.263 227H247.263V229H243.463V232.7H246.483V234.7H243.463V239H247.263V241H241.263V227ZM248.529 227H251.889C252.982 227 253.802 227.293 254.349 227.88C254.896 228.467 255.169 229.327 255.169 230.46V237.54C255.169 238.673 254.896 239.533 254.349 240.12C253.802 240.707 252.982 241 251.889 241H248.529V227ZM251.849 239C252.209 239 252.482 238.893 252.669 238.68C252.869 238.467 252.969 238.12 252.969 237.64V230.36C252.969 229.88 252.869 229.533 252.669 229.32C252.482 229.107 252.209 229 251.849 229H250.729V239H251.849ZM259.857 227H263.117C264.25 227 265.077 227.267 265.597 227.8C266.117 228.32 266.377 229.127 266.377 230.22V231.08C266.377 232.533 265.897 233.453 264.937 233.84V233.88C265.47 234.04 265.844 234.367 266.057 234.86C266.284 235.353 266.397 236.013 266.397 236.84V239.3C266.397 239.7 266.41 240.027 266.437 240.28C266.464 240.52 266.53 240.76 266.637 241H264.397C264.317 240.773 264.264 240.56 264.237 240.36C264.21 240.16 264.197 239.8 264.197 239.28V236.72C264.197 236.08 264.09 235.633 263.877 235.38C263.677 235.127 263.324 235 262.817 235H262.057V241H259.857V227ZM262.857 233C263.297 233 263.624 232.887 263.837 232.66C264.064 232.433 264.177 232.053 264.177 231.52V230.44C264.177 229.933 264.084 229.567 263.897 229.34C263.724 229.113 263.444 229 263.057 229H262.057V233H262.857ZM267.924 227H270.124V241H267.924V227ZM274.891 241.2C273.825 241.2 273.011 240.9 272.451 240.3C271.891 239.687 271.611 238.813 271.611 237.68V230.32C271.611 229.187 271.891 228.32 272.451 227.72C273.011 227.107 273.825 226.8 274.891 226.8C275.958 226.8 276.771 227.107 277.331 227.72C277.891 228.32 278.171 229.187 278.171 230.32V231.52H276.091V230.18C276.091 229.26 275.711 228.8 274.951 228.8C274.191 228.8 273.811 229.26 273.811 230.18V237.84C273.811 238.747 274.191 239.2 274.951 239.2C275.711 239.2 276.091 238.747 276.091 237.84V235.1H274.991V233.1H278.171V237.68C278.171 238.813 277.891 239.687 277.331 240.3C276.771 240.9 275.958 241.2 274.891 241.2ZM282.764 241.2C281.684 241.2 280.857 240.893 280.284 240.28C279.71 239.667 279.424 238.8 279.424 237.68V230.32C279.424 229.2 279.71 228.333 280.284 227.72C280.857 227.107 281.684 226.8 282.764 226.8C283.844 226.8 284.67 227.107 285.244 227.72C285.817 228.333 286.104 229.2 286.104 230.32V237.68C286.104 238.8 285.817 239.667 285.244 240.28C284.67 240.893 283.844 241.2 282.764 241.2ZM282.764 239.2C283.524 239.2 283.904 238.74 283.904 237.82V230.18C283.904 229.26 283.524 228.8 282.764 228.8C282.004 228.8 281.624 229.26 281.624 230.18V237.82C281.624 238.74 282.004 239.2 282.764 239.2ZM290.275 227H292.395L293.375 237.76H293.415L294.455 227H296.855L297.895 237.76H297.935L298.915 227H300.815L299.395 241H296.655L295.655 231.56H295.615L294.615 241H291.695L290.275 227ZM301.927 227H304.127V241H301.927V227ZM307.495 229H305.195V227H311.995V229H309.695V241H307.495V229ZM313.06 227H315.26V232.7H317.62V227H319.82V241H317.62V234.7H315.26V241H313.06V227ZM153.266 246H156.246L158.526 260H156.326L155.926 257.22V257.26H153.426L153.026 260H150.986L153.266 246ZM155.666 255.36L154.686 248.44H154.646L153.686 255.36H155.666ZM165.917 260.2C164.85 260.2 164.037 259.9 163.477 259.3C162.917 258.687 162.637 257.813 162.637 256.68V249.32C162.637 248.187 162.917 247.32 163.477 246.72C164.037 246.107 164.85 245.8 165.917 245.8C166.983 245.8 167.797 246.107 168.357 246.72C168.917 247.32 169.197 248.187 169.197 249.32V250.52H167.117V249.18C167.117 248.26 166.737 247.8 165.977 247.8C165.217 247.8 164.837 248.26 164.837 249.18V256.84C164.837 257.747 165.217 258.2 165.977 258.2C166.737 258.2 167.117 257.747 167.117 256.84V254.1H166.017V252.1H169.197V256.68C169.197 257.813 168.917 258.687 168.357 259.3C167.797 259.9 166.983 260.2 165.917 260.2ZM173.789 260.2C172.709 260.2 171.882 259.893 171.309 259.28C170.736 258.667 170.449 257.8 170.449 256.68V249.32C170.449 248.2 170.736 247.333 171.309 246.72C171.882 246.107 172.709 245.8 173.789 245.8C174.869 245.8 175.696 246.107 176.269 246.72C176.842 247.333 177.129 248.2 177.129 249.32V256.68C177.129 257.8 176.842 258.667 176.269 259.28C175.696 259.893 174.869 260.2 173.789 260.2ZM173.789 258.2C174.549 258.2 174.929 257.74 174.929 256.82V249.18C174.929 248.26 174.549 247.8 173.789 247.8C173.029 247.8 172.649 248.26 172.649 249.18V256.82C172.649 257.74 173.029 258.2 173.789 258.2ZM180.278 246H183.258L185.538 260H183.338L182.938 257.22V257.26H180.438L180.038 260H177.998L180.278 246ZM182.678 255.36L181.698 248.44H181.658L180.698 255.36H182.678ZM186.605 246H188.805V258H192.425V260H186.605V246ZM198.403 248H196.103V246H202.903V248H200.603V260H198.403V248ZM207.07 260.2C205.99 260.2 205.164 259.893 204.59 259.28C204.017 258.667 203.73 257.8 203.73 256.68V249.32C203.73 248.2 204.017 247.333 204.59 246.72C205.164 246.107 205.99 245.8 207.07 245.8C208.15 245.8 208.977 246.107 209.55 246.72C210.124 247.333 210.41 248.2 210.41 249.32V256.68C210.41 257.8 210.124 258.667 209.55 259.28C208.977 259.893 208.15 260.2 207.07 260.2ZM207.07 258.2C207.83 258.2 208.21 257.74 208.21 256.82V249.18C208.21 248.26 207.83 247.8 207.07 247.8C206.31 247.8 205.93 248.26 205.93 249.18V256.82C205.93 257.74 206.31 258.2 207.07 258.2ZM218.201 260.2C217.148 260.2 216.341 259.9 215.781 259.3C215.235 258.7 214.961 257.853 214.961 256.76V249.24C214.961 248.147 215.235 247.3 215.781 246.7C216.341 246.1 217.148 245.8 218.201 245.8C219.255 245.8 220.055 246.1 220.601 246.7C221.161 247.3 221.441 248.147 221.441 249.24V250.72H219.361V249.1C219.361 248.233 218.995 247.8 218.261 247.8C217.528 247.8 217.161 248.233 217.161 249.1V256.92C217.161 257.773 217.528 258.2 218.261 258.2C218.995 258.2 219.361 257.773 219.361 256.92V254.78H221.441V256.76C221.441 257.853 221.161 258.7 220.601 259.3C220.055 259.9 219.255 260.2 218.201 260.2ZM222.758 246H226.018C227.151 246 227.978 246.267 228.498 246.8C229.018 247.32 229.278 248.127 229.278 249.22V250.08C229.278 251.533 228.798 252.453 227.838 252.84V252.88C228.371 253.04 228.744 253.367 228.958 253.86C229.184 254.353 229.298 255.013 229.298 255.84V258.3C229.298 258.7 229.311 259.027 229.338 259.28C229.364 259.52 229.431 259.76 229.538 260H227.298C227.218 259.773 227.164 259.56 227.138 259.36C227.111 259.16 227.098 258.8 227.098 258.28V255.72C227.098 255.08 226.991 254.633 226.778 254.38C226.578 254.127 226.224 254 225.718 254H224.958V260H222.758V246ZM225.758 252C226.198 252 226.524 251.887 226.738 251.66C226.964 251.433 227.077 251.053 227.077 250.52V249.44C227.077 248.933 226.984 248.567 226.798 248.34C226.624 248.113 226.344 248 225.958 248H224.958V252H225.758ZM230.824 246H236.824V248H233.024V251.7H236.044V253.7H233.024V258H236.824V260H230.824V246ZM239.79 246H242.77L245.05 260H242.85L242.45 257.22V257.26H239.95L239.55 260H237.51L239.79 246ZM242.19 255.36L241.21 248.44H241.17L240.21 255.36H242.19ZM246.919 248H244.619V246H251.419V248H249.119V260H246.919V248ZM252.484 246H258.484V248H254.684V251.7H257.704V253.7H254.684V258H258.484V260H252.484V246ZM266.053 260.2C264.999 260.2 264.193 259.9 263.633 259.3C263.086 258.7 262.813 257.853 262.813 256.76V249.24C262.813 248.147 263.086 247.3 263.633 246.7C264.193 246.1 264.999 245.8 266.053 245.8C267.106 245.8 267.906 246.1 268.453 246.7C269.013 247.3 269.293 248.147 269.293 249.24V250.72H267.213V249.1C267.213 248.233 266.846 247.8 266.113 247.8C265.379 247.8 265.013 248.233 265.013 249.1V256.92C265.013 257.773 265.379 258.2 266.113 258.2C266.846 258.2 267.213 257.773 267.213 256.92V254.78H269.293V256.76C269.293 257.853 269.013 258.7 268.453 259.3C267.906 259.9 267.106 260.2 266.053 260.2ZM272.309 246H275.289L277.569 260H275.369L274.969 257.22V257.26H272.469L272.069 260H270.029L272.309 246ZM274.709 255.36L273.729 248.44H273.689L272.729 255.36H274.709ZM278.636 246H281.776L283.176 256.02H283.216L284.616 246H287.756V260H285.676V249.4H285.636L284.036 260H282.196L280.596 249.4H280.556V260H278.636V246ZM289.398 246H292.638C293.731 246 294.551 246.293 295.098 246.88C295.645 247.467 295.918 248.327 295.918 249.46V250.84C295.918 251.973 295.645 252.833 295.098 253.42C294.551 254.007 293.731 254.3 292.638 254.3H291.598V260H289.398V246ZM292.638 252.3C292.998 252.3 293.265 252.2 293.438 252C293.625 251.8 293.718 251.46 293.718 250.98V249.32C293.718 248.84 293.625 248.5 293.438 248.3C293.265 248.1 292.998 248 292.638 248H291.598V252.3H292.638ZM298.11 246H301.09L303.37 260H301.17L300.77 257.22V257.26H298.27L297.87 260H295.83L298.11 246ZM300.51 255.36L299.53 248.44H299.49L298.53 255.36H300.51ZM304.437 246H306.637V260H304.437V246ZM311.405 260.2C310.338 260.2 309.525 259.9 308.965 259.3C308.405 258.687 308.125 257.813 308.125 256.68V249.32C308.125 248.187 308.405 247.32 308.965 246.72C309.525 246.107 310.338 245.8 311.405 245.8C312.472 245.8 313.285 246.107 313.845 246.72C314.405 247.32 314.685 248.187 314.685 249.32V250.52H312.605V249.18C312.605 248.26 312.225 247.8 311.465 247.8C310.705 247.8 310.325 248.26 310.325 249.18V256.84C310.325 257.747 310.705 258.2 311.465 258.2C312.225 258.2 312.605 257.747 312.605 256.84V254.1H311.505V252.1H314.685V256.68C314.685 257.813 314.405 258.687 313.845 259.3C313.285 259.9 312.472 260.2 311.405 260.2ZM316.097 246H318.857L320.997 254.38H321.037V246H322.997V260H320.737L318.097 249.78H318.057V260H316.097V246ZM327.493 260.2C326.426 260.2 325.619 259.9 325.073 259.3C324.526 258.687 324.253 257.813 324.253 256.68V255.88H326.333V256.84C326.333 257.747 326.713 258.2 327.473 258.2C327.846 258.2 328.126 258.093 328.313 257.88C328.513 257.653 328.613 257.293 328.613 256.8C328.613 256.213 328.479 255.7 328.213 255.26C327.946 254.807 327.453 254.267 326.733 253.64C325.826 252.84 325.193 252.12 324.833 251.48C324.473 250.827 324.293 250.093 324.293 249.28C324.293 248.173 324.573 247.32 325.132 246.72C325.693 246.107 326.506 245.8 327.573 245.8C328.626 245.8 329.419 246.107 329.953 246.72C330.499 247.32 330.773 248.187 330.773 249.32V249.9H328.693V249.18C328.693 248.7 328.599 248.353 328.413 248.14C328.226 247.913 327.953 247.8 327.593 247.8C326.859 247.8 326.493 248.247 326.493 249.14C326.493 249.647 326.626 250.12 326.893 250.56C327.173 251 327.673 251.533 328.393 252.16C329.313 252.96 329.946 253.687 330.293 254.34C330.639 254.993 330.813 255.76 330.813 256.64C330.813 257.787 330.526 258.667 329.953 259.28C329.393 259.893 328.573 260.2 327.493 260.2ZM171.235 267H168.935V265H175.735V267H173.435V279H171.235V267ZM176.8 265H179V270.7H181.36V265H183.56V279H181.36V272.7H179V279H176.8V265ZM186.899 265H189.879L192.159 279H189.959L189.559 276.22V276.26H187.059L186.659 279H184.619L186.899 265ZM189.299 274.36L188.319 267.44H188.279L187.319 274.36H189.299ZM194.028 267H191.728V265H198.528V267H196.228V279H194.028V267ZM202.797 265H206.037C207.13 265 207.95 265.293 208.497 265.88C209.043 266.467 209.317 267.327 209.317 268.46V269.84C209.317 270.973 209.043 271.833 208.497 272.42C207.95 273.007 207.13 273.3 206.037 273.3H204.997V279H202.797V265ZM206.037 271.3C206.397 271.3 206.663 271.2 206.837 271C207.023 270.8 207.117 270.46 207.117 269.98V268.32C207.117 267.84 207.023 267.5 206.837 267.3C206.663 267.1 206.397 267 206.037 267H204.997V271.3H206.037ZM213.711 279.2C212.645 279.2 211.831 278.9 211.271 278.3C210.711 277.687 210.431 276.813 210.431 275.68V265H212.631V275.84C212.631 276.32 212.725 276.667 212.911 276.88C213.111 277.093 213.391 277.2 213.751 277.2C214.111 277.2 214.385 277.093 214.571 276.88C214.771 276.667 214.871 276.32 214.871 275.84V265H216.991V275.68C216.991 276.813 216.711 277.687 216.151 278.3C215.591 278.9 214.778 279.2 213.711 279.2ZM220.278 267H217.978V265H224.778V267H222.478V279H220.278V267ZM232.147 279.2C231.093 279.2 230.287 278.9 229.727 278.3C229.18 277.7 228.907 276.853 228.907 275.76V268.24C228.907 267.147 229.18 266.3 229.727 265.7C230.287 265.1 231.093 264.8 232.147 264.8C233.2 264.8 234 265.1 234.547 265.7C235.107 266.3 235.387 267.147 235.387 268.24V269.72H233.307V268.1C233.307 267.233 232.94 266.8 232.207 266.8C231.473 266.8 231.107 267.233 231.107 268.1V275.92C231.107 276.773 231.473 277.2 232.207 277.2C232.94 277.2 233.307 276.773 233.307 275.92V273.78H235.387V275.76C235.387 276.853 235.107 277.7 234.547 278.3C234 278.9 233.2 279.2 232.147 279.2ZM236.703 265H239.963C241.096 265 241.923 265.267 242.443 265.8C242.963 266.32 243.223 267.127 243.223 268.22V269.08C243.223 270.533 242.743 271.453 241.783 271.84V271.88C242.316 272.04 242.689 272.367 242.903 272.86C243.129 273.353 243.243 274.013 243.243 274.84V277.3C243.243 277.7 243.256 278.027 243.283 278.28C243.309 278.52 243.376 278.76 243.483 279H241.243C241.163 278.773 241.109 278.56 241.083 278.36C241.056 278.16 241.043 277.8 241.043 277.28V274.72C241.043 274.08 240.936 273.633 240.723 273.38C240.523 273.127 240.169 273 239.663 273H238.903V279H236.703V265ZM239.703 271C240.143 271 240.469 270.887 240.683 270.66C240.909 270.433 241.023 270.053 241.023 269.52V268.44C241.023 267.933 240.929 267.567 240.743 267.34C240.569 267.113 240.289 267 239.903 267H238.903V271H239.703ZM244.769 265H250.769V267H246.969V270.7H249.989V272.7H246.969V277H250.769V279H244.769V265ZM252.035 265H255.395C256.488 265 257.308 265.293 257.855 265.88C258.402 266.467 258.675 267.327 258.675 268.46V275.54C258.675 276.673 258.402 277.533 257.855 278.12C257.308 278.707 256.488 279 255.395 279H252.035V265ZM255.355 277C255.715 277 255.988 276.893 256.175 276.68C256.375 276.467 256.475 276.12 256.475 275.64V268.36C256.475 267.88 256.375 267.533 256.175 267.32C255.988 267.107 255.715 267 255.355 267H254.235V277H255.355ZM260.16 265H262.36V279H260.16V265ZM264.008 265H267.328C268.461 265 269.288 265.267 269.808 265.8C270.328 266.32 270.588 267.127 270.588 268.22V268.78C270.588 269.5 270.468 270.087 270.228 270.54C270.001 270.993 269.648 271.32 269.168 271.52V271.56C270.261 271.933 270.808 272.907 270.808 274.48V275.68C270.808 276.76 270.521 277.587 269.948 278.16C269.388 278.72 268.561 279 267.468 279H264.008V265ZM267.068 270.7C267.508 270.7 267.834 270.587 268.048 270.36C268.274 270.133 268.388 269.753 268.388 269.22V268.44C268.388 267.933 268.294 267.567 268.108 267.34C267.934 267.113 267.654 267 267.268 267H266.208V270.7H267.068ZM267.468 277C267.854 277 268.141 276.9 268.327 276.7C268.514 276.487 268.608 276.127 268.608 275.62V274.4C268.608 273.76 268.494 273.32 268.268 273.08C268.054 272.827 267.694 272.7 267.188 272.7H266.208V277H267.468ZM272.093 265H274.293V277H277.913V279H272.093V265ZM278.968 265H284.968V267H281.168V270.7H284.188V272.7H281.168V277H284.968V279H278.968V265ZM291.137 265H294.117L296.397 279H294.197L293.797 276.22V276.26H291.297L290.897 279H288.857L291.137 265ZM293.537 274.36L292.557 267.44H292.517L291.557 274.36H293.537ZM297.465 265H300.225L302.365 273.38H302.405V265H304.365V279H302.105L299.465 268.78H299.425V279H297.465V265ZM306 265H309.36C310.453 265 311.273 265.293 311.82 265.88C312.366 266.467 312.64 267.327 312.64 268.46V275.54C312.64 276.673 312.366 277.533 311.82 278.12C311.273 278.707 310.453 279 309.36 279H306V265ZM309.32 277C309.68 277 309.953 276.893 310.14 276.68C310.34 276.467 310.44 276.12 310.44 275.64V268.36C310.44 267.88 310.34 267.533 310.14 267.32C309.953 267.107 309.68 267 309.32 267H308.2V277H309.32ZM177.547 298.2C176.494 298.2 175.687 297.9 175.127 297.3C174.58 296.7 174.307 295.853 174.307 294.76V287.24C174.307 286.147 174.58 285.3 175.127 284.7C175.687 284.1 176.494 283.8 177.547 283.8C178.6 283.8 179.4 284.1 179.947 284.7C180.507 285.3 180.787 286.147 180.787 287.24V288.72H178.707V287.1C178.707 286.233 178.34 285.8 177.607 285.8C176.874 285.8 176.507 286.233 176.507 287.1V294.92C176.507 295.773 176.874 296.2 177.607 296.2C178.34 296.2 178.707 295.773 178.707 294.92V292.78H180.787V294.76C180.787 295.853 180.507 296.7 179.947 297.3C179.4 297.9 178.6 298.2 177.547 298.2ZM182.103 284H185.363C186.497 284 187.323 284.267 187.843 284.8C188.363 285.32 188.623 286.127 188.623 287.22V288.08C188.623 289.533 188.143 290.453 187.183 290.84V290.88C187.717 291.04 188.09 291.367 188.303 291.86C188.53 292.353 188.643 293.013 188.643 293.84V296.3C188.643 296.7 188.657 297.027 188.683 297.28C188.71 297.52 188.777 297.76 188.883 298H186.643C186.563 297.773 186.51 297.56 186.483 297.36C186.457 297.16 186.443 296.8 186.443 296.28V293.72C186.443 293.08 186.337 292.633 186.123 292.38C185.923 292.127 185.57 292 185.063 292H184.303V298H182.103V284ZM185.103 290C185.543 290 185.87 289.887 186.083 289.66C186.31 289.433 186.423 289.053 186.423 288.52V287.44C186.423 286.933 186.33 286.567 186.143 286.34C185.97 286.113 185.69 286 185.303 286H184.303V290H185.103ZM190.17 284H196.17V286H192.37V289.7H195.39V291.7H192.37V296H196.17V298H190.17V284ZM199.135 284H202.115L204.395 298H202.195L201.795 295.22V295.26H199.295L198.895 298H196.855L199.135 284ZM201.535 293.36L200.555 286.44H200.515L199.555 293.36H201.535ZM206.265 286H203.965V284H210.765V286H208.465V298H206.265V286ZM211.83 284H214.03V298H211.83V284ZM215.097 284H217.317L218.757 294.86H218.797L220.237 284H222.257L220.137 298H217.217L215.097 284ZM223.314 284H229.314V286H225.514V289.7H228.534V291.7H225.514V296H229.314V298H223.314V284ZM236.883 298.2C235.83 298.2 235.023 297.9 234.463 297.3C233.916 296.7 233.643 295.853 233.643 294.76V287.24C233.643 286.147 233.916 285.3 234.463 284.7C235.023 284.1 235.83 283.8 236.883 283.8C237.936 283.8 238.736 284.1 239.283 284.7C239.843 285.3 240.123 286.147 240.123 287.24V288.72H238.043V287.1C238.043 286.233 237.676 285.8 236.943 285.8C236.21 285.8 235.843 286.233 235.843 287.1V294.92C235.843 295.773 236.21 296.2 236.943 296.2C237.676 296.2 238.043 295.773 238.043 294.92V292.78H240.123V294.76C240.123 295.853 239.843 296.7 239.283 297.3C238.736 297.9 237.936 298.2 236.883 298.2ZM244.658 298.2C243.578 298.2 242.752 297.893 242.178 297.28C241.605 296.667 241.318 295.8 241.318 294.68V287.32C241.318 286.2 241.605 285.333 242.178 284.72C242.752 284.107 243.578 283.8 244.658 283.8C245.738 283.8 246.565 284.107 247.138 284.72C247.712 285.333 247.998 286.2 247.998 287.32V294.68C247.998 295.8 247.712 296.667 247.138 297.28C246.565 297.893 245.738 298.2 244.658 298.2ZM244.658 296.2C245.418 296.2 245.798 295.74 245.798 294.82V287.18C245.798 286.26 245.418 285.8 244.658 285.8C243.898 285.8 243.518 286.26 243.518 287.18V294.82C243.518 295.74 243.898 296.2 244.658 296.2ZM249.486 284H252.246L254.386 292.38H254.426V284H256.386V298H254.126L251.486 287.78H251.446V298H249.486V284ZM259.741 286H257.441V284H264.241V286H261.941V298H259.741V286ZM265.306 284H271.306V286H267.506V289.7H270.526V291.7H267.506V296H271.306V298H265.306V284ZM272.572 284H275.332L277.472 292.38H277.512V284H279.472V298H277.212L274.572 287.78H274.532V298H272.572V284ZM282.827 286H280.527V284H287.327V286H285.027V298H282.827V286ZM293.295 284H296.275L298.555 298H296.355L295.955 295.22V295.26H293.455L293.055 298H291.015L293.295 284ZM295.695 293.36L294.715 286.44H294.675L293.715 293.36H295.695ZM300.425 286H298.125V284H304.925V286H302.625V298H300.425V286ZM155.044 305H152.744V303H159.544V305H157.244V317H155.044V305ZM160.609 303H162.809V308.7H165.169V303H167.369V317H165.169V310.7H162.809V317H160.609V303ZM169.008 303H175.008V305H171.208V308.7H174.228V310.7H171.208V315H175.008V317H169.008V303ZM179.476 303H181.676V308.7H184.036V303H186.236V317H184.036V310.7H181.676V317H179.476V303ZM187.875 303H193.875V305H190.075V308.7H193.095V310.7H190.075V315H193.875V317H187.875V303ZM196.84 303H199.82L202.1 317H199.9L199.5 314.22V314.26H197L196.6 317H194.56L196.84 303ZM199.24 312.36L198.26 305.44H198.22L197.26 312.36H199.24ZM203.168 303H206.428C207.561 303 208.388 303.267 208.908 303.8C209.428 304.32 209.688 305.127 209.688 306.22V307.08C209.688 308.533 209.208 309.453 208.248 309.84V309.88C208.781 310.04 209.154 310.367 209.368 310.86C209.594 311.353 209.708 312.013 209.708 312.84V315.3C209.708 315.7 209.721 316.027 209.748 316.28C209.774 316.52 209.841 316.76 209.948 317H207.708C207.628 316.773 207.574 316.56 207.548 316.36C207.521 316.16 207.508 315.8 207.508 315.28V312.72C207.508 312.08 207.401 311.633 207.188 311.38C206.988 311.127 206.634 311 206.128 311H205.368V317H203.168V303ZM206.168 309C206.608 309 206.934 308.887 207.148 308.66C207.374 308.433 207.488 308.053 207.488 307.52V306.44C207.488 305.933 207.394 305.567 207.208 305.34C207.034 305.113 206.754 305 206.368 305H205.368V309H206.168ZM212.915 305H210.615V303H217.415V305H215.115V317H212.915V305ZM224.863 317.2C223.783 317.2 222.957 316.893 222.383 316.28C221.81 315.667 221.523 314.8 221.523 313.68V306.32C221.523 305.2 221.81 304.333 222.383 303.72C222.957 303.107 223.783 302.8 224.863 302.8C225.943 302.8 226.77 303.107 227.343 303.72C227.917 304.333 228.203 305.2 228.203 306.32V313.68C228.203 314.8 227.917 315.667 227.343 316.28C226.77 316.893 225.943 317.2 224.863 317.2ZM224.863 315.2C225.623 315.2 226.003 314.74 226.003 313.82V306.18C226.003 305.26 225.623 304.8 224.863 304.8C224.103 304.8 223.723 305.26 223.723 306.18V313.82C223.723 314.74 224.103 315.2 224.863 315.2ZM229.691 303H235.511V305H231.891V308.9H234.731V310.9H231.891V317H229.691V303ZM239.769 303H242.909L244.309 313.02H244.349L245.749 303H248.889V317H246.809V306.4H246.769L245.169 317H243.329L241.729 306.4H241.689V317H239.769V303ZM253.731 317.2C252.664 317.2 251.851 316.9 251.291 316.3C250.731 315.687 250.451 314.813 250.451 313.68V303H252.651V313.84C252.651 314.32 252.744 314.667 252.931 314.88C253.131 315.093 253.411 315.2 253.771 315.2C254.131 315.2 254.404 315.093 254.591 314.88C254.791 314.667 254.891 314.32 254.891 313.84V303H257.011V313.68C257.011 314.813 256.731 315.687 256.171 316.3C255.611 316.9 254.798 317.2 253.731 317.2ZM258.578 303H260.778V315H264.398V317H258.578V303ZM265.61 305H263.31V303H270.11V305H267.81V317H265.61V305ZM271.175 303H273.375V317H271.175V303ZM278.123 317.2C277.07 317.2 276.263 316.9 275.703 316.3C275.156 315.7 274.883 314.853 274.883 313.76V306.24C274.883 305.147 275.156 304.3 275.703 303.7C276.263 303.1 277.07 302.8 278.123 302.8C279.176 302.8 279.976 303.1 280.523 303.7C281.083 304.3 281.363 305.147 281.363 306.24V307.72H279.283V306.1C279.283 305.233 278.916 304.8 278.183 304.8C277.45 304.8 277.083 305.233 277.083 306.1V313.92C277.083 314.773 277.45 315.2 278.183 315.2C278.916 315.2 279.283 314.773 279.283 313.92V311.78H281.363V313.76C281.363 314.853 281.083 315.7 280.523 316.3C279.976 316.9 279.176 317.2 278.123 317.2ZM282.679 303H284.879V308.7H287.239V303H289.439V317H287.239V310.7H284.879V317H282.679V303ZM292.778 303H295.758L298.038 317H295.838L295.438 314.22V314.26H292.938L292.538 317H290.498L292.778 303ZM295.178 312.36L294.198 305.44H294.158L293.198 312.36H295.178ZM299.105 303H301.865L304.005 311.38H304.045V303H306.005V317H303.745L301.105 306.78H301.065V317H299.105V303ZM307.64 303H310.4L312.54 311.38H312.58V303H314.54V317H312.28L309.64 306.78H309.6V317H307.64V303ZM316.175 303H322.175V305H318.375V308.7H321.395V310.7H318.375V315H322.175V317H316.175V303ZM323.441 303H325.641V315H329.261V317H323.441V303ZM188.416 336.2C187.363 336.2 186.556 335.9 185.996 335.3C185.449 334.7 185.176 333.853 185.176 332.76V325.24C185.176 324.147 185.449 323.3 185.996 322.7C186.556 322.1 187.363 321.8 188.416 321.8C189.469 321.8 190.269 322.1 190.816 322.7C191.376 323.3 191.656 324.147 191.656 325.24V326.72H189.576V325.1C189.576 324.233 189.209 323.8 188.476 323.8C187.743 323.8 187.376 324.233 187.376 325.1V332.92C187.376 333.773 187.743 334.2 188.476 334.2C189.209 334.2 189.576 333.773 189.576 332.92V330.78H191.656V332.76C191.656 333.853 191.376 334.7 190.816 335.3C190.269 335.9 189.469 336.2 188.416 336.2ZM194.672 322H197.652L199.932 336H197.732L197.332 333.22V333.26H194.832L194.432 336H192.392L194.672 322ZM197.072 331.36L196.092 324.44H196.052L195.092 331.36H197.072ZM201 322H204.14L205.54 332.02H205.58L206.98 322H210.12V336H208.04V325.4H208L206.4 336H204.56L202.96 325.4H202.92V336H201V322ZM211.761 322H215.001C216.095 322 216.915 322.293 217.461 322.88C218.008 323.467 218.281 324.327 218.281 325.46V326.84C218.281 327.973 218.008 328.833 217.461 329.42C216.915 330.007 216.095 330.3 215.001 330.3H213.961V336H211.761V322ZM215.001 328.3C215.361 328.3 215.628 328.2 215.801 328C215.988 327.8 216.081 327.46 216.081 326.98V325.32C216.081 324.84 215.988 324.5 215.801 324.3C215.628 324.1 215.361 324 215.001 324H213.961V328.3H215.001ZM220.473 322H223.453L225.733 336H223.533L223.133 333.22V333.26H220.633L220.233 336H218.193L220.473 322ZM222.873 331.36L221.893 324.44H221.853L220.893 331.36H222.873ZM226.8 322H229V336H226.8V322ZM233.768 336.2C232.701 336.2 231.888 335.9 231.328 335.3C230.768 334.687 230.488 333.813 230.488 332.68V325.32C230.488 324.187 230.768 323.32 231.328 322.72C231.888 322.107 232.701 321.8 233.768 321.8C234.835 321.8 235.648 322.107 236.208 322.72C236.768 323.32 237.048 324.187 237.048 325.32V326.52H234.968V325.18C234.968 324.26 234.588 323.8 233.828 323.8C233.068 323.8 232.688 324.26 232.688 325.18V332.84C232.688 333.747 233.068 334.2 233.828 334.2C234.588 334.2 234.968 333.747 234.968 332.84V330.1H233.868V328.1H237.048V332.68C237.048 333.813 236.768 334.687 236.208 335.3C235.648 335.9 234.835 336.2 233.768 336.2ZM238.461 322H241.221L243.361 330.38H243.401V322H245.361V336H243.101L240.461 325.78H240.421V336H238.461V322ZM249.856 336.2C248.789 336.2 247.982 335.9 247.436 335.3C246.889 334.687 246.616 333.813 246.616 332.68V331.88H248.696V332.84C248.696 333.747 249.076 334.2 249.836 334.2C250.209 334.2 250.489 334.093 250.676 333.88C250.876 333.653 250.976 333.293 250.976 332.8C250.976 332.213 250.842 331.7 250.576 331.26C250.309 330.807 249.816 330.267 249.096 329.64C248.189 328.84 247.556 328.12 247.196 327.48C246.836 326.827 246.656 326.093 246.656 325.28C246.656 324.173 246.936 323.32 247.496 322.72C248.056 322.107 248.869 321.8 249.936 321.8C250.989 321.8 251.782 322.107 252.316 322.72C252.862 323.32 253.136 324.187 253.136 325.32V325.9H251.056V325.18C251.056 324.7 250.962 324.353 250.776 324.14C250.589 323.913 250.316 323.8 249.956 323.8C249.222 323.8 248.856 324.247 248.856 325.14C248.856 325.647 248.989 326.12 249.256 326.56C249.536 327 250.036 327.533 250.756 328.16C251.676 328.96 252.309 329.687 252.656 330.34C253.002 330.993 253.176 331.76 253.176 332.64C253.176 333.787 252.889 334.667 252.316 335.28C251.756 335.893 250.936 336.2 249.856 336.2ZM255.157 336H254.437V333.88H256.557V335.78L255.457 338.4H254.437L255.157 336ZM261.41 322H267.23V324H263.61V327.9H266.45V329.9H263.61V336H261.41V322ZM268.285 322H271.545C272.678 322 273.505 322.267 274.025 322.8C274.545 323.32 274.805 324.127 274.805 325.22V326.08C274.805 327.533 274.325 328.453 273.365 328.84V328.88C273.898 329.04 274.272 329.367 274.485 329.86C274.712 330.353 274.825 331.013 274.825 331.84V334.3C274.825 334.7 274.838 335.027 274.865 335.28C274.892 335.52 274.958 335.76 275.065 336H272.825C272.745 335.773 272.692 335.56 272.665 335.36C272.638 335.16 272.625 334.8 272.625 334.28V331.72C272.625 331.08 272.518 330.633 272.305 330.38C272.105 330.127 271.752 330 271.245 330H270.485V336H268.285V322ZM271.285 328C271.725 328 272.052 327.887 272.265 327.66C272.492 327.433 272.605 327.053 272.605 326.52V325.44C272.605 324.933 272.512 324.567 272.325 324.34C272.152 324.113 271.872 324 271.485 324H270.485V328H271.285ZM279.531 336.2C278.451 336.2 277.625 335.893 277.051 335.28C276.478 334.667 276.191 333.8 276.191 332.68V325.32C276.191 324.2 276.478 323.333 277.051 322.72C277.625 322.107 278.451 321.8 279.531 321.8C280.611 321.8 281.438 322.107 282.011 322.72C282.585 323.333 282.871 324.2 282.871 325.32V332.68C282.871 333.8 282.585 334.667 282.011 335.28C281.438 335.893 280.611 336.2 279.531 336.2ZM279.531 334.2C280.291 334.2 280.671 333.74 280.671 332.82V325.18C280.671 324.26 280.291 323.8 279.531 323.8C278.771 323.8 278.391 324.26 278.391 325.18V332.82C278.391 333.74 278.771 334.2 279.531 334.2ZM284.359 322H287.499L288.899 332.02H288.939L290.339 322H293.479V336H291.399V325.4H291.359L289.759 336H287.919L286.319 325.4H286.279V336H284.359V322ZM161.893 355.2C160.839 355.2 160.033 354.9 159.473 354.3C158.926 353.7 158.653 352.853 158.653 351.76V344.24C158.653 343.147 158.926 342.3 159.473 341.7C160.033 341.1 160.839 340.8 161.893 340.8C162.946 340.8 163.746 341.1 164.293 341.7C164.853 342.3 165.133 343.147 165.133 344.24V345.72H163.053V344.1C163.053 343.233 162.686 342.8 161.953 342.8C161.219 342.8 160.853 343.233 160.853 344.1V351.92C160.853 352.773 161.219 353.2 161.953 353.2C162.686 353.2 163.053 352.773 163.053 351.92V349.78H165.133V351.76C165.133 352.853 164.853 353.7 164.293 354.3C163.746 354.9 162.946 355.2 161.893 355.2ZM169.668 355.2C168.588 355.2 167.761 354.893 167.188 354.28C166.615 353.667 166.328 352.8 166.328 351.68V344.32C166.328 343.2 166.615 342.333 167.188 341.72C167.761 341.107 168.588 340.8 169.668 340.8C170.748 340.8 171.575 341.107 172.148 341.72C172.721 342.333 173.008 343.2 173.008 344.32V351.68C173.008 352.8 172.721 353.667 172.148 354.28C171.575 354.893 170.748 355.2 169.668 355.2ZM169.668 353.2C170.428 353.2 170.808 352.74 170.808 351.82V344.18C170.808 343.26 170.428 342.8 169.668 342.8C168.908 342.8 168.528 343.26 168.528 344.18V351.82C168.528 352.74 168.908 353.2 169.668 353.2ZM174.496 341H177.256L179.396 349.38H179.436V341H181.396V355H179.136L176.496 344.78H176.456V355H174.496V341ZM186.131 355.2C185.078 355.2 184.271 354.9 183.711 354.3C183.164 353.7 182.891 352.853 182.891 351.76V344.24C182.891 343.147 183.164 342.3 183.711 341.7C184.271 341.1 185.078 340.8 186.131 340.8C187.184 340.8 187.984 341.1 188.531 341.7C189.091 342.3 189.371 343.147 189.371 344.24V345.72H187.291V344.1C187.291 343.233 186.924 342.8 186.191 342.8C185.458 342.8 185.091 343.233 185.091 344.1V351.92C185.091 352.773 185.458 353.2 186.191 353.2C186.924 353.2 187.291 352.773 187.291 351.92V349.78H189.371V351.76C189.371 352.853 189.091 353.7 188.531 354.3C187.984 354.9 187.184 355.2 186.131 355.2ZM190.687 341H196.687V343H192.887V346.7H195.907V348.7H192.887V353H196.687V355H190.687V341ZM197.953 341H201.193C202.286 341 203.106 341.293 203.653 341.88C204.199 342.467 204.473 343.327 204.473 344.46V345.84C204.473 346.973 204.199 347.833 203.653 348.42C203.106 349.007 202.286 349.3 201.193 349.3H200.153V355H197.953V341ZM201.193 347.3C201.553 347.3 201.819 347.2 201.993 347C202.179 346.8 202.273 346.46 202.273 345.98V344.32C202.273 343.84 202.179 343.5 201.993 343.3C201.819 343.1 201.553 343 201.193 343H200.153V347.3H201.193ZM207.427 343H205.127V341H211.927V343H209.627V355H207.427V343ZM212.992 341H215.192V355H212.992V341ZM220.02 355.2C218.94 355.2 218.113 354.893 217.54 354.28C216.966 353.667 216.68 352.8 216.68 351.68V344.32C216.68 343.2 216.966 342.333 217.54 341.72C218.113 341.107 218.94 340.8 220.02 340.8C221.1 340.8 221.926 341.107 222.5 341.72C223.073 342.333 223.36 343.2 223.36 344.32V351.68C223.36 352.8 223.073 353.667 222.5 354.28C221.926 354.893 221.1 355.2 220.02 355.2ZM220.02 353.2C220.78 353.2 221.16 352.74 221.16 351.82V344.18C221.16 343.26 220.78 342.8 220.02 342.8C219.26 342.8 218.88 343.26 218.88 344.18V351.82C218.88 352.74 219.26 353.2 220.02 353.2ZM224.847 341H227.607L229.747 349.38H229.787V341H231.747V355H229.487L226.847 344.78H226.807V355H224.847V341ZM238.306 343H236.006V341H242.806V343H240.506V355H238.306V343ZM246.973 355.2C245.893 355.2 245.066 354.893 244.493 354.28C243.919 353.667 243.633 352.8 243.633 351.68V344.32C243.633 343.2 243.919 342.333 244.493 341.72C245.066 341.107 245.893 340.8 246.973 340.8C248.053 340.8 248.879 341.107 249.453 341.72C250.026 342.333 250.313 343.2 250.313 344.32V351.68C250.313 352.8 250.026 353.667 249.453 354.28C248.879 354.893 248.053 355.2 246.973 355.2ZM246.973 353.2C247.733 353.2 248.113 352.74 248.113 351.82V344.18C248.113 343.26 247.733 342.8 246.973 342.8C246.213 342.8 245.833 343.26 245.833 344.18V351.82C245.833 352.74 246.213 353.2 246.973 353.2ZM255.004 341H261.004V343H257.204V346.7H260.224V348.7H257.204V353H261.004V355H255.004V341ZM264.248 347.84L261.828 341H264.148L265.628 345.52H265.668L267.188 341H269.268L266.848 347.84L269.388 355H267.068L265.468 350.12H265.428L263.788 355H261.708L264.248 347.84ZM270.433 341H276.433V343H272.633V346.7H275.653V348.7H272.633V353H276.433V355H270.433V341ZM280.799 355.2C279.746 355.2 278.939 354.9 278.379 354.3C277.832 353.7 277.559 352.853 277.559 351.76V344.24C277.559 343.147 277.832 342.3 278.379 341.7C278.939 341.1 279.746 340.8 280.799 340.8C281.852 340.8 282.652 341.1 283.199 341.7C283.759 342.3 284.039 343.147 284.039 344.24V345.72H281.959V344.1C281.959 343.233 281.592 342.8 280.859 342.8C280.126 342.8 279.759 343.233 279.759 344.1V351.92C279.759 352.773 280.126 353.2 280.859 353.2C281.592 353.2 281.959 352.773 281.959 351.92V349.78H284.039V351.76C284.039 352.853 283.759 353.7 283.199 354.3C282.652 354.9 281.852 355.2 280.799 355.2ZM288.555 355.2C287.488 355.2 286.675 354.9 286.115 354.3C285.555 353.687 285.275 352.813 285.275 351.68V341H287.475V351.84C287.475 352.32 287.568 352.667 287.755 352.88C287.955 353.093 288.235 353.2 288.595 353.2C288.955 353.2 289.228 353.093 289.415 352.88C289.615 352.667 289.715 352.32 289.715 351.84V341H291.835V351.68C291.835 352.813 291.555 353.687 290.995 354.3C290.435 354.9 289.622 355.2 288.555 355.2ZM295.122 343H292.822V341H299.622V343H297.322V355H295.122V343ZM300.687 341H302.887V355H300.687V341ZM307.715 355.2C306.635 355.2 305.808 354.893 305.235 354.28C304.662 353.667 304.375 352.8 304.375 351.68V344.32C304.375 343.2 304.662 342.333 305.235 341.72C305.808 341.107 306.635 340.8 307.715 340.8C308.795 340.8 309.622 341.107 310.195 341.72C310.768 342.333 311.055 343.2 311.055 344.32V351.68C311.055 352.8 310.768 353.667 310.195 354.28C309.622 354.893 308.795 355.2 307.715 355.2ZM307.715 353.2C308.475 353.2 308.855 352.74 308.855 351.82V344.18C308.855 343.26 308.475 342.8 307.715 342.8C306.955 342.8 306.575 343.26 306.575 344.18V351.82C306.575 352.74 306.955 353.2 307.715 353.2ZM312.543 341H315.303L317.443 349.38H317.483V341H319.443V355H317.183L314.543 344.78H314.503V355H312.543V341ZM321.078 352.88H323.198V355H321.078V352.88Z" fill="#7270FF"/>
<path d="M170.49 196V191.788C170.49 190.48 170.466 189.532 170.418 189.208L173.214 196H174.042L176.838 189.172C176.79 189.76 176.766 190.42 176.766 191.92V196H177.618V187.408H176.754L173.622 194.98L170.49 187.408H169.638V196H170.49ZM184.853 196V195.208H180.569V192.076H184.445V191.296H180.569V188.2H184.841V187.408H179.705V196H184.853ZM191.755 196V195.208H187.471V192.076H191.347V191.296H187.471V188.2H191.743V187.408H186.607V196H191.755ZM192.609 188.2H195.249V196H196.113V188.2H198.765V187.408H192.609V188.2ZM206.787 196.132C208.635 196.132 210.135 195.04 210.531 193.42H209.607C209.235 194.572 208.155 195.304 206.799 195.304C204.915 195.304 203.655 193.864 203.655 191.704C203.655 189.532 204.915 188.092 206.799 188.092C208.143 188.092 209.199 188.848 209.559 190.084H210.483C210.135 188.38 208.683 187.264 206.835 187.264C204.411 187.264 202.755 189.064 202.755 191.704C202.755 194.344 204.387 196.132 206.787 196.132ZM219.681 191.704C219.681 189.088 218.001 187.252 215.589 187.252C213.189 187.252 211.497 189.1 211.497 191.704C211.497 194.308 213.177 196.144 215.589 196.144C217.989 196.144 219.681 194.308 219.681 191.704ZM218.793 191.704C218.793 193.84 217.485 195.316 215.589 195.316C213.693 195.316 212.397 193.852 212.397 191.704C212.397 189.556 213.693 188.092 215.589 188.092C217.485 188.092 218.793 189.556 218.793 191.704ZM220.972 193.216H224.452V192.472H220.972V193.216ZM230.643 192.22V191.44H227.127V188.2H231.327V187.408H226.263V196H227.127V192.22H230.643ZM240.435 191.704C240.435 189.088 238.755 187.252 236.343 187.252C233.943 187.252 232.251 189.1 232.251 191.704C232.251 194.308 233.931 196.144 236.343 196.144C238.743 196.144 240.435 194.308 240.435 191.704ZM239.547 191.704C239.547 193.84 238.239 195.316 236.343 195.316C234.447 195.316 233.151 193.852 233.151 191.704C233.151 189.556 234.447 188.092 236.343 188.092C238.239 188.092 239.547 189.556 239.547 191.704ZM241.942 193.012C241.942 194.968 243.142 196.144 245.134 196.144C247.09 196.144 248.29 194.956 248.29 193.012V187.408H247.426V192.976C247.426 194.464 246.598 195.304 245.134 195.304C243.634 195.304 242.806 194.488 242.806 192.976V187.408H241.942V193.012ZM251.186 196V188.848L255.926 196H256.778V187.408H255.926V194.56L251.198 187.408H250.322V196H251.186ZM261.493 196C264.073 196 265.789 194.272 265.789 191.704C265.789 189.136 264.061 187.408 261.469 187.408H258.877V196H261.493ZM261.433 188.2C263.557 188.2 264.901 189.556 264.901 191.704C264.901 193.84 263.557 195.208 261.457 195.208H259.741V188.2H261.433ZM272.497 196V195.208H268.213V192.076H272.089V191.296H268.213V188.2H272.485V187.408H267.349V196H272.497ZM275.116 196V192.436H277.624L279.376 196H280.336L278.5 192.292C279.604 191.992 280.252 191.128 280.252 189.892C280.252 188.368 279.196 187.408 277.456 187.408H274.252V196H275.116ZM275.116 188.188H277.456C278.632 188.188 279.364 188.8 279.364 189.916C279.364 191.008 278.668 191.656 277.48 191.656H275.116V188.188ZM290.404 196V195.208H286.12V192.076H289.996V191.296H286.12V188.2H290.392V187.408H285.256V196H290.404ZM293.022 187.408H292.158V196H296.97V195.208H293.022V187.408ZM299.127 187.408H298.263V196H303.075V195.208H299.127V187.408ZM305.233 187.408H304.369V196H305.233V187.408ZM312.47 196V195.208H308.186V192.076H312.062V191.296H308.186V188.2H312.458V187.408H307.322V196H312.47Z" fill="#7270FF"/>
</svg>
