<svg width="480" height="550" viewBox="0 0 480 550" fill="none" xmlns="http://www.w3.org/2000/svg">
<rect width="480" height="550" fill="#FFB436"/>
<path d="M109.233 275.261V279.399H117.305V287.511H121.443V279.399H129.515V275.261H121.443V267.189H117.305V275.261H109.233ZM144.389 266.134H153.07V291H158.262V266.134H166.943V261.348H144.389V266.134ZM189.328 291V286.213H176.104V278.344H187.949V273.76H176.104V266.134H189.328V261.348H170.912V291H189.328ZM207.492 291.487C214.509 291.487 219.945 287.349 221.081 281.102H215.686C214.712 284.388 211.629 286.497 207.613 286.497C202.178 286.497 198.689 282.441 198.689 276.154C198.689 269.825 202.137 265.85 207.613 265.85C211.548 265.85 214.509 267.878 215.523 271.326H220.999C219.985 264.958 214.753 260.861 207.735 260.861C199.054 260.861 193.254 266.986 193.254 276.194C193.254 285.483 198.851 291.487 207.492 291.487ZM230.929 291V278.425H244.072V291H249.264V261.348H244.072V273.598H230.929V261.348H225.737V291H230.929ZM260.954 291V269.988L274.908 291H280.019V261.348H274.908V282.36L260.995 261.348H255.843V291H260.954ZM291.775 261.348H286.583V291H291.775V261.348ZM310.883 291.487C317.9 291.487 323.336 287.349 324.472 281.102H319.077C318.103 284.388 315.02 286.497 311.004 286.497C305.569 286.497 302.08 282.441 302.08 276.154C302.08 269.825 305.528 265.85 311.004 265.85C314.939 265.85 317.9 267.878 318.914 271.326H324.391C323.377 264.958 318.144 260.861 311.126 260.861C302.445 260.861 296.645 266.986 296.645 276.194C296.645 285.483 302.243 291.487 310.883 291.487ZM330.416 291L332.809 284.145H343.883L346.277 291H351.753L341.044 261.348H335.73L325.021 291H330.416ZM337.718 270.191C338.002 269.379 338.245 268.487 338.367 267.919C338.448 268.527 338.732 269.42 338.975 270.191L342.382 279.764H334.351L337.718 270.191ZM360.663 261.348H355.471V291H373.076V286.213H360.663V261.348Z" fill="#FAF5EE"/>
</svg>
