<svg width="480" height="550" viewBox="0 0 480 550" fill="none" xmlns="http://www.w3.org/2000/svg">
<rect width="480" height="550" fill="#EE6338"/>
<g filter="url(#filter0_d_33_12)">
<path d="M245.666 321.89H227.448V260.086H245.766V267.101L246.265 267.334L247.761 265.572C256.471 255.033 275.322 255.598 282.802 266.802C285.274 270.278 286.662 274.408 286.791 278.671C286.958 292.734 286.791 306.797 286.791 320.893C286.791 321.159 286.791 321.425 286.791 321.824H268.008V319.264C268.008 308.392 267.775 297.488 267.609 286.617C267.607 285.238 267.382 283.868 266.944 282.56C266.238 280.142 264.617 278.095 262.426 276.854C260.234 275.612 257.645 275.274 255.208 275.911C252.673 276.286 250.358 277.561 248.686 279.502C247.013 281.443 246.095 283.921 246.099 286.484C245.866 297.554 245.799 308.658 245.666 319.729V321.89Z" fill="#EE6338"/>
<path d="M214.88 321.895H195.996V260.058H214.88V321.895Z" fill="#EE6338"/>
<path d="M216.576 240.441C216.59 241.936 216.304 243.419 215.737 244.803C215.17 246.186 214.333 247.443 213.274 248.499C212.215 249.555 210.956 250.389 209.571 250.952C208.185 251.515 206.701 251.795 205.206 251.777C202.231 251.734 199.391 250.526 197.297 248.413C195.202 246.299 194.019 243.45 194.002 240.474C193.971 238.982 194.238 237.498 194.787 236.11C195.336 234.722 196.156 233.457 197.199 232.389C198.242 231.321 199.487 230.472 200.862 229.891C202.237 229.31 203.714 229.008 205.206 229.004C206.716 228.963 208.219 229.23 209.622 229.791C211.024 230.352 212.297 231.194 213.363 232.265C214.428 233.337 215.262 234.615 215.815 236.021C216.368 237.427 216.627 238.931 216.576 240.441Z" fill="#EE6338"/>
</g>
<g filter="url(#filter1_i_33_12)">
<path d="M245.667 321.89H227.448V260.086H245.767V267.101L246.265 267.334L247.761 265.572C256.472 255.033 275.322 255.598 282.802 266.802C285.274 270.278 286.662 274.408 286.792 278.671C286.958 292.734 286.792 306.797 286.792 320.893C286.792 321.159 286.792 321.425 286.792 321.824H268.008V319.264C268.008 308.392 267.775 297.488 267.609 286.617C267.607 285.238 267.383 283.868 266.944 282.56C266.238 280.142 264.618 278.095 262.426 276.854C260.235 275.612 257.645 275.274 255.208 275.911C252.674 276.286 250.359 277.561 248.686 279.502C247.014 281.443 246.095 283.921 246.099 286.484C245.866 297.554 245.8 308.658 245.667 319.729V321.89Z" fill="#EE6338"/>
<path d="M214.88 321.895H195.997V260.058H214.88V321.895Z" fill="#EE6338"/>
<path d="M216.577 240.441C216.59 241.936 216.305 243.419 215.738 244.803C215.171 246.186 214.333 247.443 213.274 248.499C212.215 249.555 210.956 250.389 209.571 250.952C208.186 251.515 206.702 251.795 205.207 251.777C202.232 251.734 199.392 250.526 197.297 248.413C195.203 246.299 194.02 243.45 194.003 240.474C193.972 238.982 194.239 237.498 194.787 236.11C195.336 234.722 196.156 233.457 197.199 232.389C198.242 231.321 199.487 230.472 200.862 229.891C202.237 229.31 203.714 229.008 205.207 229.004C206.717 228.963 208.22 229.23 209.622 229.791C211.025 230.352 212.298 231.194 213.363 232.265C214.428 233.337 215.263 234.615 215.815 236.021C216.368 237.427 216.627 238.931 216.577 240.441Z" fill="#EE6338"/>
</g>
<defs>
<filter id="filter0_d_33_12" x="191" y="226" width="102.865" height="102.895" filterUnits="userSpaceOnUse" color-interpolation-filters="sRGB">
<feFlood flood-opacity="0" result="BackgroundImageFix"/>
<feColorMatrix in="SourceAlpha" type="matrix" values="0 0 0 0 0 0 0 0 0 0 0 0 0 0 0 0 0 0 127 0" result="hardAlpha"/>
<feOffset dx="2" dy="2"/>
<feGaussianBlur stdDeviation="2.5"/>
<feComposite in2="hardAlpha" operator="out"/>
<feColorMatrix type="matrix" values="0 0 0 0 0.7125 0 0 0 0 0.172873 0 0 0 0 0.00593752 0 0 0 0.75 0"/>
<feBlend mode="normal" in2="BackgroundImageFix" result="effect1_dropShadow_33_12"/>
<feBlend mode="normal" in="SourceGraphic" in2="effect1_dropShadow_33_12" result="shape"/>
</filter>
<filter id="filter1_i_33_12" x="194" y="229" width="94.8652" height="94.8945" filterUnits="userSpaceOnUse" color-interpolation-filters="sRGB">
<feFlood flood-opacity="0" result="BackgroundImageFix"/>
<feBlend mode="normal" in="SourceGraphic" in2="BackgroundImageFix" result="shape"/>
<feColorMatrix in="SourceAlpha" type="matrix" values="0 0 0 0 0 0 0 0 0 0 0 0 0 0 0 0 0 0 127 0" result="hardAlpha"/>
<feOffset dx="2" dy="2"/>
<feGaussianBlur stdDeviation="2.5"/>
<feComposite in2="hardAlpha" operator="arithmetic" k2="-1" k3="1"/>
<feColorMatrix type="matrix" values="0 0 0 0 1 0 0 0 0 0.754167 0 0 0 0 0.754167 0 0 0 0.35 0"/>
<feBlend mode="normal" in2="shape" result="effect1_innerShadow_33_12"/>
</filter>
</defs>
</svg>
