<svg width="480" height="550" viewBox="0 0 480 550" fill="none" xmlns="http://www.w3.org/2000/svg">
<mask id="mask0_2_5773" style="mask-type:alpha" maskUnits="userSpaceOnUse" x="0" y="0" width="480" height="550">
<rect width="480" height="550" fill="#C4C4C4"/>
</mask>
<g mask="url(#mask0_2_5773)">
<rect x="-0.995605" width="1083.78" height="551.95" fill="#4E5AE4"/>
<path d="M-99.7134 247.215V247.81H-97.611V249.922H-97.0158V247.81H-94.9134V247.215H-97.0158V245.113H-97.611V247.215H-99.7134ZM-88.5534 250.748C-86.4894 250.748 -85.1166 249.366 -85.1166 247.311C-85.1166 245.257 -86.499 243.874 -88.5726 243.874H-90.6462V250.748H-88.5534ZM-88.6014 244.508C-86.9022 244.508 -85.827 245.593 -85.827 247.311C-85.827 249.02 -86.9022 250.114 -88.5822 250.114H-89.955V244.508H-88.6014ZM-83.1769 243.874H-83.8681V250.748H-83.1769V243.874ZM-78.6256 244.412C-77.6176 244.412 -76.8112 244.892 -76.5232 245.833H-75.7744C-76.0432 244.585 -77.1664 243.759 -78.616 243.759C-80.584 243.759 -81.928 245.238 -81.928 247.34C-81.928 249.462 -80.584 250.863 -78.6352 250.863C-77.5216 250.863 -76.6576 250.345 -76.2928 249.663L-76.2256 250.758H-75.6784V247.033H-78.8176V247.647H-76.3312V248.002C-76.3312 249.654 -77.4544 250.21 -78.6064 250.21C-80.152 250.21 -81.208 249.126 -81.208 247.34C-81.208 245.583 -80.2096 244.412 -78.6256 244.412ZM-73.6144 243.874H-74.3056V250.748H-73.6144V243.874ZM-72.6631 244.508H-70.5511V250.748H-69.8599V244.508H-67.7383V243.874H-72.6631V244.508ZM-67.415 250.748L-66.743 248.924H-63.575L-62.903 250.748H-62.183L-64.7366 243.874H-65.591L-68.1158 250.748H-67.415ZM-65.255 244.844C-65.2166 244.748 -65.1782 244.623 -65.1686 244.566C-65.159 244.633 -65.111 244.748 -65.0822 244.844L-63.7958 248.319H-66.5318L-65.255 244.844ZM-60.5363 243.874H-61.2275V250.748H-57.3779V250.114H-60.5363V243.874ZM-53.6806 250.748L-53.0086 248.924H-49.8406L-49.1686 250.748H-48.4486L-51.0022 243.874H-51.8566L-54.3814 250.748H-53.6806ZM-51.5206 244.844C-51.4822 244.748 -51.4438 244.623 -51.4342 244.566C-51.4246 244.633 -51.3766 244.748 -51.3478 244.844L-50.0614 248.319H-52.7974L-51.5206 244.844ZM-45.4003 250.748C-43.3363 250.748 -41.9635 249.366 -41.9635 247.311C-41.9635 245.257 -43.3459 243.874 -45.4195 243.874H-47.4931V250.748H-45.4003ZM-45.4483 244.508C-43.7491 244.508 -42.6739 245.593 -42.6739 247.311C-42.6739 249.02 -43.7491 250.114 -45.4291 250.114H-46.8019V244.508H-45.4483ZM-39.0957 250.748H-38.3757L-35.7645 243.874H-36.4749L-38.2989 248.646C-38.4045 248.905 -38.5773 249.385 -38.7213 249.884C-38.8749 249.404 -39.0093 249.03 -39.1533 248.655L-40.9869 243.874H-41.7261L-39.0957 250.748ZM-30.7185 250.748V250.114H-34.1457V247.609H-31.0449V246.985H-34.1457V244.508H-30.7281V243.874H-34.8369V250.748H-30.7185ZM-28.6238 250.748V247.897H-26.6174L-25.2158 250.748H-24.4478L-25.9166 247.782C-25.0334 247.542 -24.515 246.85 -24.515 245.862C-24.515 244.642 -25.3598 243.874 -26.7518 243.874H-29.315V250.748H-28.6238ZM-28.6238 244.498H-26.7518C-25.811 244.498 -25.2254 244.988 -25.2254 245.881C-25.2254 246.754 -25.7822 247.273 -26.7326 247.273H-28.6238V244.498ZM-23.9881 244.508H-21.8761V250.748H-21.1849V244.508H-19.0633V243.874H-23.9881V244.508ZM-17.4207 243.874H-18.1119V250.748H-17.4207V243.874ZM-16.1622 245.66C-16.1622 246.601 -15.5958 247.215 -14.5206 247.474L-13.359 247.762C-12.6198 247.935 -12.2742 248.338 -12.2742 248.953C-12.2742 249.74 -12.9174 250.23 -13.9254 250.23C-14.8662 250.23 -15.4998 249.759 -15.5382 249.039H-16.2486C-16.1622 250.162 -15.2598 250.863 -13.9254 250.863C-12.5046 250.863 -11.583 250.105 -11.583 248.914C-11.583 247.983 -12.1398 247.369 -13.215 247.11L-14.3958 246.822C-15.1158 246.639 -15.471 246.255 -15.471 245.65C-15.471 244.873 -14.8374 244.374 -13.8678 244.374C-13.0038 244.374 -12.4758 244.815 -12.399 245.593H-11.6982C-11.8038 244.441 -12.6198 243.75 -13.8582 243.75C-15.2406 243.75 -16.1622 244.508 -16.1622 245.66ZM-9.64879 243.874H-10.34V250.748H-9.64879V243.874ZM-7.28629 250.748V245.026L-3.49429 250.748H-2.81269V243.874H-3.49429V249.596L-7.27669 243.874H-7.97749V250.748H-7.28629ZM1.74626 244.412C2.75426 244.412 3.56066 244.892 3.84866 245.833H4.59746C4.32866 244.585 3.20546 243.759 1.75586 243.759C-0.212141 243.759 -1.55614 245.238 -1.55614 247.34C-1.55614 249.462 -0.212141 250.863 1.73666 250.863C2.85026 250.863 3.71426 250.345 4.07906 249.663L4.14626 250.758H4.69346V247.033H1.55426V247.647H4.04066V248.002C4.04066 249.654 2.91746 250.21 1.76546 250.21C0.219859 250.21 -0.836141 249.126 -0.836141 247.34C-0.836141 245.583 0.16226 244.412 1.74626 244.412Z" fill="#4E5AE4"/>
<rect x="-113.526" y="75.8809" width="866.176" height="401.229" fill="#4E5AE4"/>
<rect x="-113.526" y="75.8809" width="866.176" height="401.229" stroke="#FAF5EE"/>
<g clip-path="url(#clip0_2_5773)">
<path d="M-62.5552 358.402L-37.2066 368.296L-12.9043 358.402L12.7058 316.238L36.5795 302.037L61.325 315.806L85.1987 349.53H109.508H135.983L160.721 342.48L187.639 354.96L210.205 364.422L235.394 358.87L260.205 358.517L286.076 345.699L309.485 343.56L333.199 342.948L359.993 325.247L384.63 356.378L409.506 363.191L433.917 366.309L460.392 361.822L481.948 365.538L506.584 371.335L533.379 367.979L558.32 371.335H583.269L605.748 368.894L633.16 374.115L655.639 366.762H684.591L705.573 371.775" stroke="#FAF5EE" stroke-width="0.8" stroke-miterlimit="10" stroke-linecap="round"/>
<path d="M12.4811 318.226C14.8205 318.226 14.8205 314.625 12.4811 314.625C10.1417 314.625 10.1417 318.226 12.4811 318.226Z" fill="#FAF5EE"/>
<path d="M36.3471 304.003C38.6793 304.003 38.6865 300.402 36.3471 300.402C34.0077 300.402 34.0005 304.003 36.3471 304.003Z" fill="#FAF5EE"/>
<path d="M61.2018 317.894C63.534 317.894 63.5413 314.293 61.2018 314.293C58.8624 314.293 58.8624 317.894 61.2018 317.894Z" fill="#FAF5EE"/>
<path d="M85.2355 351.308C87.575 351.308 87.575 347.707 85.2355 347.707C82.8961 347.707 82.8961 351.308 85.2355 351.308Z" fill="#FAF5EE"/>
<path d="M111.267 351.149C113.606 351.149 113.606 347.549 111.267 347.549C108.927 347.549 108.927 351.149 111.267 351.149Z" fill="#FAF5EE"/>
<path d="M136.63 351.149C138.97 351.149 138.977 347.549 136.63 347.549C134.284 347.549 134.291 351.149 136.63 351.149Z" fill="#FAF5EE"/>
<path d="M160.329 344.524C162.661 344.524 162.668 340.924 160.329 340.924C157.989 340.924 157.989 344.524 160.329 344.524Z" fill="#FAF5EE"/>
<path d="M186.165 356.27C188.504 356.27 188.504 352.669 186.165 352.669C183.825 352.669 183.825 356.27 186.165 356.27Z" fill="#FAF5EE"/>
<path d="M210.053 366.524C212.393 366.524 212.4 362.924 210.053 362.924C207.707 362.924 207.714 366.524 210.053 366.524Z" fill="#FAF5EE"/>
<path d="M235.082 360.568C237.421 360.568 237.429 356.968 235.082 356.968C232.735 356.968 232.743 360.568 235.082 360.568Z" fill="#FAF5EE"/>
<path d="M259.45 359.906C261.789 359.906 261.789 356.306 259.45 356.306C257.11 356.306 257.11 359.906 259.45 359.906Z" fill="#FAF5EE"/>
<path d="M285.648 347.671C287.981 347.671 287.988 344.07 285.648 344.07C283.309 344.07 283.302 347.671 285.648 347.671Z" fill="#FAF5EE"/>
<path d="M309.173 345.389C311.512 345.389 311.519 341.788 309.173 341.788C306.826 341.788 306.833 345.389 309.173 345.389Z" fill="#FAF5EE"/>
<path d="M333.875 344.856C336.207 344.856 336.214 341.255 333.875 341.255C331.536 341.255 331.528 344.856 333.875 344.856Z" fill="#FAF5EE"/>
<path d="M359.739 327.328C362.071 327.328 362.079 323.728 359.739 323.728C357.4 323.728 357.393 327.328 359.739 327.328Z" fill="#FAF5EE"/>
<path d="M384.601 357.868C386.941 357.868 386.941 354.268 384.601 354.268C382.262 354.268 382.262 357.868 384.601 357.868Z" fill="#FAF5EE"/>
<path d="M459.687 363.219C462.027 363.219 462.034 359.618 459.687 359.618C457.341 359.618 457.348 363.219 459.687 363.219Z" fill="#FAF5EE"/>
</g>
<g clip-path="url(#clip1_2_5773)">
<path d="M-62.0088 372.314L-36.4253 370.673L-12.8103 373.947H13.1727L38.3639 372.314L62.7707 369.032L88.3614 373.947L112.369 369.032H137.56L162.758 371.49L187.158 373.947L211.172 371.49L236.364 369.032L259.986 362.475L285.177 371.898L309.584 368.215L334.383 372.314L358.79 373.947L384.765 371.081L409.957 362.475L434.363 365.75L457.985 368.215L483.569 348.129L507.191 365.75L533.951 369.848L558.358 371.898L582.373 369.848L606.779 361.038L631.971 370.264L657.162 368.215L682.753 371.49H705.975" stroke="#12182D" stroke-width="0.8" stroke-miterlimit="10" stroke-linecap="round"/>
<path d="M12.4757 376.299C14.8074 376.299 14.8147 372.518 12.4757 372.518C10.1367 372.518 10.1295 376.299 12.4757 376.299Z" fill="#12182D"/>
<path d="M37.1075 374.128C39.4393 374.128 39.4465 370.347 37.1075 370.347C34.7686 370.347 34.7613 374.128 37.1075 374.128Z" fill="#12182D"/>
<path d="M62.6549 370.528C64.9939 370.528 65.0011 366.747 62.6549 366.747C60.3087 366.747 60.3159 370.528 62.6549 370.528Z" fill="#12182D"/>
<path d="M87.9767 375.543C90.3157 375.543 90.323 371.762 87.9767 371.762C85.6304 371.762 85.6377 375.543 87.9767 375.543Z" fill="#12182D"/>
<path d="M112.383 370.293C114.722 370.293 114.722 366.512 112.383 366.512C110.044 366.512 110.044 370.293 112.383 370.293Z" fill="#12182D"/>
<path d="M137.262 370.528C139.594 370.528 139.601 366.747 137.262 366.747C134.923 366.747 134.916 370.528 137.262 370.528Z" fill="#12182D"/>
<path d="M161.183 373.168C163.522 373.168 163.529 369.387 161.183 369.387C158.836 369.387 158.844 373.168 161.183 373.168Z" fill="#12182D"/>
<path d="M186.512 376.042C188.844 376.042 188.851 372.261 186.512 372.261C184.173 372.261 184.166 376.042 186.512 376.042Z" fill="#12182D"/>
<path d="M211.601 372.926C213.94 372.926 213.94 369.145 211.601 369.145C209.262 369.145 209.262 372.926 211.601 372.926Z" fill="#12182D"/>
<path d="M235.776 370.528C238.107 370.528 238.114 366.747 235.776 366.747C233.437 366.747 233.429 370.528 235.776 370.528Z" fill="#12182D"/>
<path d="M259.02 364.297C261.359 364.297 261.366 360.516 259.02 360.516C256.674 360.516 256.681 364.297 259.02 364.297Z" fill="#12182D"/>
<path d="M285.955 373.644C288.294 373.644 288.301 369.862 285.955 369.862C283.608 369.862 283.616 373.644 285.955 373.644Z" fill="#12182D"/>
<path d="M308.981 370.293C311.313 370.293 311.32 366.512 308.981 366.512C306.642 366.512 306.635 370.293 308.981 370.293Z" fill="#12182D"/>
<path d="M334.071 374.362C336.41 374.362 336.41 370.581 334.071 370.581C331.732 370.581 331.732 374.362 334.071 374.362Z" fill="#12182D"/>
<path d="M358.245 375.8C360.577 375.8 360.584 372.019 358.245 372.019C355.906 372.019 355.899 375.8 358.245 375.8Z" fill="#12182D"/>
<path d="M384.235 372.926C386.567 372.926 386.574 369.145 384.235 369.145C381.896 369.145 381.889 372.926 384.235 372.926Z" fill="#12182D"/>
<path d="M409.347 364.063C411.686 364.063 411.686 360.281 409.347 360.281C407.008 360.281 407.008 364.063 409.347 364.063Z" fill="#12182D"/>
<path d="M433.746 366.937C436.085 366.937 436.092 363.155 433.746 363.155C431.4 363.155 431.407 366.937 433.746 366.937Z" fill="#12182D"/>
<path d="M457.688 369.81C460.027 369.81 460.034 366.028 457.688 366.028C455.342 366.028 455.349 369.81 457.688 369.81Z" fill="#12182D"/>
</g>
</g>
<defs>
<clipPath id="clip0_2_5773">
<rect width="770.642" height="75.8802" fill="white" transform="translate(-64.6978 300.402)"/>
</clipPath>
<clipPath id="clip1_2_5773">
<rect width="771.703" height="30.1442" fill="white" transform="translate(-63.6357 346.139)"/>
</clipPath>
</defs>
</svg>
