<svg width="480" height="550" viewBox="0 0 480 550" fill="none" xmlns="http://www.w3.org/2000/svg">
<rect width="480" height="550" fill="#34D4B0"/>
<g filter="url(#filter0_d_33_11)">
<path d="M240.448 321.889H219.969C216.573 321.92 213.205 321.278 210.058 320C206.911 318.723 204.049 316.836 201.635 314.447C199.221 312.058 197.305 309.215 195.995 306.081C194.685 302.948 194.009 299.586 194.005 296.19C194.005 282.36 194.005 268.531 194.005 254.701C193.916 250.076 195.112 245.518 197.46 241.533C199.808 237.548 203.215 234.292 207.303 232.128C211.055 230.018 215.299 228.94 219.603 229.003C233.433 229.003 247.23 229.003 261.059 229.003C264.444 228.989 267.797 229.646 270.927 230.934C274.057 232.222 276.901 234.116 279.295 236.508C281.69 238.899 283.588 241.741 284.88 244.869C286.172 247.997 286.833 251.35 286.824 254.734C286.824 268.531 286.824 282.328 286.824 296.124C286.829 299.527 286.158 302.897 284.849 306.038C283.541 309.179 281.622 312.03 279.204 314.423C276.785 316.817 273.915 318.707 270.761 319.983C267.606 321.259 264.229 321.895 260.827 321.856L240.448 321.889ZM240.448 313.644H260.827C263.171 313.693 265.5 313.271 267.678 312.401C269.855 311.532 271.835 310.234 273.501 308.584C275.166 306.934 276.483 304.966 277.372 302.797C278.262 300.628 278.706 298.302 278.679 295.958C278.679 282.294 278.679 268.597 278.679 254.934C278.715 252.606 278.283 250.294 277.409 248.136C276.534 245.978 275.235 244.018 273.589 242.371C271.942 240.725 269.982 239.426 267.824 238.551C265.666 237.677 263.354 237.245 261.026 237.281C247.296 237.281 233.599 237.281 219.869 237.281C215.558 237.201 211.377 238.757 208.167 241.636C206.232 243.315 204.694 245.402 203.665 247.748C202.636 250.094 202.141 252.639 202.216 255.2V294.561C202.216 295.525 202.216 296.523 202.216 297.52C202.378 300.2 203.173 302.802 204.537 305.114C205.901 307.426 207.795 309.381 210.062 310.818C213.017 312.762 216.5 313.749 220.035 313.644H240.448Z" fill="#34D4B0"/>
<g filter="url(#filter1_d_33_11)">
<path d="M240.483 299.381C235.749 299.381 231.121 297.976 227.185 295.346C223.249 292.716 220.181 288.978 218.369 284.604C216.557 280.23 216.083 275.418 217.007 270.775C217.93 266.131 220.21 261.866 223.558 258.519C226.905 255.171 231.17 252.891 235.813 251.968C240.457 251.044 245.269 251.518 249.643 253.33C254.017 255.142 257.755 258.21 260.385 262.146C263.016 266.082 264.419 270.71 264.419 275.444C264.402 281.787 261.874 287.865 257.389 292.35C252.904 296.835 246.826 299.363 240.483 299.381ZM256.175 275.477C256.181 272.374 255.267 269.338 253.549 266.754C251.83 264.17 249.383 262.154 246.519 260.96C243.654 259.766 240.5 259.449 237.455 260.048C234.409 260.647 231.61 262.135 229.411 264.325C227.212 266.515 225.712 269.308 225.1 272.35C224.488 275.393 224.792 278.549 225.973 281.419C227.155 284.288 229.161 286.743 231.738 288.473C234.315 290.203 237.346 291.129 240.45 291.136C244.586 291.136 248.556 289.507 251.499 286.601C254.442 283.695 256.122 279.746 256.175 275.61V275.477Z" fill="#34D4B0"/>
</g>
<g filter="url(#filter2_d_33_11)">
<path d="M265.449 256.597C264.25 256.597 263.077 256.24 262.081 255.573C261.084 254.905 260.309 253.956 259.853 252.846C259.397 251.737 259.281 250.517 259.52 249.342C259.759 248.166 260.342 247.088 261.195 246.245C262.048 245.401 263.132 244.83 264.31 244.604C265.488 244.379 266.707 244.508 267.811 244.976C268.915 245.444 269.856 246.23 270.513 247.234C271.169 248.237 271.513 249.414 271.5 250.613C271.474 252.203 270.826 253.721 269.695 254.839C268.564 255.958 267.04 256.589 265.449 256.597Z" fill="#34D4B0"/>
</g>
</g>
<g filter="url(#filter3_i_33_11)">
<path d="M240.448 321.889H219.969C216.573 321.92 213.205 321.278 210.058 320C206.911 318.723 204.049 316.836 201.635 314.447C199.221 312.058 197.305 309.215 195.995 306.081C194.685 302.948 194.009 299.586 194.005 296.19C194.005 282.36 194.005 268.531 194.005 254.701C193.916 250.076 195.112 245.518 197.46 241.533C199.808 237.548 203.215 234.292 207.303 232.128C211.055 230.018 215.299 228.94 219.603 229.003C233.433 229.003 247.23 229.003 261.059 229.003C264.444 228.989 267.797 229.646 270.927 230.934C274.057 232.222 276.901 234.116 279.295 236.508C281.69 238.899 283.588 241.741 284.88 244.869C286.172 247.997 286.833 251.35 286.824 254.734C286.824 268.531 286.824 282.328 286.824 296.124C286.829 299.527 286.158 302.897 284.849 306.038C283.541 309.179 281.622 312.03 279.204 314.423C276.785 316.817 273.915 318.707 270.761 319.983C267.606 321.259 264.229 321.895 260.827 321.856L240.448 321.889ZM240.448 313.644H260.827C263.171 313.693 265.5 313.271 267.678 312.401C269.855 311.532 271.835 310.234 273.501 308.584C275.166 306.934 276.483 304.966 277.372 302.797C278.262 300.628 278.706 298.302 278.679 295.958C278.679 282.294 278.679 268.597 278.679 254.934C278.715 252.606 278.283 250.294 277.409 248.136C276.534 245.978 275.235 244.018 273.589 242.371C271.942 240.725 269.982 239.426 267.824 238.551C265.666 237.677 263.354 237.245 261.026 237.281C247.296 237.281 233.599 237.281 219.869 237.281C215.558 237.201 211.377 238.757 208.167 241.636C206.232 243.315 204.694 245.402 203.665 247.748C202.636 250.094 202.141 252.639 202.216 255.2V294.561C202.216 295.525 202.216 296.523 202.216 297.52C202.378 300.2 203.173 302.802 204.537 305.114C205.901 307.426 207.795 309.381 210.062 310.818C213.017 312.762 216.5 313.749 220.035 313.644H240.448Z" fill="#34D4B0"/>
<g filter="url(#filter4_d_33_11)">
<path d="M240.483 299.381C235.749 299.381 231.121 297.976 227.185 295.346C223.249 292.716 220.181 288.978 218.369 284.604C216.557 280.23 216.083 275.418 217.007 270.775C217.93 266.131 220.21 261.866 223.558 258.519C226.905 255.171 231.17 252.891 235.813 251.968C240.457 251.044 245.269 251.518 249.643 253.33C254.017 255.142 257.755 258.21 260.385 262.146C263.016 266.082 264.419 270.71 264.419 275.444C264.402 281.787 261.874 287.865 257.389 292.35C252.904 296.835 246.826 299.363 240.483 299.381ZM256.175 275.477C256.181 272.374 255.267 269.338 253.549 266.754C251.83 264.17 249.383 262.154 246.519 260.96C243.654 259.766 240.5 259.449 237.455 260.048C234.409 260.647 231.61 262.135 229.411 264.325C227.212 266.515 225.712 269.308 225.1 272.35C224.488 275.393 224.792 278.549 225.973 281.419C227.155 284.288 229.161 286.743 231.738 288.473C234.315 290.203 237.346 291.129 240.45 291.136C244.586 291.136 248.556 289.507 251.499 286.601C254.442 283.695 256.122 279.746 256.175 275.61V275.477Z" fill="#34D4B0"/>
</g>
<g filter="url(#filter5_d_33_11)">
<path d="M265.449 256.597C264.25 256.597 263.077 256.24 262.081 255.573C261.084 254.905 260.309 253.956 259.853 252.846C259.397 251.737 259.281 250.517 259.52 249.342C259.759 248.166 260.342 247.088 261.195 246.245C262.048 245.401 263.132 244.83 264.31 244.604C265.488 244.379 266.707 244.508 267.811 244.976C268.915 245.444 269.856 246.23 270.513 247.234C271.169 248.237 271.513 249.414 271.5 250.613C271.474 252.203 270.826 253.721 269.695 254.839C268.564 255.958 267.04 256.589 265.449 256.597Z" fill="#34D4B0"/>
</g>
</g>
<defs>
<filter id="filter0_d_33_11" x="191" y="226" width="102.824" height="102.89" filterUnits="userSpaceOnUse" color-interpolation-filters="sRGB">
<feFlood flood-opacity="0" result="BackgroundImageFix"/>
<feColorMatrix in="SourceAlpha" type="matrix" values="0 0 0 0 0 0 0 0 0 0 0 0 0 0 0 0 0 0 127 0" result="hardAlpha"/>
<feOffset dx="2" dy="2"/>
<feGaussianBlur stdDeviation="2.5"/>
<feComposite in2="hardAlpha" operator="out"/>
<feColorMatrix type="matrix" values="0 0 0 0 0.161944 0 0 0 0 0.733333 0 0 0 0 0.604771 0 0 0 1 0"/>
<feBlend mode="normal" in2="BackgroundImageFix" result="effect1_dropShadow_33_11"/>
<feBlend mode="normal" in="SourceGraphic" in2="effect1_dropShadow_33_11" result="shape"/>
</filter>
<filter id="filter1_d_33_11" x="196.547" y="231.508" width="107.873" height="107.873" filterUnits="userSpaceOnUse" color-interpolation-filters="sRGB">
<feFlood flood-opacity="0" result="BackgroundImageFix"/>
<feColorMatrix in="SourceAlpha" type="matrix" values="0 0 0 0 0 0 0 0 0 0 0 0 0 0 0 0 0 0 127 0" result="hardAlpha"/>
<feOffset dx="10" dy="10"/>
<feGaussianBlur stdDeviation="15"/>
<feComposite in2="hardAlpha" operator="out"/>
<feColorMatrix type="matrix" values="0 0 0 0 0.199514 0 0 0 0 0.704167 0 0 0 0 0.59062 0 0 0 1 0"/>
<feBlend mode="normal" in2="BackgroundImageFix" result="effect1_dropShadow_33_11"/>
<feBlend mode="normal" in="SourceGraphic" in2="effect1_dropShadow_33_11" result="shape"/>
</filter>
<filter id="filter2_d_33_11" x="239.399" y="224.496" width="72.1011" height="72.1016" filterUnits="userSpaceOnUse" color-interpolation-filters="sRGB">
<feFlood flood-opacity="0" result="BackgroundImageFix"/>
<feColorMatrix in="SourceAlpha" type="matrix" values="0 0 0 0 0 0 0 0 0 0 0 0 0 0 0 0 0 0 127 0" result="hardAlpha"/>
<feOffset dx="10" dy="10"/>
<feGaussianBlur stdDeviation="15"/>
<feComposite in2="hardAlpha" operator="out"/>
<feColorMatrix type="matrix" values="0 0 0 0 0.2 0 0 0 0 0.705882 0 0 0 0 0.592157 0 0 0 0.25 0"/>
<feBlend mode="normal" in2="BackgroundImageFix" result="effect1_dropShadow_33_11"/>
<feBlend mode="normal" in="SourceGraphic" in2="effect1_dropShadow_33_11" result="shape"/>
</filter>
<filter id="filter3_i_33_11" x="194" y="229" width="94.8242" height="94.8896" filterUnits="userSpaceOnUse" color-interpolation-filters="sRGB">
<feFlood flood-opacity="0" result="BackgroundImageFix"/>
<feBlend mode="normal" in="SourceGraphic" in2="BackgroundImageFix" result="shape"/>
<feColorMatrix in="SourceAlpha" type="matrix" values="0 0 0 0 0 0 0 0 0 0 0 0 0 0 0 0 0 0 127 0" result="hardAlpha"/>
<feOffset dx="2" dy="2"/>
<feGaussianBlur stdDeviation="2.5"/>
<feComposite in2="hardAlpha" operator="arithmetic" k2="-1" k3="1"/>
<feColorMatrix type="matrix" values="0 0 0 0 1 0 0 0 0 1 0 0 0 0 1 0 0 0 0.3 0"/>
<feBlend mode="normal" in2="shape" result="effect1_innerShadow_33_11"/>
</filter>
<filter id="filter4_d_33_11" x="196.547" y="231.508" width="107.873" height="107.873" filterUnits="userSpaceOnUse" color-interpolation-filters="sRGB">
<feFlood flood-opacity="0" result="BackgroundImageFix"/>
<feColorMatrix in="SourceAlpha" type="matrix" values="0 0 0 0 0 0 0 0 0 0 0 0 0 0 0 0 0 0 127 0" result="hardAlpha"/>
<feOffset dx="10" dy="10"/>
<feGaussianBlur stdDeviation="15"/>
<feComposite in2="hardAlpha" operator="out"/>
<feColorMatrix type="matrix" values="0 0 0 0 0.2 0 0 0 0 0.705882 0 0 0 0 0.592157 0 0 0 0.25 0"/>
<feBlend mode="normal" in2="BackgroundImageFix" result="effect1_dropShadow_33_11"/>
<feBlend mode="normal" in="SourceGraphic" in2="effect1_dropShadow_33_11" result="shape"/>
</filter>
<filter id="filter5_d_33_11" x="239.399" y="224.496" width="72.1011" height="72.1016" filterUnits="userSpaceOnUse" color-interpolation-filters="sRGB">
<feFlood flood-opacity="0" result="BackgroundImageFix"/>
<feColorMatrix in="SourceAlpha" type="matrix" values="0 0 0 0 0 0 0 0 0 0 0 0 0 0 0 0 0 0 127 0" result="hardAlpha"/>
<feOffset dx="10" dy="10"/>
<feGaussianBlur stdDeviation="15"/>
<feComposite in2="hardAlpha" operator="out"/>
<feColorMatrix type="matrix" values="0 0 0 0 0.2 0 0 0 0 0.705882 0 0 0 0 0.592157 0 0 0 0.25 0"/>
<feBlend mode="normal" in2="BackgroundImageFix" result="effect1_dropShadow_33_11"/>
<feBlend mode="normal" in="SourceGraphic" in2="effect1_dropShadow_33_11" result="shape"/>
</filter>
</defs>
</svg>
