<svg width="480" height="550" viewBox="0 0 480 550" fill="none" xmlns="http://www.w3.org/2000/svg">
<rect width="480" height="550" fill="#504DE6"/>
<path d="M166.504 260.284H164.204V258.284H171.004V260.284H168.704V272.284H166.504V260.284ZM175.171 272.484C174.091 272.484 173.265 272.178 172.691 271.564C172.118 270.951 171.831 270.084 171.831 268.964V261.604C171.831 260.484 172.118 259.618 172.691 259.004C173.265 258.391 174.091 258.084 175.171 258.084C176.251 258.084 177.078 258.391 177.651 259.004C178.225 259.618 178.511 260.484 178.511 261.604V268.964C178.511 270.084 178.225 270.951 177.651 271.564C177.078 272.178 176.251 272.484 175.171 272.484ZM175.171 270.484C175.931 270.484 176.311 270.024 176.311 269.104V261.464C176.311 260.544 175.931 260.084 175.171 260.084C174.411 260.084 174.031 260.544 174.031 261.464V269.104C174.031 270.024 174.411 270.484 175.171 270.484ZM186.402 272.484C185.336 272.484 184.522 272.184 183.962 271.584C183.402 270.971 183.122 270.098 183.122 268.964V258.284H185.322V269.124C185.322 269.604 185.416 269.951 185.602 270.164C185.802 270.378 186.082 270.484 186.442 270.484C186.802 270.484 187.076 270.378 187.262 270.164C187.462 269.951 187.562 269.604 187.562 269.124V258.284H189.682V268.964C189.682 270.098 189.402 270.971 188.842 271.584C188.282 272.184 187.469 272.484 186.402 272.484ZM194.109 272.484C193.043 272.484 192.236 272.184 191.689 271.584C191.143 270.971 190.869 270.098 190.869 268.964V268.164H192.949V269.124C192.949 270.031 193.329 270.484 194.089 270.484C194.463 270.484 194.743 270.378 194.929 270.164C195.129 269.938 195.229 269.578 195.229 269.084C195.229 268.498 195.096 267.984 194.829 267.544C194.563 267.091 194.069 266.551 193.349 265.924C192.443 265.124 191.809 264.404 191.449 263.764C191.089 263.111 190.909 262.378 190.909 261.564C190.909 260.458 191.189 259.604 191.749 259.004C192.309 258.391 193.123 258.084 194.189 258.084C195.243 258.084 196.036 258.391 196.569 259.004C197.116 259.604 197.389 260.471 197.389 261.604V262.184H195.309V261.464C195.309 260.984 195.216 260.638 195.029 260.424C194.843 260.198 194.569 260.084 194.209 260.084C193.476 260.084 193.109 260.531 193.109 261.424C193.109 261.931 193.243 262.404 193.509 262.844C193.789 263.284 194.289 263.818 195.009 264.444C195.929 265.244 196.563 265.971 196.909 266.624C197.256 267.278 197.429 268.044 197.429 268.924C197.429 270.071 197.143 270.951 196.569 271.564C196.009 272.178 195.189 272.484 194.109 272.484ZM199.411 272.284H198.691V270.164H200.811V272.064L199.711 274.684H198.691L199.411 272.284ZM207.383 260.284H205.083V258.284H211.883V260.284H209.583V272.284H207.383V260.284ZM212.948 258.284H215.148V263.984H217.508V258.284H219.708V272.284H217.508V265.984H215.148V272.284H212.948V258.284ZM221.347 258.284H227.347V260.284H223.547V263.984H226.567V265.984H223.547V270.284H227.347V272.284H221.347V258.284ZM230.632 266.324L227.972 258.284H230.312L231.812 263.424H231.852L233.352 258.284H235.492L232.832 266.324V272.284H230.632V266.324ZM237.399 260.404H236.679V258.284H238.799V260.184L237.579 262.804H236.559L237.399 260.404ZM240.448 258.284H243.708C244.842 258.284 245.668 258.551 246.188 259.084C246.708 259.604 246.968 260.411 246.968 261.504V262.364C246.968 263.818 246.488 264.738 245.528 265.124V265.164C246.062 265.324 246.435 265.651 246.648 266.144C246.875 266.638 246.988 267.298 246.988 268.124V270.584C246.988 270.984 247.002 271.311 247.028 271.564C247.055 271.804 247.122 272.044 247.228 272.284H244.988C244.908 272.058 244.855 271.844 244.828 271.644C244.802 271.444 244.788 271.084 244.788 270.564V268.004C244.788 267.364 244.682 266.918 244.468 266.664C244.268 266.411 243.915 266.284 243.408 266.284H242.648V272.284H240.448V258.284ZM243.448 264.284C243.888 264.284 244.215 264.171 244.428 263.944C244.655 263.718 244.768 263.338 244.768 262.804V261.724C244.768 261.218 244.675 260.851 244.488 260.624C244.315 260.398 244.035 260.284 243.648 260.284H242.648V264.284H243.448ZM248.515 258.284H254.515V260.284H250.715V263.984H253.735V265.984H250.715V270.284H254.515V272.284H248.515V258.284ZM258.984 258.284H261.744L263.884 266.664H263.924V258.284H265.884V272.284H263.624L260.984 262.064H260.944V272.284H258.984V258.284ZM270.699 272.484C269.619 272.484 268.792 272.178 268.219 271.564C267.645 270.951 267.359 270.084 267.359 268.964V261.604C267.359 260.484 267.645 259.618 268.219 259.004C268.792 258.391 269.619 258.084 270.699 258.084C271.779 258.084 272.605 258.391 273.179 259.004C273.752 259.618 274.039 260.484 274.039 261.604V268.964C274.039 270.084 273.752 270.951 273.179 271.564C272.605 272.178 271.779 272.484 270.699 272.484ZM270.699 270.484C271.459 270.484 271.839 270.024 271.839 269.104V261.464C271.839 260.544 271.459 260.084 270.699 260.084C269.939 260.084 269.559 260.544 269.559 261.464V269.104C269.559 270.024 269.939 270.484 270.699 270.484ZM277.168 260.284H274.868V258.284H281.668V260.284H279.368V272.284H277.168V260.284ZM286.457 272.364C286.057 272.364 285.717 272.338 285.437 272.284V270.284C285.65 270.338 285.89 270.364 286.157 270.364C286.597 270.364 286.923 270.258 287.137 270.044C287.35 269.818 287.457 269.478 287.457 269.024V258.284H289.657V268.964C289.657 270.111 289.39 270.964 288.857 271.524C288.337 272.084 287.537 272.364 286.457 272.364ZM294.43 272.484C293.363 272.484 292.55 272.184 291.99 271.584C291.43 270.971 291.15 270.098 291.15 268.964V258.284H293.35V269.124C293.35 269.604 293.443 269.951 293.63 270.164C293.83 270.378 294.11 270.484 294.47 270.484C294.83 270.484 295.103 270.378 295.29 270.164C295.49 269.951 295.59 269.604 295.59 269.124V258.284H297.71V268.964C297.71 270.098 297.43 270.971 296.87 271.584C296.31 272.184 295.496 272.484 294.43 272.484ZM302.137 272.484C301.07 272.484 300.263 272.184 299.717 271.584C299.17 270.971 298.897 270.098 298.897 268.964V268.164H300.977V269.124C300.977 270.031 301.357 270.484 302.117 270.484C302.49 270.484 302.77 270.378 302.957 270.164C303.157 269.938 303.257 269.578 303.257 269.084C303.257 268.498 303.123 267.984 302.857 267.544C302.59 267.091 302.097 266.551 301.377 265.924C300.47 265.124 299.837 264.404 299.477 263.764C299.117 263.111 298.937 262.378 298.937 261.564C298.937 260.458 299.217 259.604 299.777 259.004C300.337 258.391 301.15 258.084 302.217 258.084C303.27 258.084 304.063 258.391 304.597 259.004C305.143 259.604 305.417 260.471 305.417 261.604V262.184H303.337V261.464C303.337 260.984 303.243 260.638 303.057 260.424C302.87 260.198 302.597 260.084 302.237 260.084C301.503 260.084 301.137 260.531 301.137 261.424C301.137 261.931 301.27 262.404 301.537 262.844C301.817 263.284 302.317 263.818 303.037 264.444C303.957 265.244 304.59 265.971 304.937 266.624C305.283 267.278 305.457 268.044 305.457 268.924C305.457 270.071 305.17 270.951 304.597 271.564C304.037 272.178 303.217 272.484 302.137 272.484ZM308.438 260.284H306.138V258.284H312.938V260.284H310.638V272.284H308.438V260.284ZM160.811 277.284H163.791L166.071 291.284H163.871L163.471 288.504V288.544H160.971L160.571 291.284H158.531L160.811 277.284ZM163.211 286.644L162.231 279.724H162.191L161.231 286.644H163.211ZM173.441 291.484C172.388 291.484 171.581 291.184 171.021 290.584C170.474 289.984 170.201 289.138 170.201 288.044V280.524C170.201 279.431 170.474 278.584 171.021 277.984C171.581 277.384 172.388 277.084 173.441 277.084C174.494 277.084 175.294 277.384 175.841 277.984C176.401 278.584 176.681 279.431 176.681 280.524V282.004H174.601V280.384C174.601 279.518 174.234 279.084 173.501 279.084C172.768 279.084 172.401 279.518 172.401 280.384V288.204C172.401 289.058 172.768 289.484 173.501 289.484C174.234 289.484 174.601 289.058 174.601 288.204V286.064H176.681V288.044C176.681 289.138 176.401 289.984 175.841 290.584C175.294 291.184 174.494 291.484 173.441 291.484ZM181.216 291.484C180.136 291.484 179.31 291.178 178.736 290.564C178.163 289.951 177.876 289.084 177.876 287.964V280.604C177.876 279.484 178.163 278.618 178.736 278.004C179.31 277.391 180.136 277.084 181.216 277.084C182.296 277.084 183.123 277.391 183.696 278.004C184.27 278.618 184.556 279.484 184.556 280.604V287.964C184.556 289.084 184.27 289.951 183.696 290.564C183.123 291.178 182.296 291.484 181.216 291.484ZM181.216 289.484C181.976 289.484 182.356 289.024 182.356 288.104V280.464C182.356 279.544 181.976 279.084 181.216 279.084C180.456 279.084 180.076 279.544 180.076 280.464V288.104C180.076 289.024 180.456 289.484 181.216 289.484ZM186.044 277.284H189.184L190.584 287.304H190.624L192.024 277.284H195.164V291.284H193.084V280.684H193.044L191.444 291.284H189.604L188.004 280.684H187.964V291.284H186.044V277.284ZM196.806 277.284H200.046C201.139 277.284 201.959 277.578 202.506 278.164C203.052 278.751 203.326 279.611 203.326 280.744V282.124C203.326 283.258 203.052 284.118 202.506 284.704C201.959 285.291 201.139 285.584 200.046 285.584H199.006V291.284H196.806V277.284ZM200.046 283.584C200.406 283.584 200.672 283.484 200.846 283.284C201.032 283.084 201.126 282.744 201.126 282.264V280.604C201.126 280.124 201.032 279.784 200.846 279.584C200.672 279.384 200.406 279.284 200.046 279.284H199.006V283.584H200.046ZM205.518 277.284H208.498L210.778 291.284H208.578L208.178 288.504V288.544H205.678L205.278 291.284H203.238L205.518 277.284ZM207.918 286.644L206.938 279.724H206.898L205.938 286.644H207.918ZM211.845 277.284H214.605L216.745 285.664H216.785V277.284H218.745V291.284H216.485L213.845 281.064H213.805V291.284H211.845V277.284ZM222.4 285.324L219.74 277.284H222.08L223.58 282.424H223.62L225.12 277.284H227.26L224.6 285.324V291.284H222.4V285.324ZM230.934 277.284H233.054L234.034 288.044H234.074L235.114 277.284H237.514L238.554 288.044H238.594L239.574 277.284H241.474L240.054 291.284H237.314L236.314 281.844H236.274L235.274 291.284H232.354L230.934 277.284ZM242.587 277.284H248.587V279.284H244.787V282.984H247.807V284.984H244.787V289.284H248.587V291.284H242.587V277.284ZM256.236 291.484C255.156 291.484 254.329 291.178 253.756 290.564C253.182 289.951 252.896 289.084 252.896 287.964V280.604C252.896 279.484 253.182 278.618 253.756 278.004C254.329 277.391 255.156 277.084 256.236 277.084C257.316 277.084 258.142 277.391 258.716 278.004C259.289 278.618 259.576 279.484 259.576 280.604V287.964C259.576 289.084 259.289 289.951 258.716 290.564C258.142 291.178 257.316 291.484 256.236 291.484ZM256.236 289.484C256.996 289.484 257.376 289.024 257.376 288.104V280.464C257.376 279.544 256.996 279.084 256.236 279.084C255.476 279.084 255.096 279.544 255.096 280.464V288.104C255.096 289.024 255.476 289.484 256.236 289.484ZM264.264 291.484C263.197 291.484 262.384 291.184 261.824 290.584C261.264 289.971 260.984 289.098 260.984 287.964V277.284H263.184V288.124C263.184 288.604 263.277 288.951 263.464 289.164C263.664 289.378 263.944 289.484 264.304 289.484C264.664 289.484 264.937 289.378 265.124 289.164C265.324 288.951 265.424 288.604 265.424 288.124V277.284H267.544V287.964C267.544 289.098 267.264 289.971 266.704 290.584C266.144 291.184 265.33 291.484 264.264 291.484ZM270.831 279.284H268.531V277.284H275.331V279.284H273.031V291.284H270.831V279.284ZM279.256 291.484C278.189 291.484 277.382 291.184 276.836 290.584C276.289 289.971 276.016 289.098 276.016 287.964V287.164H278.096V288.124C278.096 289.031 278.476 289.484 279.236 289.484C279.609 289.484 279.889 289.378 280.076 289.164C280.276 288.938 280.376 288.578 280.376 288.084C280.376 287.498 280.242 286.984 279.976 286.544C279.709 286.091 279.216 285.551 278.496 284.924C277.589 284.124 276.956 283.404 276.596 282.764C276.236 282.111 276.056 281.378 276.056 280.564C276.056 279.458 276.336 278.604 276.896 278.004C277.456 277.391 278.269 277.084 279.336 277.084C280.389 277.084 281.182 277.391 281.716 278.004C282.262 278.604 282.536 279.471 282.536 280.604V281.184H280.456V280.464C280.456 279.984 280.362 279.638 280.176 279.424C279.989 279.198 279.716 279.084 279.356 279.084C278.622 279.084 278.256 279.531 278.256 280.424C278.256 280.931 278.389 281.404 278.656 281.844C278.936 282.284 279.436 282.818 280.156 283.444C281.076 284.244 281.709 284.971 282.056 285.624C282.402 286.278 282.576 287.044 282.576 287.924C282.576 289.071 282.289 289.951 281.716 290.564C281.156 291.178 280.336 291.484 279.256 291.484ZM287.017 291.484C285.937 291.484 285.11 291.178 284.537 290.564C283.964 289.951 283.677 289.084 283.677 287.964V280.604C283.677 279.484 283.964 278.618 284.537 278.004C285.11 277.391 285.937 277.084 287.017 277.084C288.097 277.084 288.924 277.391 289.497 278.004C290.07 278.618 290.357 279.484 290.357 280.604V287.964C290.357 289.084 290.07 289.951 289.497 290.564C288.924 291.178 288.097 291.484 287.017 291.484ZM287.017 289.484C287.777 289.484 288.157 289.024 288.157 288.104V280.464C288.157 279.544 287.777 279.084 287.017 279.084C286.257 279.084 285.877 279.544 285.877 280.464V288.104C285.877 289.024 286.257 289.484 287.017 289.484ZM295.045 291.484C293.978 291.484 293.165 291.184 292.605 290.584C292.045 289.971 291.765 289.098 291.765 287.964V277.284H293.965V288.124C293.965 288.604 294.058 288.951 294.245 289.164C294.445 289.378 294.725 289.484 295.085 289.484C295.445 289.484 295.718 289.378 295.905 289.164C296.105 288.951 296.205 288.604 296.205 288.124V277.284H298.325V287.964C298.325 289.098 298.045 289.971 297.485 290.584C296.925 291.184 296.112 291.484 295.045 291.484ZM299.892 277.284H303.152C304.285 277.284 305.112 277.551 305.632 278.084C306.152 278.604 306.412 279.411 306.412 280.504V281.364C306.412 282.818 305.932 283.738 304.972 284.124V284.164C305.505 284.324 305.878 284.651 306.092 285.144C306.318 285.638 306.432 286.298 306.432 287.124V289.584C306.432 289.984 306.445 290.311 306.472 290.564C306.498 290.804 306.565 291.044 306.672 291.284H304.432C304.352 291.058 304.298 290.844 304.272 290.644C304.245 290.444 304.232 290.084 304.232 289.564V287.004C304.232 286.364 304.125 285.918 303.912 285.664C303.712 285.411 303.358 285.284 302.852 285.284H302.092V291.284H299.892V277.284ZM302.892 283.284C303.332 283.284 303.658 283.171 303.872 282.944C304.098 282.718 304.212 282.338 304.212 281.804V280.724C304.212 280.218 304.118 279.851 303.932 279.624C303.758 279.398 303.478 279.284 303.092 279.284H302.092V283.284H302.892ZM311.058 291.484C310.005 291.484 309.198 291.184 308.638 290.584C308.092 289.984 307.818 289.138 307.818 288.044V280.524C307.818 279.431 308.092 278.584 308.638 277.984C309.198 277.384 310.005 277.084 311.058 277.084C312.112 277.084 312.912 277.384 313.458 277.984C314.018 278.584 314.298 279.431 314.298 280.524V282.004H312.218V280.384C312.218 279.518 311.852 279.084 311.118 279.084C310.385 279.084 310.018 279.518 310.018 280.384V288.204C310.018 289.058 310.385 289.484 311.118 289.484C311.852 289.484 312.218 289.058 312.218 288.204V286.064H314.298V288.044C314.298 289.138 314.018 289.984 313.458 290.584C312.912 291.184 312.112 291.484 311.058 291.484ZM315.614 277.284H321.614V279.284H317.814V282.984H320.834V284.984H317.814V289.284H321.614V291.284H315.614V277.284ZM166.954 298.284H164.654V296.284H171.454V298.284H169.154V310.284H166.954V298.284ZM175.621 310.484C174.541 310.484 173.714 310.178 173.141 309.564C172.567 308.951 172.281 308.084 172.281 306.964V299.604C172.281 298.484 172.567 297.618 173.141 297.004C173.714 296.391 174.541 296.084 175.621 296.084C176.701 296.084 177.527 296.391 178.101 297.004C178.674 297.618 178.961 298.484 178.961 299.604V306.964C178.961 308.084 178.674 308.951 178.101 309.564C177.527 310.178 176.701 310.484 175.621 310.484ZM175.621 308.484C176.381 308.484 176.761 308.024 176.761 307.104V299.464C176.761 298.544 176.381 298.084 175.621 298.084C174.861 298.084 174.481 298.544 174.481 299.464V307.104C174.481 308.024 174.861 308.484 175.621 308.484ZM181.051 310.284H180.331V308.164H182.451V310.064L181.351 312.684H180.331L181.051 310.284ZM189.024 298.284H186.724V296.284H193.524V298.284H191.224V310.284H189.024V298.284ZM194.589 296.284H196.789V301.984H199.149V296.284H201.349V310.284H199.149V303.984H196.789V310.284H194.589V296.284ZM202.987 296.284H208.987V298.284H205.187V301.984H208.207V303.984H205.187V308.284H208.987V310.284H202.987V296.284ZM212.273 304.324L209.613 296.284H211.953L213.453 301.424H213.493L214.993 296.284H217.133L214.473 304.324V310.284H212.273V304.324ZM219.039 298.404H218.319V296.284H220.439V298.184L219.219 300.804H218.199L219.039 298.404ZM222.089 296.284H225.349C226.482 296.284 227.309 296.551 227.829 297.084C228.349 297.604 228.609 298.411 228.609 299.504V300.364C228.609 301.818 228.129 302.738 227.169 303.124V303.164C227.702 303.324 228.076 303.651 228.289 304.144C228.516 304.638 228.629 305.298 228.629 306.124V308.584C228.629 308.984 228.642 309.311 228.669 309.564C228.696 309.804 228.762 310.044 228.869 310.284H226.629C226.549 310.058 226.496 309.844 226.469 309.644C226.442 309.444 226.429 309.084 226.429 308.564V306.004C226.429 305.364 226.322 304.918 226.109 304.664C225.909 304.411 225.556 304.284 225.049 304.284H224.289V310.284H222.089V296.284ZM225.089 302.284C225.529 302.284 225.856 302.171 226.069 301.944C226.296 301.718 226.409 301.338 226.409 300.804V299.724C226.409 299.218 226.316 298.851 226.129 298.624C225.956 298.398 225.676 298.284 225.289 298.284H224.289V302.284H225.089ZM230.155 296.284H236.155V298.284H232.355V301.984H235.375V303.984H232.355V308.284H236.155V310.284H230.155V296.284ZM240.624 296.284H242.824V310.284H240.624V296.284ZM244.472 296.284H247.232L249.372 304.664H249.412V296.284H251.372V310.284H249.112L246.472 300.064H246.432V310.284H244.472V296.284ZM254.727 298.284H252.427V296.284H259.227V298.284H256.927V310.284H254.727V298.284ZM260.292 296.284H266.292V298.284H262.492V301.984H265.512V303.984H262.492V308.284H266.292V310.284H260.292V296.284ZM270.678 310.484C269.611 310.484 268.798 310.184 268.238 309.584C267.678 308.971 267.398 308.098 267.398 306.964V299.604C267.398 298.471 267.678 297.604 268.238 297.004C268.798 296.391 269.611 296.084 270.678 296.084C271.744 296.084 272.558 296.391 273.118 297.004C273.678 297.604 273.958 298.471 273.958 299.604V300.804H271.878V299.464C271.878 298.544 271.498 298.084 270.738 298.084C269.978 298.084 269.598 298.544 269.598 299.464V307.124C269.598 308.031 269.978 308.484 270.738 308.484C271.498 308.484 271.878 308.031 271.878 307.124V304.384H270.778V302.384H273.958V306.964C273.958 308.098 273.678 308.971 273.118 309.584C272.558 310.184 271.744 310.484 270.678 310.484ZM275.37 296.284H278.63C279.764 296.284 280.59 296.551 281.11 297.084C281.63 297.604 281.89 298.411 281.89 299.504V300.364C281.89 301.818 281.41 302.738 280.45 303.124V303.164C280.984 303.324 281.357 303.651 281.57 304.144C281.797 304.638 281.91 305.298 281.91 306.124V308.584C281.91 308.984 281.924 309.311 281.95 309.564C281.977 309.804 282.044 310.044 282.15 310.284H279.91C279.83 310.058 279.777 309.844 279.75 309.644C279.724 309.444 279.71 309.084 279.71 308.564V306.004C279.71 305.364 279.604 304.918 279.39 304.664C279.19 304.411 278.837 304.284 278.33 304.284H277.57V310.284H275.37V296.284ZM278.37 302.284C278.81 302.284 279.137 302.171 279.35 301.944C279.577 301.718 279.69 301.338 279.69 300.804V299.724C279.69 299.218 279.597 298.851 279.41 298.624C279.237 298.398 278.957 298.284 278.57 298.284H277.57V302.284H278.37ZM285.137 296.284H288.117L290.397 310.284H288.197L287.797 307.504V307.544H285.297L284.897 310.284H282.857L285.137 296.284ZM287.537 305.644L286.557 298.724H286.517L285.557 305.644H287.537ZM291.464 296.284H293.664V308.284H297.284V310.284H291.464V296.284ZM303.262 298.284H300.962V296.284H307.762V298.284H305.462V310.284H303.262V298.284ZM311.929 310.484C310.849 310.484 310.023 310.178 309.449 309.564C308.876 308.951 308.589 308.084 308.589 306.964V299.604C308.589 298.484 308.876 297.618 309.449 297.004C310.023 296.391 310.849 296.084 311.929 296.084C313.009 296.084 313.836 296.391 314.409 297.004C314.983 297.618 315.269 298.484 315.269 299.604V306.964C315.269 308.084 314.983 308.951 314.409 309.564C313.836 310.178 313.009 310.484 311.929 310.484ZM311.929 308.484C312.689 308.484 313.069 308.024 313.069 307.104V299.464C313.069 298.544 312.689 298.084 311.929 298.084C311.169 298.084 310.789 298.544 310.789 299.464V307.104C310.789 308.024 311.169 308.484 311.929 308.484ZM172.056 329.484C170.976 329.484 170.149 329.178 169.576 328.564C169.003 327.951 168.716 327.084 168.716 325.964V318.604C168.716 317.484 169.003 316.618 169.576 316.004C170.149 315.391 170.976 315.084 172.056 315.084C173.136 315.084 173.963 315.391 174.536 316.004C175.109 316.618 175.396 317.484 175.396 318.604V325.964C175.396 327.084 175.109 327.951 174.536 328.564C173.963 329.178 173.136 329.484 172.056 329.484ZM172.056 327.484C172.816 327.484 173.196 327.024 173.196 326.104V318.464C173.196 317.544 172.816 317.084 172.056 317.084C171.296 317.084 170.916 317.544 170.916 318.464V326.104C170.916 327.024 171.296 327.484 172.056 327.484ZM180.084 329.484C179.017 329.484 178.204 329.184 177.644 328.584C177.084 327.971 176.804 327.098 176.804 325.964V315.284H179.004V326.124C179.004 326.604 179.097 326.951 179.284 327.164C179.484 327.378 179.764 327.484 180.124 327.484C180.484 327.484 180.757 327.378 180.944 327.164C181.144 326.951 181.244 326.604 181.244 326.124V315.284H183.364V325.964C183.364 327.098 183.084 327.971 182.524 328.584C181.964 329.184 181.151 329.484 180.084 329.484ZM184.931 315.284H188.191C189.324 315.284 190.151 315.551 190.671 316.084C191.191 316.604 191.451 317.411 191.451 318.504V319.364C191.451 320.818 190.971 321.738 190.011 322.124V322.164C190.544 322.324 190.917 322.651 191.131 323.144C191.357 323.638 191.471 324.298 191.471 325.124V327.584C191.471 327.984 191.484 328.311 191.511 328.564C191.537 328.804 191.604 329.044 191.711 329.284H189.471C189.391 329.058 189.337 328.844 189.311 328.644C189.284 328.444 189.271 328.084 189.271 327.564V325.004C189.271 324.364 189.164 323.918 188.951 323.664C188.751 323.411 188.397 323.284 187.891 323.284H187.131V329.284H184.931V315.284ZM187.931 321.284C188.371 321.284 188.697 321.171 188.911 320.944C189.137 320.718 189.251 320.338 189.251 319.804V318.724C189.251 318.218 189.157 317.851 188.971 317.624C188.797 317.398 188.517 317.284 188.131 317.284H187.131V321.284H187.931ZM196.2 315.284H199.52C200.654 315.284 201.48 315.551 202 316.084C202.52 316.604 202.78 317.411 202.78 318.504V319.064C202.78 319.784 202.66 320.371 202.42 320.824C202.194 321.278 201.84 321.604 201.36 321.804V321.844C202.454 322.218 203 323.191 203 324.764V325.964C203 327.044 202.714 327.871 202.14 328.444C201.58 329.004 200.754 329.284 199.66 329.284H196.2V315.284ZM199.26 320.984C199.7 320.984 200.027 320.871 200.24 320.644C200.467 320.418 200.58 320.038 200.58 319.504V318.724C200.58 318.218 200.487 317.851 200.3 317.624C200.127 317.398 199.847 317.284 199.46 317.284H198.4V320.984H199.26ZM199.66 327.284C200.047 327.284 200.334 327.184 200.52 326.984C200.707 326.771 200.8 326.411 200.8 325.904V324.684C200.8 324.044 200.687 323.604 200.46 323.364C200.247 323.111 199.887 322.984 199.38 322.984H198.4V327.284H199.66ZM207.486 329.484C206.42 329.484 205.606 329.184 205.046 328.584C204.486 327.971 204.206 327.098 204.206 325.964V315.284H206.406V326.124C206.406 326.604 206.5 326.951 206.686 327.164C206.886 327.378 207.166 327.484 207.526 327.484C207.886 327.484 208.16 327.378 208.346 327.164C208.546 326.951 208.646 326.604 208.646 326.124V315.284H210.766V325.964C210.766 327.098 210.486 327.971 209.926 328.584C209.366 329.184 208.553 329.484 207.486 329.484ZM215.193 329.484C214.127 329.484 213.32 329.184 212.773 328.584C212.227 327.971 211.953 327.098 211.953 325.964V325.164H214.033V326.124C214.033 327.031 214.413 327.484 215.173 327.484C215.547 327.484 215.827 327.378 216.013 327.164C216.213 326.938 216.313 326.578 216.313 326.084C216.313 325.498 216.18 324.984 215.913 324.544C215.647 324.091 215.153 323.551 214.433 322.924C213.527 322.124 212.893 321.404 212.533 320.764C212.173 320.111 211.993 319.378 211.993 318.564C211.993 317.458 212.273 316.604 212.833 316.004C213.393 315.391 214.207 315.084 215.273 315.084C216.327 315.084 217.12 315.391 217.653 316.004C218.2 316.604 218.473 317.471 218.473 318.604V319.184H216.393V318.464C216.393 317.984 216.3 317.638 216.113 317.424C215.927 317.198 215.653 317.084 215.293 317.084C214.56 317.084 214.193 317.531 214.193 318.424C214.193 318.931 214.327 319.404 214.593 319.844C214.873 320.284 215.373 320.818 216.093 321.444C217.013 322.244 217.647 322.971 217.993 323.624C218.34 324.278 218.513 325.044 218.513 325.924C218.513 327.071 218.227 327.951 217.653 328.564C217.093 329.178 216.273 329.484 215.193 329.484ZM219.775 315.284H221.975V329.284H219.775V315.284ZM223.622 315.284H226.382L228.522 323.664H228.562V315.284H230.522V329.284H228.262L225.622 319.064H225.582V329.284H223.622V315.284ZM232.157 315.284H238.157V317.284H234.357V320.984H237.377V322.984H234.357V327.284H238.157V329.284H232.157V315.284ZM242.322 329.484C241.255 329.484 240.449 329.184 239.902 328.584C239.355 327.971 239.082 327.098 239.082 325.964V325.164H241.162V326.124C241.162 327.031 241.542 327.484 242.302 327.484C242.675 327.484 242.955 327.378 243.142 327.164C243.342 326.938 243.442 326.578 243.442 326.084C243.442 325.498 243.309 324.984 243.042 324.544C242.775 324.091 242.282 323.551 241.562 322.924C240.655 322.124 240.022 321.404 239.662 320.764C239.302 320.111 239.122 319.378 239.122 318.564C239.122 317.458 239.402 316.604 239.962 316.004C240.522 315.391 241.335 315.084 242.402 315.084C243.455 315.084 244.249 315.391 244.782 316.004C245.329 316.604 245.602 317.471 245.602 318.604V319.184H243.522V318.464C243.522 317.984 243.429 317.638 243.242 317.424C243.055 317.198 242.782 317.084 242.422 317.084C241.689 317.084 241.322 317.531 241.322 318.424C241.322 318.931 241.455 319.404 241.722 319.844C242.002 320.284 242.502 320.818 243.222 321.444C244.142 322.244 244.775 322.971 245.122 323.624C245.469 324.278 245.642 325.044 245.642 325.924C245.642 327.071 245.355 327.951 244.782 328.564C244.222 329.178 243.402 329.484 242.322 329.484ZM249.763 329.484C248.697 329.484 247.89 329.184 247.343 328.584C246.797 327.971 246.523 327.098 246.523 325.964V325.164H248.603V326.124C248.603 327.031 248.983 327.484 249.743 327.484C250.117 327.484 250.397 327.378 250.583 327.164C250.783 326.938 250.883 326.578 250.883 326.084C250.883 325.498 250.75 324.984 250.483 324.544C250.217 324.091 249.723 323.551 249.003 322.924C248.097 322.124 247.463 321.404 247.103 320.764C246.743 320.111 246.563 319.378 246.563 318.564C246.563 317.458 246.843 316.604 247.403 316.004C247.963 315.391 248.777 315.084 249.843 315.084C250.897 315.084 251.69 315.391 252.223 316.004C252.77 316.604 253.043 317.471 253.043 318.604V319.184H250.963V318.464C250.963 317.984 250.87 317.638 250.683 317.424C250.497 317.198 250.223 317.084 249.863 317.084C249.13 317.084 248.763 317.531 248.763 318.424C248.763 318.931 248.897 319.404 249.163 319.844C249.443 320.284 249.943 320.818 250.663 321.444C251.583 322.244 252.217 322.971 252.563 323.624C252.91 324.278 253.083 325.044 253.083 325.924C253.083 327.071 252.797 327.951 252.223 328.564C251.663 329.178 250.843 329.484 249.763 329.484ZM257.548 315.284H260.308L262.448 323.664H262.488V315.284H264.448V329.284H262.188L259.548 319.064H259.508V329.284H257.548V315.284ZM269.263 329.484C268.183 329.484 267.357 329.178 266.783 328.564C266.21 327.951 265.923 327.084 265.923 325.964V318.604C265.923 317.484 266.21 316.618 266.783 316.004C267.357 315.391 268.183 315.084 269.263 315.084C270.343 315.084 271.17 315.391 271.743 316.004C272.317 316.618 272.603 317.484 272.603 318.604V325.964C272.603 327.084 272.317 327.951 271.743 328.564C271.17 329.178 270.343 329.484 269.263 329.484ZM269.263 327.484C270.023 327.484 270.403 327.024 270.403 326.104V318.464C270.403 317.544 270.023 317.084 269.263 317.084C268.503 317.084 268.123 317.544 268.123 318.464V326.104C268.123 327.024 268.503 327.484 269.263 327.484ZM273.571 315.284H275.691L276.671 326.044H276.711L277.751 315.284H280.151L281.191 326.044H281.231L282.211 315.284H284.111L282.691 329.284H279.951L278.951 319.844H278.911L277.911 329.284H274.991L273.571 315.284ZM290.127 315.284H293.107L295.387 329.284H293.187L292.787 326.504V326.544H290.287L289.887 329.284H287.847L290.127 315.284ZM292.527 324.644L291.547 317.724H291.507L290.547 324.644H292.527ZM296.454 315.284H299.214L301.354 323.664H301.394V315.284H303.354V329.284H301.094L298.454 319.064H298.414V329.284H296.454V315.284ZM304.989 315.284H308.349C309.443 315.284 310.263 315.578 310.809 316.164C311.356 316.751 311.629 317.611 311.629 318.744V325.824C311.629 326.958 311.356 327.818 310.809 328.404C310.263 328.991 309.443 329.284 308.349 329.284H304.989V315.284ZM308.309 327.284C308.669 327.284 308.943 327.178 309.129 326.964C309.329 326.751 309.429 326.404 309.429 325.924V318.644C309.429 318.164 309.329 317.818 309.129 317.604C308.943 317.391 308.669 317.284 308.309 317.284H307.189V327.284H308.309ZM180.185 334.284H183.425C184.518 334.284 185.338 334.578 185.885 335.164C186.431 335.751 186.705 336.611 186.705 337.744V339.124C186.705 340.258 186.431 341.118 185.885 341.704C185.338 342.291 184.518 342.584 183.425 342.584H182.385V348.284H180.185V334.284ZM183.425 340.584C183.785 340.584 184.051 340.484 184.225 340.284C184.411 340.084 184.505 339.744 184.505 339.264V337.604C184.505 337.124 184.411 336.784 184.225 336.584C184.051 336.384 183.785 336.284 183.425 336.284H182.385V340.584H183.425ZM188.896 334.284H191.876L194.156 348.284H191.956L191.556 345.504V345.544H189.056L188.656 348.284H186.616L188.896 334.284ZM191.296 343.644L190.316 336.724H190.276L189.316 343.644H191.296ZM195.224 334.284H198.484C199.617 334.284 200.444 334.551 200.964 335.084C201.484 335.604 201.744 336.411 201.744 337.504V338.364C201.744 339.818 201.264 340.738 200.304 341.124V341.164C200.837 341.324 201.21 341.651 201.424 342.144C201.65 342.638 201.764 343.298 201.764 344.124V346.584C201.764 346.984 201.777 347.311 201.804 347.564C201.83 347.804 201.897 348.044 202.004 348.284H199.764C199.684 348.058 199.63 347.844 199.604 347.644C199.577 347.444 199.564 347.084 199.564 346.564V344.004C199.564 343.364 199.457 342.918 199.244 342.664C199.044 342.411 198.69 342.284 198.184 342.284H197.424V348.284H195.224V334.284ZM198.224 340.284C198.664 340.284 198.99 340.171 199.204 339.944C199.43 339.718 199.544 339.338 199.544 338.804V337.724C199.544 337.218 199.45 336.851 199.264 336.624C199.09 336.398 198.81 336.284 198.424 336.284H197.424V340.284H198.224ZM204.971 336.284H202.671V334.284H209.471V336.284H207.171V348.284H204.971V336.284ZM216.919 348.484C215.839 348.484 215.013 348.178 214.439 347.564C213.866 346.951 213.579 346.084 213.579 344.964V337.604C213.579 336.484 213.866 335.618 214.439 335.004C215.013 334.391 215.839 334.084 216.919 334.084C217.999 334.084 218.826 334.391 219.399 335.004C219.973 335.618 220.259 336.484 220.259 337.604V344.964C220.259 346.084 219.973 346.951 219.399 347.564C218.826 348.178 217.999 348.484 216.919 348.484ZM216.919 346.484C217.679 346.484 218.059 346.024 218.059 345.104V337.464C218.059 336.544 217.679 336.084 216.919 336.084C216.159 336.084 215.779 336.544 215.779 337.464V345.104C215.779 346.024 216.159 346.484 216.919 346.484ZM221.747 334.284H227.567V336.284H223.947V340.184H226.787V342.184H223.947V348.284H221.747V334.284ZM233.545 336.284H231.245V334.284H238.045V336.284H235.745V348.284H233.545V336.284ZM239.111 334.284H241.311V339.984H243.671V334.284H245.871V348.284H243.671V341.984H241.311V348.284H239.111V334.284ZM247.509 334.284H253.509V336.284H249.709V339.984H252.729V341.984H249.709V346.284H253.509V348.284H247.509V334.284ZM259.698 336.284H257.398V334.284H264.198V336.284H261.898V348.284H259.698V336.284ZM265.263 334.284H271.263V336.284H267.463V339.984H270.483V341.984H267.463V346.284H271.263V348.284H265.263V334.284ZM274.228 334.284H277.208L279.488 348.284H277.288L276.888 345.504V345.544H274.388L273.988 348.284H271.948L274.228 334.284ZM276.628 343.644L275.648 336.724H275.608L274.648 343.644H276.628ZM280.556 334.284H283.696L285.096 344.304H285.136L286.536 334.284H289.676V348.284H287.596V337.684H287.556L285.956 348.284H284.116L282.516 337.684H282.476V348.284H280.556V334.284ZM291.318 346.164H293.438V348.284H291.318V346.164ZM295.807 336.404H295.087V334.284H297.207V336.184L295.987 338.804H294.967L295.807 336.404ZM298.767 336.404H298.047V334.284H300.167V336.184L298.947 338.804H297.927L298.767 336.404Z" fill="#FAF5EE"/>
<path d="M179.996 219.2H182.636V227H183.5V219.2H186.152V218.408H179.996V219.2ZM192.489 227V226.208H188.205V223.076H192.081V222.296H188.205V219.2H192.477V218.408H187.341V227H192.489ZM193.728 220.64C193.728 221.816 194.436 222.584 195.78 222.908L197.232 223.268C198.156 223.484 198.588 223.988 198.588 224.756C198.588 225.74 197.784 226.352 196.524 226.352C195.348 226.352 194.556 225.764 194.508 224.864H193.62C193.728 226.268 194.856 227.144 196.524 227.144C198.3 227.144 199.452 226.196 199.452 224.708C199.452 223.544 198.756 222.776 197.412 222.452L195.936 222.092C195.036 221.864 194.592 221.384 194.592 220.628C194.592 219.656 195.384 219.032 196.596 219.032C197.676 219.032 198.336 219.584 198.432 220.556H199.308C199.176 219.116 198.156 218.252 196.608 218.252C194.88 218.252 193.728 219.2 193.728 220.64ZM199.988 219.2H202.628V227H203.492V219.2H206.144V218.408H199.988V219.2ZM208.198 218.408H207.334V227H208.198V218.408ZM211.139 227V222.788C211.139 221.48 211.115 220.532 211.067 220.208L213.863 227H214.691L217.487 220.172C217.439 220.76 217.415 221.42 217.415 222.92V227H218.267V218.408H217.403L214.271 225.98L211.139 218.408H210.287V227H211.139ZM228.009 222.704C228.009 220.088 226.329 218.252 223.917 218.252C221.517 218.252 219.825 220.1 219.825 222.704C219.825 225.308 221.505 227.144 223.917 227.144C226.317 227.144 228.009 225.308 228.009 222.704ZM227.121 222.704C227.121 224.84 225.813 226.316 223.917 226.316C222.021 226.316 220.725 224.852 220.725 222.704C220.725 220.556 222.021 219.092 223.917 219.092C225.813 219.092 227.121 220.556 227.121 222.704ZM230.44 227V219.848L235.18 227H236.032V218.408H235.18V225.56L230.452 218.408H229.576V227H230.44ZM238.995 218.408H238.131V227H238.995V218.408ZM241.084 227L241.924 224.72H245.884L246.724 227H247.624L244.432 218.408H243.364L240.208 227H241.084ZM243.784 219.62C243.832 219.5 243.88 219.344 243.892 219.272C243.904 219.356 243.964 219.5 244 219.62L245.608 223.964H242.188L243.784 219.62ZM249.682 218.408H248.818V227H253.63V226.208H249.682V218.408ZM258.024 227L261.396 218.408H260.556L257.208 227H258.024ZM268.127 227H269.027L272.291 218.408H271.403L269.123 224.372C268.991 224.696 268.775 225.296 268.595 225.92C268.403 225.32 268.235 224.852 268.055 224.384L265.763 218.408H264.839L268.127 227ZM280.767 222.704C280.767 220.088 279.087 218.252 276.675 218.252C274.275 218.252 272.583 220.1 272.583 222.704C272.583 225.308 274.263 227.144 276.675 227.144C279.075 227.144 280.767 225.308 280.767 222.704ZM279.879 222.704C279.879 224.84 278.571 226.316 276.675 226.316C274.779 226.316 273.483 224.852 273.483 222.704C273.483 220.556 274.779 219.092 276.675 219.092C278.571 219.092 279.879 220.556 279.879 222.704ZM283.198 218.408H282.334V227H287.146V226.208H283.198V218.408ZM286.672 219.2H289.312V227H290.176V219.2H292.828V218.408H286.672V219.2ZM293.232 227L294.072 224.72H298.032L298.872 227H299.772L296.58 218.408H295.512L292.356 227H293.232ZM295.932 219.62C295.98 219.5 296.028 219.344 296.04 219.272C296.052 219.356 296.112 219.5 296.148 219.62L297.756 223.964H294.336L295.932 219.62Z" fill="#FAF5EE"/>
</svg>
