<svg width="480" height="549" viewBox="0 0 480 549" fill="none" xmlns="http://www.w3.org/2000/svg">
<rect y="-1" width="480" height="550" fill="#EE6338"/>
<path d="M125.245 281.261V285.399H133.317V293.511H137.455V285.399H145.527V281.261H137.455V273.189H133.317V281.261H125.245ZM175.532 297.487C182.55 297.487 187.985 293.349 189.121 287.102H183.726C182.752 290.388 179.67 292.497 175.654 292.497C170.218 292.497 166.73 288.441 166.73 282.154C166.73 275.825 170.178 271.85 175.654 271.85C179.588 271.85 182.55 273.878 183.564 277.326H189.04C188.026 270.958 182.793 266.861 175.775 266.861C167.095 266.861 161.294 272.986 161.294 282.194C161.294 291.483 166.892 297.487 175.532 297.487ZM198.97 297V285.926H205.338L210.368 297H216.047L210.409 284.831C213.897 283.411 215.763 280.571 215.763 276.596C215.763 270.755 211.828 267.348 205.095 267.348H193.777V297H198.97ZM198.97 271.972H205.095C208.381 271.972 210.328 273.635 210.328 276.596C210.328 279.598 208.381 281.342 205.095 281.342H198.97V271.972ZM239.368 297V292.213H226.144V284.344H237.989V279.76H226.144V272.134H239.368V267.348H220.952V297H239.368ZM247.553 297L249.946 290.145H261.02L263.414 297H268.89L258.181 267.348H252.867L242.158 297H247.553ZM254.855 276.191C255.139 275.379 255.382 274.487 255.504 273.919C255.585 274.527 255.869 275.42 256.112 276.191L259.52 285.764H251.488L254.855 276.191ZM267.358 272.134H276.039V297H281.231V272.134H289.912V267.348H267.358V272.134ZM299.073 267.348H293.881V297H299.073V267.348ZM313.962 297H319.316L330.349 267.348H324.954L318.545 284.425C317.977 285.926 317.369 287.751 316.639 290.347C315.99 287.954 315.422 286.21 314.773 284.425L308.283 267.348H302.766L313.962 297ZM352.465 297V292.213H339.241V284.344H351.086V279.76H339.241V272.134H352.465V267.348H334.049V297H352.465Z" fill="#FAF5EE"/>
</svg>
