<svg width="480" height="550" viewBox="0 0 480 550" fill="none" xmlns="http://www.w3.org/2000/svg">
<rect width="480" height="550" fill="#34D4B0"/>
<path d="M173.189 270.261V274.399H181.261V282.511H185.399V274.399H193.471V270.261H185.399V262.189H181.261V270.261H173.189ZM221.61 286C230.209 286 236.132 279.956 236.132 271.235C236.132 262.392 230.088 256.348 221.326 256.348H210.941V286H221.61ZM220.839 261.134C226.964 261.134 230.655 264.947 230.655 271.235C230.655 277.4 227.045 281.213 221.123 281.213H216.134V261.134H220.839ZM242.058 286L244.451 279.145H255.525L257.919 286H263.395L252.686 256.348H247.372L236.663 286H242.058ZM249.36 265.191C249.644 264.379 249.887 263.487 250.009 262.919C250.09 263.527 250.374 264.42 250.617 265.191L254.025 274.764H245.993L249.36 265.191ZM261.863 261.134H270.544V286H275.736V261.134H284.417V256.348H261.863V261.134ZM288.287 286L290.68 279.145H301.754L304.148 286H309.624L298.915 256.348H293.601L282.892 286H288.287ZM295.589 265.191C295.873 264.379 296.116 263.487 296.238 262.919C296.319 263.527 296.603 264.42 296.846 265.191L300.254 274.764H292.222L295.589 265.191Z" fill="#FAF5EE"/>
</svg>
