<svg width="1137" height="558" viewBox="0 0 1137 558" fill="none" xmlns="http://www.w3.org/2000/svg">
<g style="mix-blend-mode:overlay" opacity="0.2">
<path d="M-3.6 -16H61.2C83.0667 -16 99.4667 -10.1333 110.4 1.59999C121.333 13.3333 126.8 30.5333 126.8 53.2V80.8C126.8 103.467 121.333 120.667 110.4 132.4C99.4667 144.133 83.0667 150 61.2 150H40.4V264H-3.6V-16ZM61.2 110C68.4 110 73.7333 108 77.2 104C80.9333 100 82.8 93.2 82.8 83.6V50.4C82.8 40.8 80.9333 34 77.2 30C73.7333 26 68.4 24 61.2 24H40.4V110H61.2ZM150.697 -16H194.697V224H267.097V264H150.697V-16ZM323.759 -16H383.359L428.959 264H384.959L376.959 208.4V209.2H326.959L318.959 264H278.159L323.759 -16ZM371.759 171.2L352.159 32.8H351.359L332.159 171.2H371.759ZM472.347 144.8L419.147 -16H465.947L495.947 86.8H496.747L526.747 -16H569.547L516.347 144.8V264H472.347V144.8ZM60.4 558C39.0667 558 22.8 552 11.6 540C0.400001 527.733 -5.2 510.267 -5.2 487.6V274H38.8V490.8C38.8 500.4 40.6667 507.333 44.4 511.6C48.4 515.867 54 518 61.2 518C68.4 518 73.8667 515.867 77.6 511.6C81.6 507.333 83.6 500.4 83.6 490.8V274H126V487.6C126 510.267 120.4 527.733 109.2 540C98 552 81.7333 558 60.4 558ZM157.338 274H222.138C244.004 274 260.404 279.867 271.338 291.6C282.271 303.333 287.738 320.533 287.738 343.2V370.8C287.738 393.467 282.271 410.667 271.338 422.4C260.404 434.133 244.004 440 222.138 440H201.338V554H157.338V274ZM222.138 400C229.338 400 234.671 398 238.138 394C241.871 390 243.737 383.2 243.737 373.6V340.4C243.737 330.8 241.871 324 238.138 320C234.671 316 229.338 314 222.138 314H201.338V400H222.138ZM301.234 274H343.634L363.234 489.2H364.034L384.834 274H432.834L453.634 489.2H454.434L474.034 274H512.034L483.634 554H428.834L408.834 365.2H408.034L388.034 554H329.634L301.234 274ZM562.822 274H622.422L668.022 554H624.022L616.022 498.4V499.2H566.022L558.022 554H517.222L562.822 274ZM610.822 461.2L591.222 322.8H590.422L571.222 461.2H610.822ZM689.369 274H754.569C777.235 274 793.769 279.333 804.169 290C814.569 300.4 819.769 316.533 819.769 338.4V355.6C819.769 384.667 810.169 403.067 790.969 410.8V411.6C801.635 414.8 809.102 421.333 813.369 431.2C817.902 441.067 820.169 454.267 820.169 470.8V520C820.169 528 820.435 534.533 820.969 539.6C821.502 544.4 822.835 549.2 824.969 554H780.169C778.569 549.467 777.502 545.2 776.969 541.2C776.435 537.2 776.169 530 776.169 519.6V468.4C776.169 455.6 774.035 446.667 769.769 441.6C765.769 436.533 758.702 434 748.569 434H733.369V554H689.369V274ZM749.369 394C758.169 394 764.702 391.733 768.969 387.2C773.502 382.667 775.769 375.067 775.769 364.4V342.8C775.769 332.667 773.902 325.333 770.169 320.8C766.702 316.267 761.102 314 753.369 314H733.369V394H749.369ZM850.697 274H917.897C939.764 274 956.164 279.867 967.097 291.6C978.03 303.333 983.497 320.533 983.497 343.2V484.8C983.497 507.467 978.03 524.667 967.097 536.4C956.164 548.133 939.764 554 917.897 554H850.697V274ZM917.097 514C924.297 514 929.764 511.867 933.497 507.6C937.497 503.333 939.497 496.4 939.497 486.8V341.2C939.497 331.6 937.497 324.667 933.497 320.4C929.764 316.133 924.297 314 917.097 314H894.697V514H917.097ZM1070.4 558C1049.06 558 1032.93 552 1022 540C1011.06 527.733 1005.6 510.267 1005.6 487.6V471.6H1047.2V490.8C1047.2 508.933 1054.8 518 1070 518C1077.46 518 1083.06 515.867 1086.8 511.6C1090.8 507.067 1092.8 499.867 1092.8 490C1092.8 478.267 1090.13 468 1084.8 459.2C1079.46 450.133 1069.6 439.333 1055.2 426.8C1037.06 410.8 1024.4 396.4 1017.2 383.6C1010 370.533 1006.4 355.867 1006.4 339.6C1006.4 317.467 1012 300.4 1023.2 288.4C1034.4 276.133 1050.66 270 1072 270C1093.06 270 1108.93 276.133 1119.6 288.4C1130.53 300.4 1136 317.733 1136 340.4V352H1094.4V337.6C1094.4 328 1092.53 321.067 1088.8 316.8C1085.06 312.267 1079.6 310 1072.4 310C1057.73 310 1050.4 318.933 1050.4 336.8C1050.4 346.933 1053.06 356.4 1058.4 365.2C1064 374 1074 384.667 1088.4 397.2C1106.8 413.2 1119.46 427.733 1126.4 440.8C1133.33 453.867 1136.8 469.2 1136.8 486.8C1136.8 509.733 1131.06 527.333 1119.6 539.6C1108.4 551.867 1092 558 1070.4 558Z" fill="url(#paint0_linear_2_153)"/>
</g>
<defs>
<linearGradient id="paint0_linear_2_153" x1="577" y1="80.5" x2="577" y2="626.5" gradientUnits="userSpaceOnUse">
<stop stop-color="#FAF5EE"/>
<stop offset="1" stop-color="#FAF5EE" stop-opacity="0"/>
</linearGradient>
</defs>
</svg>