<svg width="37" height="140" viewBox="0 0 37 140" fill="none" xmlns="http://www.w3.org/2000/svg">
<path d="M36.5 131.528C36.5 134.194 35.75 136.211 34.25 137.578C32.7167 138.944 30.5333 139.628 27.7 139.628L25.7 139.628L25.7 134.428L28.1 134.428C30.3667 134.428 31.5 133.478 31.5 131.578C31.5 130.644 31.2333 129.944 30.7 129.478C30.1333 128.978 29.2333 128.728 28 128.728C26.5333 128.728 25.25 129.061 24.15 129.728C23.0167 130.394 21.6667 131.628 20.1 133.428C18.1 135.694 16.3 137.278 14.7 138.178C13.0667 139.078 11.2333 139.528 9.19999 139.528C6.43333 139.528 4.29999 138.828 2.79999 137.428C1.26666 136.028 0.499992 133.994 0.499992 131.328C0.499992 128.694 1.26666 126.711 2.79999 125.378C4.29999 124.011 6.46666 123.328 9.29999 123.328L10.75 123.328L10.75 128.528L8.94999 128.528C7.74999 128.528 6.88333 128.761 6.34999 129.228C5.78333 129.694 5.49999 130.378 5.49999 131.278C5.49999 133.111 6.61666 134.028 8.84999 134.028C10.1167 134.028 11.3 133.694 12.4 133.028C13.5 132.328 14.8333 131.078 16.4 129.278C18.4 126.978 20.2167 125.394 21.85 124.528C23.4833 123.661 25.4 123.228 27.6 123.228C30.4667 123.228 32.6667 123.944 34.2 125.378C35.7333 126.778 36.5 128.828 36.5 131.528ZM0.999991 120.074L0.99999 105.074L5.99999 105.074L5.99999 114.574L15.25 114.574L15.25 107.024L20.25 107.024L20.25 114.574L31 114.574L31 105.074L36 105.074L36 120.074L0.999991 120.074ZM0.99999 101.91L0.99999 93.76C0.99999 90.9266 1.66666 88.86 2.99999 87.56C4.29999 86.26 6.31666 85.61 9.04999 85.61L11.2 85.61C14.8333 85.61 17.1333 86.81 18.1 89.21L18.2 89.21C18.6 87.8766 19.4167 86.9433 20.65 86.41C21.8833 85.8433 23.5333 85.56 25.6 85.56L31.75 85.56C32.75 85.56 33.5667 85.5266 34.2 85.46C34.8 85.3933 35.4 85.2266 36 84.96L36 90.56C35.4333 90.76 34.9 90.8933 34.4 90.96C33.9 91.0266 33 91.06 31.7 91.06L25.3 91.06C23.7 91.06 22.5833 91.3266 21.95 91.86C21.3167 92.36 21 93.2433 21 94.51L21 96.41L36 96.41L36 101.91L0.99999 101.91ZM16 94.41C16 93.31 15.7167 92.4933 15.15 91.96C14.5833 91.3933 13.6333 91.11 12.3 91.11L9.59999 91.11C8.33332 91.11 7.41666 91.3433 6.84999 91.81C6.28332 92.2433 5.99999 92.9433 5.99999 93.91L5.99999 96.41L16 96.41L16 94.41ZM0.99999 83.3893L0.999989 77.8393L28.15 74.2393L28.15 74.1393L0.999989 70.5393L0.999989 65.4893L36 70.7893L36 78.0893L0.99999 83.3893ZM0.999989 62.8475L0.999988 57.3475L36 57.3475L36 62.8475L0.999989 62.8475ZM36.5 45.4783C36.5 48.1117 35.75 50.1283 34.25 51.5283C32.75 52.895 30.6333 53.5783 27.9 53.5783L9.09999 53.5783C6.36666 53.5783 4.24999 52.895 2.74999 51.5283C1.24999 50.1283 0.499988 48.1117 0.499988 45.4783C0.499988 42.845 1.24999 40.845 2.74999 39.4783C4.24999 38.0783 6.36666 37.3783 9.09999 37.3783L12.8 37.3783L12.8 42.5783L8.74999 42.5783C6.58332 42.5783 5.49999 43.495 5.49999 45.3283C5.49999 47.1617 6.58332 48.0783 8.74999 48.0783L28.3 48.0783C30.4333 48.0783 31.5 47.1617 31.5 45.3283C31.5 43.495 30.4333 42.5783 28.3 42.5783L22.95 42.5783L22.95 37.3783L27.9 37.3783C30.6333 37.3783 32.75 38.0783 34.25 39.4783C35.75 40.845 36.5 42.845 36.5 45.4783ZM0.999987 34.0877L0.999987 19.0877L5.99999 19.0877L5.99999 28.5877L15.25 28.5877L15.25 21.0377L20.25 21.0377L20.25 28.5877L31 28.5877L31 19.0877L36 19.0877L36 34.0877L0.999987 34.0877ZM36.5 8.67597C36.5 11.3426 35.75 13.3593 34.25 14.726C32.7167 16.0926 30.5333 16.776 27.7 16.776L25.7 16.776L25.7 11.576L28.1 11.576C30.3667 11.576 31.5 10.626 31.5 8.72597C31.5 7.79264 31.2333 7.09264 30.7 6.62597C30.1333 6.12597 29.2333 5.87597 28 5.87597C26.5333 5.87597 25.25 6.20931 24.15 6.87597C23.0167 7.54264 21.6667 8.77598 20.1 10.576C18.1 12.8426 16.3 14.426 14.7 15.326C13.0667 16.226 11.2333 16.676 9.19999 16.676C6.43332 16.676 4.29999 15.976 2.79999 14.576C1.26665 13.176 0.499987 11.1426 0.499987 8.47598C0.499987 5.84264 1.26665 3.85931 2.79999 2.52598C4.29999 1.15931 6.46665 0.475975 9.29999 0.475975L10.75 0.475975L10.75 5.67598L8.94999 5.67598C7.74999 5.67598 6.88332 5.90931 6.34999 6.37598C5.78332 6.84264 5.49999 7.52598 5.49999 8.42598C5.49999 10.2593 6.61665 11.176 8.84999 11.176C10.1167 11.176 11.3 10.8426 12.4 10.176C13.5 9.47598 14.8333 8.22598 16.4 6.42598C18.4 4.12598 20.2167 2.54264 21.85 1.67598C23.4833 0.809308 25.4 0.375974 27.6 0.375974C30.4667 0.375974 32.6667 1.09264 34.2 2.52597C35.7333 3.92597 36.5 5.97597 36.5 8.67597Z" fill="#504DE6"/>
</svg>
