<svg width="37" height="1523" viewBox="0 0 37 1523" fill="none" xmlns="http://www.w3.org/2000/svg">
<path d="M36.5 1514.3C36.5 1516.97 35.75 1518.99 34.25 1520.35C32.7167 1521.72 30.5333 1522.4 27.7 1522.4L25.7 1522.4L25.7 1517.2L28.1 1517.2C30.3667 1517.2 31.5 1516.25 31.5 1514.35C31.5 1513.42 31.2333 1512.72 30.7 1512.25C30.1333 1511.75 29.2333 1511.5 28 1511.5C26.5333 1511.5 25.25 1511.84 24.15 1512.5C23.0167 1513.17 21.6667 1514.4 20.1 1516.2C18.1 1518.47 16.3 1520.05 14.7 1520.95C13.0667 1521.85 11.2333 1522.3 9.2 1522.3C6.43333 1522.3 4.3 1521.6 2.8 1520.2C1.26666 1518.8 0.499996 1516.77 0.499996 1514.1C0.499995 1511.47 1.26666 1509.49 2.8 1508.15C4.3 1506.79 6.46666 1506.1 9.3 1506.1L10.75 1506.1L10.75 1511.3L8.95 1511.3C7.75 1511.3 6.88333 1511.54 6.34999 1512C5.78333 1512.47 5.5 1513.15 5.5 1514.05C5.5 1515.89 6.61666 1516.8 8.85 1516.8C10.1167 1516.8 11.3 1516.47 12.4 1515.8C13.5 1515.1 14.8333 1513.85 16.4 1512.05C18.4 1509.75 20.2167 1508.17 21.85 1507.3C23.4833 1506.44 25.4 1506 27.6 1506C30.4667 1506 32.6667 1506.72 34.2 1508.15C35.7333 1509.55 36.5 1511.6 36.5 1514.3ZM0.999995 1502.85L0.999994 1487.85L6 1487.85L6 1497.35L15.25 1497.35L15.25 1489.8L20.25 1489.8L20.25 1497.35L31 1497.35L31 1487.85L36 1487.85L36 1502.85L0.999995 1502.85ZM0.999994 1484.69L0.999993 1476.54C0.999993 1473.7 1.66666 1471.64 2.99999 1470.34C4.29999 1469.04 6.31666 1468.39 9.04999 1468.39L11.2 1468.39C14.8333 1468.39 17.1333 1469.59 18.1 1471.99L18.2 1471.99C18.6 1470.65 19.4167 1469.72 20.65 1469.19C21.8833 1468.62 23.5333 1468.34 25.6 1468.34L31.75 1468.34C32.75 1468.34 33.5667 1468.3 34.2 1468.24C34.8 1468.17 35.4 1468 36 1467.74L36 1473.34C35.4333 1473.54 34.9 1473.67 34.4 1473.74C33.9 1473.8 33 1473.84 31.7 1473.84L25.3 1473.84C23.7 1473.84 22.5833 1474.1 21.95 1474.64C21.3167 1475.14 21 1476.02 21 1477.29L21 1479.19L36 1479.19L36 1484.69L0.999994 1484.69ZM16 1477.19C16 1476.09 15.7167 1475.27 15.15 1474.74C14.5833 1474.17 13.6333 1473.89 12.3 1473.89L9.6 1473.89C8.33333 1473.89 7.41666 1474.12 6.85 1474.59C6.28333 1475.02 5.99999 1475.72 5.99999 1476.69L5.99999 1479.19L16 1479.19L16 1477.19ZM0.999993 1466.17L0.999993 1460.62L28.15 1457.02L28.15 1456.92L0.999992 1453.32L0.999992 1448.27L36 1453.57L36 1460.87L0.999993 1466.17ZM0.999992 1445.62L0.999992 1440.12L36 1440.12L36 1445.62L0.999992 1445.62ZM36.5 1428.25C36.5 1430.89 35.75 1432.9 34.25 1434.3C32.75 1435.67 30.6333 1436.35 27.9 1436.35L9.09999 1436.35C6.36666 1436.35 4.24999 1435.67 2.74999 1434.3C1.24999 1432.9 0.499992 1430.89 0.499992 1428.25C0.499992 1425.62 1.24999 1423.62 2.74999 1422.25C4.24999 1420.85 6.36666 1420.15 9.09999 1420.15L12.8 1420.15L12.8 1425.35L8.74999 1425.35C6.58333 1425.35 5.49999 1426.27 5.49999 1428.1C5.49999 1429.94 6.58333 1430.85 8.74999 1430.85L28.3 1430.85C30.4333 1430.85 31.5 1429.94 31.5 1428.1C31.5 1426.27 30.4333 1425.35 28.3 1425.35L22.95 1425.35L22.95 1420.15L27.9 1420.15C30.6333 1420.15 32.75 1420.85 34.25 1422.25C35.75 1423.62 36.5 1425.62 36.5 1428.25ZM0.999991 1416.86L0.99999 1401.86L5.99999 1401.86L5.99999 1411.36L15.25 1411.36L15.25 1403.81L20.25 1403.81L20.25 1411.36L31 1411.36L31 1401.86L36 1401.86L36 1416.86L0.999991 1416.86ZM36.5 1391.45C36.5 1394.12 35.75 1396.14 34.25 1397.5C32.7167 1398.87 30.5333 1399.55 27.7 1399.55L25.7 1399.55L25.7 1394.35L28.1 1394.35C30.3667 1394.35 31.5 1393.4 31.5 1391.5C31.5 1390.57 31.2333 1389.87 30.7 1389.4C30.1333 1388.9 29.2333 1388.65 28 1388.65C26.5333 1388.65 25.25 1388.99 24.15 1389.65C23.0167 1390.32 21.6667 1391.55 20.1 1393.35C18.1 1395.62 16.3 1397.2 14.7 1398.1C13.0667 1399 11.2333 1399.45 9.19999 1399.45C6.43333 1399.45 4.29999 1398.75 2.79999 1397.35C1.26666 1395.95 0.49999 1393.92 0.49999 1391.25C0.49999 1388.62 1.26666 1386.64 2.79999 1385.3C4.29999 1383.94 6.46666 1383.25 9.29999 1383.25L10.75 1383.25L10.75 1388.45L8.94999 1388.45C7.74999 1388.45 6.88332 1388.69 6.34999 1389.15C5.78332 1389.62 5.49999 1390.3 5.49999 1391.2C5.49999 1393.04 6.61666 1393.95 8.84999 1393.95C10.1167 1393.95 11.3 1393.62 12.4 1392.95C13.5 1392.25 14.8333 1391 16.4 1389.2C18.4 1386.9 20.2167 1385.32 21.85 1384.45C23.4833 1383.59 25.4 1383.15 27.6 1383.15C30.4667 1383.15 32.6667 1383.87 34.2 1385.3C35.7333 1386.7 36.5 1388.75 36.5 1391.45ZM36.5 1316.79C36.5 1319.46 35.75 1321.48 34.25 1322.84C32.7167 1324.21 30.5333 1324.89 27.7 1324.89L25.7 1324.89L25.7 1319.69L28.1 1319.69C30.3667 1319.69 31.5 1318.74 31.5 1316.84C31.5 1315.91 31.2333 1315.21 30.7 1314.74C30.1333 1314.24 29.2333 1313.99 28 1313.99C26.5333 1313.99 25.25 1314.33 24.15 1314.99C23.0167 1315.66 21.6667 1316.89 20.1 1318.69C18.1 1320.96 16.3 1322.54 14.7 1323.44C13.0667 1324.34 11.2333 1324.79 9.19999 1324.79C6.43332 1324.79 4.29999 1324.09 2.79999 1322.69C1.26665 1321.29 0.499987 1319.26 0.499987 1316.59C0.499987 1313.96 1.26665 1311.98 2.79999 1310.64C4.29999 1309.28 6.46665 1308.59 9.29999 1308.59L10.75 1308.59L10.75 1313.79L8.94999 1313.79C7.74999 1313.79 6.88332 1314.03 6.34999 1314.49C5.78332 1314.96 5.49999 1315.64 5.49999 1316.54C5.49999 1318.38 6.61665 1319.29 8.84999 1319.29C10.1167 1319.29 11.3 1318.96 12.4 1318.29C13.5 1317.59 14.8333 1316.34 16.4 1314.54C18.4 1312.24 20.2167 1310.66 21.85 1309.79C23.4833 1308.93 25.4 1308.49 27.6 1308.49C30.4667 1308.49 32.6667 1309.21 34.2 1310.64C35.7333 1312.04 36.5 1314.09 36.5 1316.79ZM0.999986 1305.34L0.999985 1290.34L5.99999 1290.34L5.99999 1299.84L15.25 1299.84L15.25 1292.29L20.25 1292.29L20.25 1299.84L31 1299.84L31 1290.34L36 1290.34L36 1305.34L0.999986 1305.34ZM0.999985 1287.18L0.999985 1279.03C0.999985 1276.19 1.66665 1274.13 2.99999 1272.83C4.29998 1271.53 6.31665 1270.88 9.04999 1270.88L11.2 1270.88C14.8333 1270.88 17.1333 1272.08 18.1 1274.48L18.2 1274.48C18.6 1273.14 19.4167 1272.21 20.65 1271.68C21.8833 1271.11 23.5333 1270.83 25.6 1270.83L31.75 1270.83C32.75 1270.83 33.5667 1270.79 34.2 1270.73C34.8 1270.66 35.4 1270.49 36 1270.23L36 1275.83C35.4333 1276.03 34.9 1276.16 34.4 1276.23C33.9 1276.29 33 1276.33 31.7 1276.33L25.3 1276.33C23.7 1276.33 22.5833 1276.59 21.95 1277.13C21.3167 1277.63 21 1278.51 21 1279.78L21 1281.68L36 1281.68L36 1287.18L0.999985 1287.18ZM16 1279.68C16 1278.58 15.7167 1277.76 15.15 1277.23C14.5833 1276.66 13.6333 1276.38 12.3 1276.38L9.59999 1276.38C8.33332 1276.38 7.41665 1276.61 6.84999 1277.08C6.28332 1277.51 5.99999 1278.21 5.99999 1279.18L5.99999 1281.68L16 1281.68L16 1279.68ZM0.999984 1268.66L0.999984 1263.11L28.15 1259.51L28.15 1259.41L0.999984 1255.81L0.999984 1250.76L36 1256.06L36 1263.36L0.999984 1268.66ZM0.999984 1248.11L0.999983 1242.61L36 1242.61L36 1248.11L0.999984 1248.11ZM36.5 1230.74C36.5 1233.38 35.75 1235.39 34.25 1236.79C32.75 1238.16 30.6333 1238.84 27.9 1238.84L9.09998 1238.84C6.36665 1238.84 4.24998 1238.16 2.74998 1236.79C1.24998 1235.39 0.499983 1233.38 0.499983 1230.74C0.499983 1228.11 1.24998 1226.11 2.74998 1224.74C4.24998 1223.34 6.36665 1222.64 9.09998 1222.64L12.8 1222.64L12.8 1227.84L8.74998 1227.84C6.58332 1227.84 5.49998 1228.76 5.49998 1230.59C5.49998 1232.43 6.58332 1233.34 8.74998 1233.34L28.3 1233.34C30.4333 1233.34 31.5 1232.43 31.5 1230.59C31.5 1228.76 30.4333 1227.84 28.3 1227.84L22.95 1227.84L22.95 1222.64L27.9 1222.64C30.6333 1222.64 32.75 1223.34 34.25 1224.74C35.75 1226.11 36.5 1228.11 36.5 1230.74ZM0.999982 1219.35L0.999982 1204.35L5.99998 1204.35L5.99998 1213.85L15.25 1213.85L15.25 1206.3L20.25 1206.3L20.25 1213.85L31 1213.85L31 1204.35L36 1204.35L36 1219.35L0.999982 1219.35ZM36.5 1193.94C36.5 1196.61 35.75 1198.63 34.25 1199.99C32.7167 1201.36 30.5333 1202.04 27.7 1202.04L25.7 1202.04L25.7 1196.84L28.1 1196.84C30.3667 1196.84 31.5 1195.89 31.5 1193.99C31.5 1193.06 31.2333 1192.36 30.7 1191.89C30.1333 1191.39 29.2333 1191.14 28 1191.14C26.5333 1191.14 25.25 1191.48 24.15 1192.14C23.0166 1192.81 21.6666 1194.04 20.1 1195.84C18.1 1198.11 16.3 1199.69 14.7 1200.59C13.0666 1201.49 11.2333 1201.94 9.19998 1201.94C6.43332 1201.94 4.29998 1201.24 2.79998 1199.84C1.26665 1198.44 0.499982 1196.41 0.499982 1193.74C0.499981 1191.11 1.26665 1189.13 2.79998 1187.79C4.29998 1186.43 6.46665 1185.74 9.29998 1185.74L10.75 1185.74L10.75 1190.94L8.94998 1190.94C7.74998 1190.94 6.88332 1191.18 6.34998 1191.64C5.78332 1192.11 5.49998 1192.79 5.49998 1193.69C5.49998 1195.53 6.61665 1196.44 8.84998 1196.44C10.1166 1196.44 11.3 1196.11 12.4 1195.44C13.5 1194.74 14.8333 1193.49 16.4 1191.69C18.4 1189.39 20.2166 1187.81 21.85 1186.94C23.4833 1186.08 25.4 1185.64 27.6 1185.64C30.4666 1185.64 32.6666 1186.36 34.2 1187.79C35.7333 1189.19 36.5 1191.24 36.5 1193.94ZM36.5 1119.28C36.5 1121.95 35.75 1123.97 34.25 1125.33C32.7166 1126.7 30.5333 1127.38 27.7 1127.38L25.7 1127.38L25.7 1122.18L28.1 1122.18C30.3666 1122.18 31.5 1121.23 31.5 1119.33C31.5 1118.4 31.2333 1117.7 30.7 1117.23C30.1333 1116.73 29.2333 1116.48 28 1116.48C26.5333 1116.48 25.25 1116.82 24.15 1117.48C23.0166 1118.15 21.6666 1119.38 20.1 1121.18C18.1 1123.45 16.3 1125.03 14.7 1125.93C13.0666 1126.83 11.2333 1127.28 9.19998 1127.28C6.43331 1127.28 4.29998 1126.58 2.79998 1125.18C1.26665 1123.78 0.499978 1121.75 0.499978 1119.08C0.499978 1116.45 1.26664 1114.47 2.79998 1113.13C4.29998 1111.77 6.46665 1111.08 9.29998 1111.08L10.75 1111.08L10.75 1116.28L8.94998 1116.28C7.74998 1116.28 6.88331 1116.52 6.34998 1116.98C5.78331 1117.45 5.49998 1118.13 5.49998 1119.03C5.49998 1120.87 6.61665 1121.78 8.84998 1121.78C10.1166 1121.78 11.3 1121.45 12.4 1120.78C13.5 1120.08 14.8333 1118.83 16.4 1117.03C18.4 1114.73 20.2166 1113.15 21.85 1112.28C23.4833 1111.42 25.4 1110.98 27.6 1110.98C30.4666 1110.98 32.6666 1111.7 34.2 1113.13C35.7333 1114.53 36.5 1116.58 36.5 1119.28ZM0.999977 1107.83L0.999977 1092.83L5.99998 1092.83L5.99998 1102.33L15.25 1102.33L15.25 1094.78L20.25 1094.78L20.25 1102.33L31 1102.33L31 1092.83L36 1092.83L36 1107.83L0.999977 1107.83ZM0.999977 1089.67L0.999976 1081.52C0.999976 1078.68 1.66664 1076.62 2.99998 1075.32C4.29998 1074.02 6.31664 1073.37 9.04998 1073.37L11.2 1073.37C14.8333 1073.37 17.1333 1074.57 18.1 1076.97L18.2 1076.97C18.6 1075.63 19.4166 1074.7 20.65 1074.17C21.8833 1073.6 23.5333 1073.32 25.6 1073.32L31.75 1073.32C32.75 1073.32 33.5666 1073.28 34.2 1073.22C34.8 1073.15 35.4 1072.98 36 1072.72L36 1078.32C35.4333 1078.52 34.9 1078.65 34.4 1078.72C33.9 1078.78 33 1078.82 31.7 1078.82L25.3 1078.82C23.7 1078.82 22.5833 1079.08 21.95 1079.62C21.3166 1080.12 21 1081 21 1082.27L21 1084.17L36 1084.17L36 1089.67L0.999977 1089.67ZM16 1082.17C16 1081.07 15.7166 1080.25 15.15 1079.72C14.5833 1079.15 13.6333 1078.87 12.3 1078.87L9.59998 1078.87C8.33331 1078.87 7.41664 1079.1 6.84998 1079.57C6.28331 1080 5.99998 1080.7 5.99998 1081.67L5.99998 1084.17L16 1084.17L16 1082.17ZM0.999976 1071.15L0.999976 1065.6L28.15 1062L28.15 1061.9L0.999975 1058.3L0.999975 1053.25L36 1058.55L36 1065.85L0.999976 1071.15ZM0.999975 1050.6L0.999975 1045.1L36 1045.1L36 1050.6L0.999975 1050.6ZM36.5 1033.24C36.5 1035.87 35.75 1037.89 34.25 1039.29C32.75 1040.65 30.6333 1041.34 27.9 1041.34L9.09997 1041.34C6.36664 1041.34 4.24998 1040.65 2.74998 1039.29C1.24998 1037.89 0.499975 1035.87 0.499975 1033.24C0.499974 1030.6 1.24997 1028.6 2.74998 1027.24C4.24998 1025.84 6.36664 1025.14 9.09997 1025.14L12.8 1025.14L12.8 1030.34L8.74998 1030.34C6.58331 1030.34 5.49998 1031.25 5.49998 1033.09C5.49998 1034.92 6.58331 1035.84 8.74998 1035.84L28.3 1035.84C30.4333 1035.84 31.5 1034.92 31.5 1033.09C31.5 1031.25 30.4333 1030.34 28.3 1030.34L22.95 1030.34L22.95 1025.14L27.9 1025.14C30.6333 1025.14 32.75 1025.84 34.25 1027.24C35.75 1028.6 36.5 1030.6 36.5 1033.24ZM0.999974 1021.84L0.999973 1006.84L5.99997 1006.84L5.99997 1016.34L15.25 1016.34L15.25 1008.79L20.25 1008.79L20.25 1016.34L31 1016.34L31 1006.84L36 1006.84L36 1021.84L0.999974 1021.84ZM36.5 996.433C36.5 999.099 35.75 1001.12 34.25 1002.48C32.7166 1003.85 30.5333 1004.53 27.7 1004.53L25.7 1004.53L25.7 999.333L28.1 999.333C30.3666 999.333 31.5 998.383 31.5 996.483C31.5 995.549 31.2333 994.849 30.7 994.383C30.1333 993.883 29.2333 993.633 28 993.633C26.5333 993.633 25.25 993.966 24.15 994.633C23.0166 995.299 21.6666 996.533 20.1 998.333C18.1 1000.6 16.3 1002.18 14.7 1003.08C13.0666 1003.98 11.2333 1004.43 9.19997 1004.43C6.43331 1004.43 4.29997 1003.73 2.79997 1002.33C1.26664 1000.93 0.499973 998.899 0.499973 996.233C0.499973 993.599 1.26664 991.616 2.79997 990.283C4.29997 988.916 6.46664 988.233 9.29997 988.233L10.75 988.233L10.75 993.433L8.94997 993.433C7.74997 993.433 6.88331 993.666 6.34997 994.133C5.78331 994.599 5.49997 995.283 5.49997 996.183C5.49997 998.016 6.61664 998.933 8.84997 998.933C10.1166 998.933 11.3 998.599 12.4 997.933C13.5 997.233 14.8333 995.983 16.4 994.183C18.4 991.883 20.2166 990.299 21.85 989.433C23.4833 988.566 25.4 988.133 27.6 988.133C30.4666 988.133 32.6666 988.849 34.2 990.283C35.7333 991.683 36.5 993.733 36.5 996.433ZM36.5 921.775C36.5 924.441 35.75 926.458 34.25 927.825C32.7166 929.191 30.5333 929.875 27.7 929.875L25.7 929.875L25.7 924.675L28.1 924.675C30.3666 924.675 31.5 923.725 31.5 921.825C31.5 920.891 31.2333 920.191 30.7 919.725C30.1333 919.225 29.2333 918.975 28 918.975C26.5333 918.975 25.25 919.308 24.15 919.975C23.0166 920.641 21.6666 921.875 20.1 923.675C18.1 925.941 16.3 927.525 14.7 928.425C13.0666 929.325 11.2333 929.775 9.19997 929.775C6.4333 929.775 4.29997 929.075 2.79997 927.675C1.26664 926.275 0.49997 924.241 0.49997 921.575C0.49997 918.941 1.26664 916.958 2.79997 915.625C4.29997 914.258 6.46664 913.575 9.29997 913.575L10.75 913.575L10.75 918.775L8.94997 918.775C7.74997 918.775 6.8833 919.008 6.34997 919.475C5.7833 919.941 5.49997 920.625 5.49997 921.525C5.49997 923.358 6.61664 924.275 8.84997 924.275C10.1166 924.275 11.3 923.941 12.4 923.275C13.5 922.575 14.8333 921.325 16.4 919.525C18.4 917.225 20.2166 915.641 21.85 914.775C23.4833 913.908 25.4 913.475 27.6 913.475C30.4666 913.475 32.6666 914.191 34.2 915.625C35.7333 917.025 36.5 919.075 36.5 921.775ZM0.999969 910.321L0.999968 895.321L5.99997 895.321L5.99997 904.821L15.25 904.821L15.25 897.271L20.25 897.271L20.25 904.821L31 904.821L31 895.321L36 895.321L36 910.321L0.999969 910.321ZM0.999968 892.157L0.999968 884.007C0.999967 881.174 1.66663 879.107 2.99997 877.807C4.29997 876.507 6.31663 875.857 9.04997 875.857L11.2 875.857C14.8333 875.857 17.1333 877.057 18.1 879.457L18.2 879.457C18.6 878.124 19.4166 877.19 20.65 876.657C21.8833 876.09 23.5333 875.807 25.6 875.807L31.75 875.807C32.75 875.807 33.5666 875.774 34.2 875.707C34.8 875.64 35.4 875.474 36 875.207L36 880.807C35.4333 881.007 34.9 881.14 34.4 881.207C33.9 881.274 33 881.307 31.7 881.307L25.3 881.307C23.7 881.307 22.5833 881.574 21.95 882.107C21.3166 882.607 21 883.49 21 884.757L21 886.657L36 886.657L36 892.157L0.999968 892.157ZM16 884.657C16 883.557 15.7166 882.74 15.15 882.207C14.5833 881.64 13.6333 881.357 12.3 881.357L9.59997 881.357C8.3333 881.357 7.41663 881.59 6.84997 882.057C6.2833 882.49 5.99997 883.19 5.99997 884.157L5.99997 886.657L16 886.657L16 884.657ZM0.999967 873.636L0.999967 868.086L28.15 864.486L28.15 864.386L0.999967 860.786L0.999966 855.736L36 861.036L36 868.336L0.999967 873.636ZM0.999966 853.095L0.999966 847.595L36 847.595L36 853.095L0.999966 853.095ZM36.5 835.725C36.5 838.359 35.75 840.375 34.25 841.775C32.75 843.142 30.6333 843.825 27.9 843.825L9.09997 843.825C6.36663 843.825 4.24997 843.142 2.74997 841.775C1.24997 840.375 0.499966 838.359 0.499966 835.725C0.499966 833.092 1.24997 831.092 2.74997 829.725C4.24997 828.325 6.36663 827.625 9.09997 827.625L12.8 827.625L12.8 832.825L8.74997 832.825C6.5833 832.825 5.49997 833.742 5.49997 835.575C5.49997 837.409 6.5833 838.325 8.74997 838.325L28.3 838.325C30.4333 838.325 31.5 837.409 31.5 835.575C31.5 833.742 30.4333 832.825 28.3 832.825L22.95 832.825L22.95 827.625L27.9 827.625C30.6333 827.625 32.75 828.325 34.25 829.725C35.75 831.092 36.5 833.092 36.5 835.725ZM0.999965 824.335L0.999964 809.335L5.99997 809.335L5.99997 818.835L15.25 818.835L15.25 811.285L20.25 811.285L20.25 818.835L31 818.835L31 809.335L36 809.335L36 824.335L0.999965 824.335ZM36.5 798.923C36.5 801.59 35.75 803.606 34.25 804.973C32.7166 806.34 30.5333 807.023 27.7 807.023L25.7 807.023L25.7 801.823L28.1 801.823C30.3666 801.823 31.5 800.873 31.5 798.973C31.5 798.04 31.2333 797.34 30.7 796.873C30.1333 796.373 29.2333 796.123 28 796.123C26.5333 796.123 25.25 796.456 24.15 797.123C23.0166 797.79 21.6666 799.023 20.1 800.823C18.1 803.09 16.3 804.673 14.7 805.573C13.0666 806.473 11.2333 806.923 9.19997 806.923C6.4333 806.923 4.29997 806.223 2.79996 804.823C1.26663 803.423 0.499964 801.39 0.499964 798.723C0.499964 796.09 1.26663 794.106 2.79996 792.773C4.29996 791.406 6.46663 790.723 9.29996 790.723L10.75 790.723L10.75 795.923L8.94997 795.923C7.74997 795.923 6.8833 796.156 6.34996 796.623C5.7833 797.09 5.49997 797.773 5.49997 798.673C5.49997 800.506 6.61663 801.423 8.84996 801.423C10.1166 801.423 11.3 801.09 12.4 800.423C13.5 799.723 14.8333 798.473 16.4 796.673C18.4 794.373 20.2166 792.79 21.85 791.923C23.4833 791.056 25.4 790.623 27.6 790.623C30.4666 790.623 32.6666 791.34 34.2 792.773C35.7333 794.173 36.5 796.223 36.5 798.923ZM36.5 724.265C36.5 726.932 35.75 728.948 34.25 730.315C32.7166 731.682 30.5333 732.365 27.7 732.365L25.7 732.365L25.7 727.165L28.1 727.165C30.3666 727.165 31.5 726.215 31.5 724.315C31.5 723.382 31.2333 722.682 30.7 722.215C30.1333 721.715 29.2333 721.465 28 721.465C26.5333 721.465 25.25 721.798 24.15 722.465C23.0166 723.132 21.6666 724.365 20.1 726.165C18.1 728.432 16.3 730.015 14.7 730.915C13.0666 731.815 11.2333 732.265 9.19996 732.265C6.4333 732.265 4.29996 731.565 2.79996 730.165C1.26663 728.765 0.499961 726.732 0.499961 724.065C0.499961 721.432 1.26663 719.448 2.79996 718.115C4.29996 716.748 6.46663 716.065 9.29996 716.065L10.75 716.065L10.75 721.265L8.94996 721.265C7.74996 721.265 6.88329 721.498 6.34996 721.965C5.78329 722.432 5.49996 723.115 5.49996 724.015C5.49996 725.848 6.61663 726.765 8.84996 726.765C10.1166 726.765 11.3 726.432 12.4 725.765C13.5 725.065 14.8333 723.815 16.4 722.015C18.4 719.715 20.2166 718.132 21.85 717.265C23.4833 716.398 25.4 715.965 27.6 715.965C30.4666 715.965 32.6666 716.682 34.2 718.115C35.7333 719.515 36.5 721.565 36.5 724.265ZM0.99996 712.811L0.999959 697.811L5.99996 697.811L5.99996 707.311L15.25 707.311L15.25 699.761L20.25 699.761L20.25 707.311L31 707.311L31 697.811L36 697.811L36 712.811L0.99996 712.811ZM0.999959 694.647L0.999959 686.497C0.999959 683.664 1.66663 681.597 2.99996 680.297C4.29996 678.997 6.31663 678.347 9.04996 678.347L11.2 678.347C14.8333 678.347 17.1333 679.547 18.1 681.947L18.2 681.947C18.6 680.614 19.4166 679.681 20.65 679.147C21.8833 678.581 23.5333 678.297 25.6 678.297L31.75 678.297C32.75 678.297 33.5666 678.264 34.2 678.197C34.8 678.131 35.4 677.964 36 677.697L36 683.297C35.4333 683.497 34.9 683.631 34.4 683.697C33.9 683.764 33 683.797 31.7 683.797L25.3 683.797C23.7 683.797 22.5833 684.064 21.95 684.597C21.3166 685.097 21 685.981 21 687.247L21 689.147L36 689.147L36 694.647L0.999959 694.647ZM16 687.147C16 686.047 15.7166 685.231 15.15 684.697C14.5833 684.131 13.6333 683.847 12.3 683.847L9.59996 683.847C8.33329 683.847 7.41663 684.081 6.84996 684.547C6.28329 684.981 5.99996 685.681 5.99996 686.647L5.99996 689.147L16 689.147L16 687.147ZM0.999958 676.127L0.999958 670.577L28.15 666.977L28.15 666.877L0.999958 663.277L0.999958 658.227L36 663.527L36 670.827L0.999958 676.127ZM0.999958 655.585L0.999957 650.085L36 650.085L36 655.585L0.999958 655.585ZM36.5 638.216C36.5 640.849 35.75 642.866 34.25 644.266C32.75 645.632 30.6333 646.316 27.9 646.316L9.09996 646.316C6.36663 646.316 4.24996 645.632 2.74996 644.266C1.24996 642.866 0.499957 640.849 0.499957 638.216C0.499957 635.582 1.24996 633.582 2.74996 632.216C4.24996 630.816 6.36662 630.116 9.09996 630.116L12.8 630.116L12.8 635.316L8.74996 635.316C6.58329 635.316 5.49996 636.232 5.49996 638.066C5.49996 639.899 6.58329 640.816 8.74996 640.816L28.3 640.816C30.4333 640.816 31.5 639.899 31.5 638.066C31.5 636.232 30.4333 635.316 28.3 635.316L22.95 635.316L22.95 630.116L27.9 630.116C30.6333 630.116 32.75 630.816 34.25 632.216C35.75 633.582 36.5 635.582 36.5 638.216ZM0.999956 626.825L0.999956 611.825L5.99996 611.825L5.99996 621.325L15.25 621.325L15.25 613.775L20.25 613.775L20.25 621.325L31 621.325L31 611.825L36 611.825L36 626.825L0.999956 626.825ZM36.5 601.413C36.5 604.08 35.75 606.097 34.25 607.463C32.7166 608.83 30.5333 609.513 27.7 609.513L25.7 609.513L25.7 604.313L28.1 604.313C30.3666 604.313 31.5 603.363 31.5 601.463C31.5 600.53 31.2333 599.83 30.7 599.363C30.1333 598.863 29.2333 598.613 28 598.613C26.5333 598.613 25.25 598.947 24.15 599.613C23.0166 600.28 21.6666 601.513 20.1 603.313C18.1 605.58 16.3 607.163 14.7 608.063C13.0666 608.963 11.2333 609.413 9.19996 609.413C6.43329 609.413 4.29996 608.713 2.79996 607.313C1.26662 605.913 0.499956 603.88 0.499956 601.213C0.499956 598.58 1.26662 596.597 2.79996 595.263C4.29996 593.897 6.46662 593.213 9.29996 593.213L10.75 593.213L10.75 598.413L8.94996 598.413C7.74996 598.413 6.88329 598.647 6.34995 599.113C5.78329 599.58 5.49996 600.263 5.49996 601.163C5.49996 602.997 6.61662 603.913 8.84996 603.913C10.1166 603.913 11.3 603.58 12.4 602.913C13.5 602.213 14.8333 600.963 16.4 599.163C18.4 596.863 20.2166 595.28 21.85 594.413C23.4833 593.547 25.4 593.113 27.6 593.113C30.4666 593.113 32.6666 593.83 34.2 595.263C35.7333 596.663 36.5 598.713 36.5 601.413ZM36.5 526.755C36.5 529.422 35.75 531.438 34.25 532.805C32.7166 534.172 30.5333 534.855 27.7 534.855L25.7 534.855L25.7 529.655L28.1 529.655C30.3666 529.655 31.5 528.705 31.5 526.805C31.5 525.872 31.2333 525.172 30.7 524.705C30.1333 524.205 29.2333 523.955 28 523.955C26.5333 523.955 25.25 524.288 24.15 524.955C23.0166 525.622 21.6666 526.855 20.1 528.655C18.1 530.922 16.3 532.505 14.7 533.405C13.0666 534.305 11.2333 534.755 9.19995 534.755C6.43329 534.755 4.29995 534.055 2.79995 532.655C1.26662 531.255 0.499953 529.222 0.499952 526.555C0.499952 523.922 1.26662 521.938 2.79995 520.605C4.29995 519.238 6.46662 518.555 9.29995 518.555L10.75 518.555L10.75 523.755L8.94995 523.755C7.74995 523.755 6.88329 523.988 6.34995 524.455C5.78329 524.922 5.49995 525.605 5.49995 526.505C5.49995 528.338 6.61662 529.255 8.84995 529.255C10.1166 529.255 11.3 528.922 12.4 528.255C13.5 527.555 14.8333 526.305 16.4 524.505C18.4 522.205 20.2166 520.622 21.85 519.755C23.4833 518.888 25.4 518.455 27.6 518.455C30.4666 518.455 32.6666 519.172 34.2 520.605C35.7333 522.005 36.5 524.055 36.5 526.755ZM0.999951 515.302L0.999951 500.302L5.99995 500.302L5.99995 509.802L15.25 509.802L15.25 502.252L20.25 502.252L20.25 509.802L31 509.802L31 500.302L36 500.302L36 515.302L0.999951 515.302ZM0.999951 497.137L0.99995 488.987C0.99995 486.154 1.66662 484.087 2.99995 482.787C4.29995 481.487 6.31662 480.837 9.04995 480.837L11.2 480.837C14.8333 480.837 17.1333 482.037 18.1 484.437L18.2 484.437C18.6 483.104 19.4166 482.171 20.65 481.637C21.8833 481.071 23.5333 480.787 25.6 480.787L31.75 480.787C32.75 480.787 33.5666 480.754 34.2 480.687C34.8 480.621 35.4 480.454 36 480.187L36 485.787C35.4333 485.987 34.9 486.121 34.4 486.187C33.9 486.254 33 486.287 31.7 486.287L25.3 486.287C23.7 486.287 22.5833 486.554 21.95 487.087C21.3166 487.587 21 488.471 21 489.737L21 491.637L36 491.637L36 497.137L0.999951 497.137ZM16 489.637C16 488.537 15.7166 487.721 15.15 487.187C14.5833 486.621 13.6333 486.337 12.3 486.337L9.59995 486.337C8.33328 486.337 7.41662 486.571 6.84995 487.037C6.28329 487.471 5.99995 488.171 5.99995 489.137L5.99995 491.637L16 491.637L16 489.637ZM0.99995 478.617L0.99995 473.067L28.15 469.467L28.15 469.367L0.999949 465.767L0.999949 460.717L36 466.017L36 473.317L0.99995 478.617ZM0.999949 458.075L0.999949 452.575L36 452.575L36 458.075L0.999949 458.075ZM36.5 440.706C36.5 443.339 35.75 445.356 34.25 446.756C32.75 448.123 30.6333 448.806 27.9 448.806L9.09995 448.806C6.36662 448.806 4.24995 448.123 2.74995 446.756C1.24995 445.356 0.499949 443.339 0.499949 440.706C0.499949 438.073 1.24995 436.073 2.74995 434.706C4.24995 433.306 6.36662 432.606 9.09995 432.606L12.7999 432.606L12.7999 437.806L8.74995 437.806C6.58328 437.806 5.49995 438.723 5.49995 440.556C5.49995 442.389 6.58328 443.306 8.74995 443.306L28.3 443.306C30.4333 443.306 31.5 442.389 31.5 440.556C31.5 438.723 30.4333 437.806 28.2999 437.806L22.95 437.806L22.9499 432.606L27.9 432.606C30.6333 432.606 32.75 433.306 34.25 434.706C35.75 436.073 36.5 438.073 36.5 440.706ZM0.999948 429.315L0.999947 414.315L5.99995 414.315L5.99995 423.815L15.2499 423.815L15.2499 416.265L20.2499 416.265L20.2499 423.815L30.9999 423.815L30.9999 414.315L35.9999 414.315L36 429.315L0.999948 429.315ZM36.4999 403.904C36.4999 406.57 35.7499 408.587 34.2499 409.954C32.7166 411.32 30.5333 412.004 27.6999 412.004L25.6999 412.004L25.6999 406.804L28.0999 406.804C30.3666 406.804 31.4999 405.854 31.4999 403.954C31.4999 403.02 31.2333 402.32 30.6999 401.854C30.1333 401.354 29.2333 401.104 27.9999 401.104C26.5333 401.104 25.2499 401.437 24.1499 402.104C23.0166 402.77 21.6666 404.004 20.0999 405.804C18.0999 408.07 16.2999 409.654 14.6999 410.554C13.0666 411.454 11.2333 411.904 9.19995 411.904C6.43328 411.904 4.29995 411.204 2.79995 409.804C1.26661 408.404 0.499947 406.37 0.499947 403.704C0.499947 401.07 1.26661 399.087 2.79995 397.754C4.29995 396.387 6.46661 395.704 9.29995 395.704L10.7499 395.704L10.7499 400.904L8.94995 400.904C7.74995 400.904 6.88328 401.137 6.34995 401.604C5.78328 402.07 5.49995 402.754 5.49995 403.654C5.49995 405.487 6.61661 406.404 8.84995 406.404C10.1166 406.404 11.2999 406.07 12.3999 405.404C13.4999 404.704 14.8333 403.454 16.3999 401.654C18.3999 399.354 20.2166 397.77 21.8499 396.904C23.4833 396.037 25.3999 395.604 27.5999 395.604C30.4666 395.604 32.6666 396.32 34.1999 397.754C35.7333 399.154 36.4999 401.204 36.4999 403.904ZM36.4999 329.245C36.4999 331.912 35.7499 333.929 34.2499 335.295C32.7166 336.662 30.5333 337.345 27.6999 337.345L25.6999 337.345L25.6999 332.145L28.0999 332.145C30.3666 332.145 31.4999 331.195 31.4999 329.295C31.4999 328.362 31.2333 327.662 30.6999 327.195C30.1333 326.695 29.2333 326.445 27.9999 326.445C26.5333 326.445 25.2499 326.779 24.1499 327.445C23.0166 328.112 21.6666 329.345 20.0999 331.145C18.0999 333.412 16.2999 334.995 14.6999 335.895C13.0666 336.795 11.2333 337.245 9.19995 337.245C6.43328 337.245 4.29994 336.545 2.79994 335.145C1.26661 333.745 0.499944 331.712 0.499944 329.045C0.499944 326.412 1.26661 324.429 2.79994 323.095C4.29994 321.729 6.46661 321.045 9.29994 321.045L10.7499 321.045L10.7499 326.245L8.94995 326.245C7.74994 326.245 6.88328 326.479 6.34994 326.945C5.78328 327.412 5.49994 328.095 5.49994 328.995C5.49995 330.829 6.61661 331.745 8.84994 331.745C10.1166 331.745 11.2999 331.412 12.3999 330.745C13.4999 330.045 14.8333 328.795 16.3999 326.995C18.3999 324.695 20.2166 323.112 21.8499 322.245C23.4833 321.379 25.3999 320.945 27.5999 320.945C30.4666 320.945 32.6666 321.662 34.1999 323.095C35.7333 324.495 36.4999 326.545 36.4999 329.245ZM0.999943 317.792L0.999942 302.792L5.99994 302.792L5.99994 312.292L15.2499 312.292L15.2499 304.742L20.2499 304.742L20.2499 312.292L30.9999 312.292L30.9999 302.792L35.9999 302.792L35.9999 317.792L0.999943 317.792ZM0.999942 299.628L0.999942 291.478C0.999942 288.644 1.66661 286.578 2.99994 285.278C4.29994 283.978 6.31661 283.328 9.04994 283.328L11.1999 283.328C14.8333 283.328 17.1333 284.528 18.0999 286.928L18.1999 286.928C18.5999 285.594 19.4166 284.661 20.6499 284.128C21.8833 283.561 23.5333 283.278 25.5999 283.278L31.7499 283.278C32.7499 283.278 33.5666 283.244 34.1999 283.178C34.7999 283.111 35.3999 282.944 35.9999 282.678L35.9999 288.278C35.4333 288.478 34.8999 288.611 34.3999 288.678C33.8999 288.744 32.9999 288.778 31.6999 288.778L25.2999 288.778C23.6999 288.778 22.5833 289.044 21.9499 289.578C21.3166 290.078 20.9999 290.961 20.9999 292.228L20.9999 294.128L35.9999 294.128L35.9999 299.628L0.999942 299.628ZM15.9999 292.128C15.9999 291.028 15.7166 290.211 15.1499 289.678C14.5833 289.111 13.6333 288.828 12.2999 288.828L9.59994 288.828C8.33328 288.828 7.41661 289.061 6.84994 289.528C6.28328 289.961 5.99994 290.661 5.99994 291.628L5.99994 294.128L15.9999 294.128L15.9999 292.128ZM0.999941 281.107L0.999941 275.557L28.1499 271.957L28.1499 271.857L0.999941 268.257L0.99994 263.207L35.9999 268.507L35.9999 275.807L0.999941 281.107ZM0.99994 260.565L0.99994 255.065L35.9999 255.065L35.9999 260.565L0.99994 260.565ZM36.4999 243.196C36.4999 245.829 35.7499 247.846 34.2499 249.246C32.7499 250.613 30.6333 251.296 27.8999 251.296L9.09994 251.296C6.36661 251.296 4.24994 250.613 2.74994 249.246C1.24994 247.846 0.49994 245.829 0.49994 243.196C0.49994 240.563 1.24994 238.563 2.74994 237.196C4.24994 235.796 6.36661 235.096 9.09994 235.096L12.7999 235.096L12.7999 240.296L8.74994 240.296C6.58327 240.296 5.49994 241.213 5.49994 243.046C5.49994 244.879 6.58327 245.796 8.74994 245.796L28.2999 245.796C30.4333 245.796 31.4999 244.879 31.4999 243.046C31.4999 241.213 30.4333 240.296 28.2999 240.296L22.9499 240.296L22.9499 235.096L27.8999 235.096C30.6333 235.096 32.7499 235.796 34.2499 237.196C35.7499 238.563 36.4999 240.563 36.4999 243.196ZM0.999939 231.805L0.999938 216.805L5.99994 216.805L5.99994 226.305L15.2499 226.305L15.2499 218.755L20.2499 218.755L20.2499 226.305L30.9999 226.305L30.9999 216.805L35.9999 216.805L35.9999 231.805L0.999939 231.805ZM36.4999 206.394C36.4999 209.06 35.7499 211.077 34.2499 212.444C32.7166 213.81 30.5333 214.494 27.6999 214.494L25.6999 214.494L25.6999 209.294L28.0999 209.294C30.3666 209.294 31.4999 208.344 31.4999 206.444C31.4999 205.51 31.2333 204.81 30.6999 204.344C30.1333 203.844 29.2333 203.594 27.9999 203.594C26.5333 203.594 25.2499 203.927 24.1499 204.594C23.0166 205.26 21.6666 206.494 20.0999 208.294C18.0999 210.56 16.2999 212.144 14.6999 213.044C13.0666 213.944 11.2333 214.394 9.19994 214.394C6.43327 214.394 4.29994 213.694 2.79994 212.294C1.26661 210.894 0.499939 208.86 0.499938 206.194C0.499938 203.56 1.2666 201.577 2.79994 200.244C4.29994 198.877 6.46661 198.194 9.29994 198.194L10.7499 198.194L10.7499 203.394L8.94994 203.394C7.74994 203.394 6.88327 203.627 6.34994 204.094C5.78327 204.56 5.49994 205.244 5.49994 206.144C5.49994 207.977 6.61661 208.894 8.84994 208.894C10.1166 208.894 11.2999 208.56 12.3999 207.894C13.4999 207.194 14.8333 205.944 16.3999 204.144C18.3999 201.844 20.2166 200.26 21.8499 199.394C23.4833 198.527 25.3999 198.094 27.5999 198.094C30.4666 198.094 32.6666 198.81 34.1999 200.244C35.7333 201.644 36.4999 203.694 36.4999 206.394ZM36.4999 131.736C36.4999 134.402 35.7499 136.419 34.2499 137.786C32.7166 139.152 30.5333 139.836 27.6999 139.836L25.6999 139.836L25.6999 134.636L28.0999 134.636C30.3666 134.636 31.4999 133.686 31.4999 131.786C31.4999 130.852 31.2333 130.152 30.6999 129.686C30.1333 129.186 29.2333 128.936 27.9999 128.936C26.5333 128.936 25.2499 129.269 24.1499 129.936C23.0166 130.602 21.6666 131.836 20.0999 133.636C18.0999 135.902 16.2999 137.486 14.6999 138.386C13.0666 139.286 11.2333 139.736 9.19994 139.736C6.43327 139.736 4.29994 139.036 2.79994 137.636C1.2666 136.236 0.499935 134.202 0.499935 131.536C0.499935 128.902 1.2666 126.919 2.79994 125.586C4.29994 124.219 6.4666 123.536 9.29993 123.536L10.7499 123.536L10.7499 128.736L8.94994 128.736C7.74994 128.736 6.88327 128.969 6.34993 129.436C5.78327 129.902 5.49994 130.586 5.49994 131.486C5.49994 133.319 6.6166 134.236 8.84994 134.236C10.1166 134.236 11.2999 133.902 12.3999 133.236C13.4999 132.536 14.8333 131.286 16.3999 129.486C18.3999 127.186 20.2166 125.602 21.8499 124.736C23.4833 123.869 25.3999 123.436 27.5999 123.436C30.4666 123.436 32.6666 124.152 34.1999 125.586C35.7333 126.986 36.4999 129.036 36.4999 131.736ZM0.999934 120.282L0.999934 105.282L5.99993 105.282L5.99994 114.782L15.2499 114.782L15.2499 107.232L20.2499 107.232L20.2499 114.782L30.9999 114.782L30.9999 105.282L35.9999 105.282L35.9999 120.282L0.999934 120.282ZM0.999933 102.118L0.999933 93.968C0.999933 91.1346 1.6666 89.068 2.99993 87.768C4.29993 86.468 6.3166 85.818 9.04993 85.818L11.1999 85.818C14.8333 85.818 17.1333 87.018 18.0999 89.418L18.1999 89.418C18.5999 88.0846 19.4166 87.1513 20.6499 86.618C21.8833 86.0513 23.5333 85.768 25.5999 85.768L31.7499 85.768C32.7499 85.768 33.5666 85.7346 34.1999 85.668C34.7999 85.6013 35.3999 85.4346 35.9999 85.168L35.9999 90.768C35.4333 90.968 34.8999 91.1013 34.3999 91.168C33.8999 91.2346 32.9999 91.268 31.6999 91.268L25.2999 91.268C23.6999 91.268 22.5833 91.5346 21.9499 92.068C21.3166 92.568 20.9999 93.4513 20.9999 94.718L20.9999 96.618L35.9999 96.618L35.9999 102.118L0.999933 102.118ZM15.9999 94.618C15.9999 93.518 15.7166 92.7013 15.1499 92.168C14.5833 91.6013 13.6333 91.318 12.2999 91.318L9.59994 91.318C8.33327 91.318 7.4166 91.5513 6.84994 92.018C6.28327 92.4513 5.99993 93.1513 5.99993 94.118L5.99993 96.618L15.9999 96.618L15.9999 94.618ZM0.999933 83.5973L0.999932 78.0473L28.1499 74.4473L28.1499 74.3473L0.999932 70.7473L0.999932 65.6973L35.9999 70.9973L35.9999 78.2973L0.999933 83.5973ZM0.999932 63.0555L0.999931 57.5555L35.9999 57.5555L35.9999 63.0555L0.999932 63.0555ZM36.4999 45.6863C36.4999 48.3197 35.7499 50.3363 34.2499 51.7363C32.7499 53.103 30.6333 53.7863 27.8999 53.7863L9.09993 53.7863C6.3666 53.7863 4.24993 53.103 2.74993 51.7363C1.24993 50.3363 0.499932 48.3197 0.499931 45.6863C0.499931 43.053 1.24993 41.053 2.74993 39.6863C4.24993 38.2863 6.3666 37.5863 9.09993 37.5863L12.7999 37.5863L12.7999 42.7863L8.74993 42.7863C6.58327 42.7863 5.49993 43.703 5.49993 45.5363C5.49993 47.3697 6.58327 48.2863 8.74993 48.2863L28.2999 48.2863C30.4333 48.2863 31.4999 47.3697 31.4999 45.5363C31.4999 43.703 30.4333 42.7863 28.2999 42.7863L22.9499 42.7863L22.9499 37.5863L27.8999 37.5863C30.6333 37.5863 32.7499 38.2863 34.2499 39.6863C35.7499 41.053 36.4999 43.053 36.4999 45.6863ZM0.99993 34.2957L0.99993 19.2957L5.99993 19.2957L5.99993 28.7957L15.2499 28.7957L15.2499 21.2457L20.2499 21.2457L20.2499 28.7957L30.9999 28.7957L30.9999 19.2957L35.9999 19.2957L35.9999 34.2957L0.99993 34.2957ZM36.4999 8.88398C36.4999 11.5506 35.7499 13.5673 34.2499 14.934C32.7166 16.3006 30.5333 16.984 27.6999 16.984L25.6999 16.984L25.6999 11.784L28.0999 11.784C30.3666 11.784 31.4999 10.834 31.4999 8.93398C31.4999 8.00065 31.2333 7.30065 30.6999 6.83398C30.1333 6.33398 29.2333 6.08398 27.9999 6.08398C26.5333 6.08398 25.2499 6.41732 24.1499 7.08398C23.0166 7.75065 21.6666 8.98398 20.0999 10.784C18.0999 13.0507 16.2999 14.634 14.6999 15.534C13.0666 16.434 11.2333 16.884 9.19993 16.884C6.43326 16.884 4.29993 16.184 2.79993 14.784C1.2666 13.384 0.49993 11.3507 0.49993 8.68398C0.49993 6.05065 1.2666 4.06732 2.79993 2.73398C4.29993 1.36732 6.4666 0.683983 9.29993 0.683983L10.7499 0.683983L10.7499 5.88398L8.94993 5.88398C7.74993 5.88398 6.88326 6.11732 6.34993 6.58398C5.78326 7.05065 5.49993 7.73398 5.49993 8.63398C5.49993 10.4673 6.6166 11.384 8.84993 11.384C10.1166 11.384 11.2999 11.0507 12.3999 10.384C13.4999 9.68398 14.8333 8.43398 16.3999 6.63398C18.3999 4.33398 20.2166 2.75065 21.8499 1.88398C23.4833 1.01732 25.3999 0.583982 27.5999 0.583982C30.4666 0.583982 32.6666 1.30065 34.1999 2.73398C35.7333 4.13398 36.4999 6.18398 36.4999 8.88398Z" fill="#504DE6"/>
</svg>
