<svg width="66" height="68" viewBox="0 0 66 68" fill="none" xmlns="http://www.w3.org/2000/svg">
<path d="M21.406 55.1969H24.2256C25.2058 55.1969 25.9245 55.3968 26.3815 55.7968C26.8383 56.1867 27.0741 56.7917 27.089 57.6116L27.1007 58.2565C27.1205 59.3463 26.7178 60.0363 25.8928 60.3262L25.8933 60.3562C26.3568 60.4762 26.6841 60.7212 26.8753 61.0911C27.0781 61.4611 27.1851 61.956 27.1963 62.5759L27.2298 64.4207C27.2352 64.7207 27.2512 64.9656 27.2777 65.1556C27.3041 65.3356 27.365 65.5156 27.4605 65.6956H25.5231C25.4508 65.5256 25.4018 65.3656 25.376 65.2156C25.3503 65.0656 25.3338 64.7957 25.3267 64.4057L25.2919 62.486C25.2832 62.006 25.1849 61.6711 24.9969 61.4811C24.8205 61.2911 24.5132 61.1961 24.075 61.1961H23.4176L23.4993 65.6956H21.5965L21.406 55.1969ZM24.0824 59.6963C24.4629 59.6963 24.7439 59.6113 24.9253 59.4413C25.1183 59.2714 25.2111 58.9864 25.2039 58.5864L25.1892 57.7765C25.1823 57.3966 25.0966 57.1216 24.9321 56.9516C24.7791 56.7817 24.5354 56.6967 24.2009 56.6967H23.336L23.3904 59.6963H24.0824Z" fill="#EE6338"/>
<path d="M28.3827 55.1969H33.5721L33.5993 56.6967H30.3127L30.363 59.4713H32.975L33.0022 60.9711H30.3902L30.4487 64.1957H33.7353L33.7625 65.6956H28.5731L28.3827 55.1969Z" fill="#EE6338"/>
<path d="M37.3673 65.8455C36.4447 65.8455 35.743 65.6206 35.262 65.1706C34.7808 64.7107 34.5325 64.0558 34.5171 63.2059L34.5062 62.6059H36.3052L36.3183 63.3259C36.3306 64.0058 36.6655 64.3457 37.3228 64.3457C37.6457 64.3457 37.8864 64.2657 38.0449 64.1058C38.2148 63.9358 38.2964 63.6658 38.2897 63.2959C38.2817 62.8559 38.1594 62.471 37.9228 62.141C37.686 61.801 37.252 61.3961 36.6207 60.9261C35.8257 60.3262 35.2681 59.7863 34.948 59.3063C34.6278 58.8164 34.4621 58.2665 34.4511 57.6566C34.436 56.8267 34.6666 56.1867 35.1428 55.7368C35.6188 55.2768 36.318 55.0469 37.2406 55.0469C38.1516 55.0469 38.842 55.2768 39.3116 55.7368C39.7926 56.1867 40.0408 56.8367 40.0562 57.6865L40.0641 58.1215H38.2651L38.2553 57.5816C38.2487 57.2216 38.1633 56.9616 37.9989 56.8017C37.8344 56.6317 37.5965 56.5467 37.2851 56.5467C36.6508 56.5467 36.3398 56.8816 36.3519 57.5516C36.3588 57.9315 36.4806 58.2865 36.7172 58.6164C36.9654 58.9464 37.4051 59.3463 38.0363 59.8163C38.8429 60.4162 39.4006 60.9611 39.7093 61.4511C40.018 61.941 40.1784 62.516 40.1903 63.1759C40.2059 64.0358 39.97 64.6957 39.4824 65.1556C39.0064 65.6156 38.3014 65.8455 37.3673 65.8455Z" fill="#EE6338"/>
<path d="M44.0974 65.8455C43.1749 65.8455 42.4673 65.6206 41.9748 65.1706C41.4821 64.7107 41.2281 64.0558 41.2127 63.2059L41.0674 55.1969H42.9702L43.1176 63.3259C43.1242 63.6858 43.2096 63.9458 43.374 64.1058C43.5498 64.2657 43.7935 64.3457 44.1048 64.3457C44.4162 64.3457 44.6511 64.2657 44.8097 64.1058C44.9798 63.9458 45.0615 63.6858 45.055 63.3259L44.9076 55.1969H46.7412L46.8864 63.2059C46.9018 64.0558 46.6715 64.7107 46.1955 65.1706C45.7194 65.6206 45.02 65.8455 44.0974 65.8455Z" fill="#EE6338"/>
<path d="M48.0963 55.1969H49.9991L50.1624 64.1957H53.2933L53.3205 65.6956H48.2868L48.0963 55.1969Z" fill="#EE6338"/>
<path d="M54.206 56.6967H52.2167L52.1895 55.1969H58.0708L58.098 56.6967H56.1087L56.272 65.6956H54.3692L54.206 56.6967Z" fill="#EE6338"/>
<path d="M39.0122 28.0889L38.5769 27.4019L38.1604 28.1004L29.2592 43.0287L13.4372 43.0192L38.0819 1.68549L64.2881 43.0503L48.4865 43.0408L39.0122 28.0889Z" stroke="#EE6338"/>
</svg>
