<svg width="96" height="96" viewBox="0 0 96 96" fill="none" xmlns="http://www.w3.org/2000/svg">
<circle cx="48.2425" cy="48.074" r="34" transform="rotate(-31 48.2425 48.074)" fill="#FAF5EE" stroke="#EE6338"/>
<path fill-rule="evenodd" clip-rule="evenodd" d="M51.169 36.8168L61.8887 39.4497C62.5465 39.6112 62.9451 40.2745 62.7789 40.9312L60.071 51.6322C59.9048 52.2888 59.2368 52.6902 58.579 52.5286C57.9212 52.3671 57.5227 51.7038 57.6888 51.0471L59.6704 43.2166L36.8979 56.8997C36.3153 57.2498 35.5611 57.0646 35.2135 56.486C34.8658 55.9074 35.0563 55.1546 35.639 54.8045L58.4114 41.1214L50.5673 39.1948C49.9095 39.0333 49.5109 38.37 49.6771 37.7133C49.8432 37.0566 50.5112 36.6553 51.169 36.8168Z" fill="#EE6338"/>
</svg>
