<svg width="52" height="66" viewBox="0 0 52 66" fill="none" xmlns="http://www.w3.org/2000/svg">
<path d="M27.4867 31.3327L28.2999 31.3347L27.9346 30.6081L20.1268 15.0799L28.636 1.74096L50.2548 44.7346L1.28753 44.6114L9.78572 31.2896L27.4867 31.3327Z" stroke="#EE6338"/>
<path d="M6.7614 65.8453C5.9614 65.8453 5.3603 65.6203 4.9581 65.1704C4.55607 64.7104 4.36242 64.0555 4.37715 63.2057L4.38755 62.6057H5.94755L5.93507 63.3256C5.92329 64.0055 6.2024 64.3455 6.7724 64.3455C7.0524 64.3455 7.26378 64.2655 7.40655 64.1055C7.5595 63.9355 7.63918 63.6656 7.64559 63.2956C7.65322 62.8557 7.55989 62.4708 7.36561 62.1408C7.1715 61.8009 6.80852 61.3959 6.27666 60.926C5.60706 60.3261 5.14141 59.7862 4.87973 59.3062C4.61822 58.8163 4.49276 58.2664 4.50333 57.6565C4.51771 56.8266 4.7388 56.1867 5.1666 55.7368C5.59457 55.2768 6.20855 55.0469 7.00855 55.0469C7.79855 55.0469 8.38957 55.2768 8.7816 55.7368C9.1838 56.1867 9.37754 56.8366 9.36281 57.6865L9.35527 58.1214H7.79527L7.80463 57.5815C7.81086 57.2215 7.74537 56.9616 7.60814 56.8016C7.47109 56.6316 7.26756 56.5467 6.99756 56.5467C6.44756 56.5467 6.16676 56.8816 6.15515 57.5515C6.14856 57.9314 6.24241 58.2864 6.43669 58.6163C6.64097 58.9463 7.00904 59.3462 7.54089 59.8162C8.2205 60.4161 8.68605 60.961 8.93756 61.4509C9.18907 61.9408 9.30911 62.5158 9.29767 63.1757C9.28277 64.0355 9.05633 64.6954 8.61836 65.1554C8.19039 65.6153 7.5714 65.8453 6.7614 65.8453Z" fill="#EE6338"/>
<path d="M12.5825 65.8453C11.7725 65.8453 11.1564 65.6153 10.7344 65.1554C10.3124 64.6954 10.1086 64.0455 10.1232 63.2057L10.2189 57.6865C10.2334 56.8466 10.4597 56.1967 10.8977 55.7368C11.3356 55.2768 11.9596 55.0469 12.7696 55.0469C13.5796 55.0469 14.1956 55.2768 14.6177 55.7368C15.0397 56.1967 15.2434 56.8466 15.2289 57.6865L15.1332 63.2057C15.1186 64.0455 14.8924 64.6954 14.4544 65.1554C14.0164 65.6153 13.3925 65.8453 12.5825 65.8453ZM12.6084 64.3455C13.1784 64.3455 13.4694 64.0005 13.4814 63.3106L13.5807 57.5815C13.5926 56.8916 13.3136 56.5467 12.7436 56.5467C12.1736 56.5467 11.8826 56.8916 11.8707 57.5815L11.7714 63.3106C11.7594 64.0005 12.0384 64.3455 12.6084 64.3455Z" fill="#EE6338"/>
<path d="M16.3879 55.1969H18.0379L17.8819 64.1955H20.5969L20.5709 65.6953H16.2059L16.3879 55.1969Z" fill="#EE6338"/>
<path d="M23.7596 65.8453C22.9596 65.8453 22.3535 65.6203 21.9413 65.1704C21.5292 64.7104 21.3306 64.0555 21.3453 63.2057L21.4841 55.1969H23.1341L22.9932 63.3256C22.987 63.6856 23.0525 63.9455 23.1897 64.1055C23.3369 64.2655 23.5456 64.3455 23.8156 64.3455C24.0856 64.3455 24.2919 64.2655 24.4347 64.1055C24.5875 63.9455 24.667 63.6856 24.6732 63.3256L24.8141 55.1969H26.4041L26.2653 63.2057C26.2506 64.0555 26.0292 64.7104 25.6013 65.1704C25.1735 65.6203 24.5596 65.8453 23.7596 65.8453Z" fill="#EE6338"/>
<path d="M28.8433 56.6966H27.1183L27.1443 55.1969H32.2443L32.2183 56.6966H30.4933L30.3373 65.6953H28.6873L28.8433 56.6966Z" fill="#EE6338"/>
<path d="M33.0431 55.1969H34.6931L34.5112 65.6953H32.8612L33.0431 55.1969Z" fill="#EE6338"/>
<path d="M38.1293 65.8453C37.3193 65.8453 36.7033 65.6153 36.2813 65.1554C35.8593 64.6954 35.6555 64.0455 35.6701 63.2057L35.7657 57.6865C35.7803 56.8466 36.0066 56.1967 36.4445 55.7368C36.8825 55.2768 37.5065 55.0469 38.3165 55.0469C39.1265 55.0469 39.7425 55.2768 40.1645 55.7368C40.5866 56.1967 40.7903 56.8466 40.7757 57.6865L40.6801 63.2057C40.6655 64.0455 40.4393 64.6954 40.0013 65.1554C39.5633 65.6153 38.9393 65.8453 38.1293 65.8453ZM38.1553 64.3455C38.7253 64.3455 39.0163 64.0005 39.0283 63.3106L39.1276 57.5815C39.1395 56.8916 38.8605 56.5467 38.2905 56.5467C37.7205 56.5467 37.4295 56.8916 37.4176 57.5815L37.3183 63.3106C37.3063 64.0005 37.5853 64.3455 38.1553 64.3455Z" fill="#EE6338"/>
<path d="M41.9347 55.1969H44.0047L45.5008 61.4809H45.5308L45.6397 55.1969H47.1097L46.9278 65.6953H45.2328L43.3856 58.0314H43.3556L43.2228 65.6953H41.7528L41.9347 55.1969Z" fill="#EE6338"/>
</svg>
