<svg width="52" height="66" viewBox="0 0 52 66" fill="none" xmlns="http://www.w3.org/2000/svg">
<path d="M23.8912 31.3875L23.5364 32.1093L24.3406 32.1081L42.0377 32.0824L50.5345 45.7817L1.54582 45.8503L23.2281 1.76064L31.723 15.457L23.8912 31.3875Z" stroke="#EE6338"/>
<path d="M23.8912 31.3875L23.5364 32.1093L24.3406 32.1081L42.0377 32.0824L50.5345 45.7817L1.54582 45.8503L23.2281 1.76064L31.723 15.457L23.8912 31.3875Z" stroke="#EE6338"/>
<path d="M23.8912 31.3875L23.5364 32.1093L24.3406 32.1081L42.0377 32.0824L50.5345 45.7817L1.54582 45.8503L23.2281 1.76064L31.723 15.457L23.8912 31.3875Z" stroke="#EE6338"/>
<path d="M3.17219 65.8459C2.38219 65.8459 1.77719 65.6209 1.35719 65.1709C0.947187 64.7209 0.742188 64.0859 0.742188 63.2659L0.742188 57.6259C0.742188 56.8059 0.947187 56.1709 1.35719 55.7209C1.77719 55.2709 2.38219 55.0459 3.17219 55.0459C3.96219 55.0459 4.56219 55.2709 4.97219 55.7209C5.39219 56.1709 5.60219 56.8059 5.60219 57.6259L5.60219 58.7359H4.04219V57.5209C4.04219 56.8709 3.76719 56.5459 3.21719 56.5459C2.66719 56.5459 2.39219 56.8709 2.39219 57.5209L2.39219 63.3859C2.39219 64.0259 2.66719 64.3459 3.21719 64.3459C3.76719 64.3459 4.04219 64.0259 4.04219 63.3859L4.04219 61.7809H5.60219V63.2659C5.60219 64.0859 5.39219 64.7209 4.97219 65.1709C4.56219 65.6209 3.96219 65.8459 3.17219 65.8459Z" fill="#EE6338"/>
<path d="M6.58937 55.1959H8.23938V59.4709H10.0094V55.1959H11.6594L11.6594 65.6959H10.0094V60.9709H8.23938L8.23938 65.6959H6.58937L6.58937 55.1959Z" fill="#EE6338"/>
<path d="M14.1632 55.1959H16.3982L18.1082 65.6959H16.4582L16.1582 63.6109V63.6409H14.2832L13.9832 65.6959H12.4532L14.1632 55.1959ZM15.9632 62.2159L15.2282 57.0259H15.1982L14.4782 62.2159H15.9632Z" fill="#EE6338"/>
<path d="M18.9087 55.1959H20.5587V64.1959H23.2737V65.6959H18.9087V55.1959Z" fill="#EE6338"/>
<path d="M24.065 55.1959H25.715V64.1959H28.43V65.6959H24.065V55.1959Z" fill="#EE6338"/>
<path d="M29.2212 55.1959H33.7212V56.6959H30.8712V59.4709H33.1362V60.9709H30.8712V64.1959H33.7212V65.6959H29.2212V55.1959Z" fill="#EE6338"/>
<path d="M34.6704 55.1959H36.7404L38.3454 61.4809H38.3754V55.1959H39.8454V65.6959H38.1504L36.1704 58.0309H36.1404V65.6959H34.6704V55.1959Z" fill="#EE6338"/>
<path d="M43.4118 65.8459C42.6118 65.8459 42.0018 65.6209 41.5818 65.1709C41.1618 64.7109 40.9518 64.0559 40.9518 63.2059V57.6859C40.9518 56.8359 41.1618 56.1859 41.5818 55.7359C42.0018 55.2759 42.6118 55.0459 43.4118 55.0459C44.2118 55.0459 44.8218 55.2759 45.2418 55.7359C45.6618 56.1859 45.8718 56.8359 45.8718 57.6859V58.5859H44.3118V57.5809C44.3118 56.8909 44.0268 56.5459 43.4568 56.5459C42.8868 56.5459 42.6018 56.8909 42.6018 57.5809V63.3259C42.6018 64.0059 42.8868 64.3459 43.4568 64.3459C44.0268 64.3459 44.3118 64.0059 44.3118 63.3259V61.2709H43.4868V59.7709H45.8718V63.2059C45.8718 64.0559 45.6618 64.7109 45.2418 65.1709C44.8218 65.6209 44.2118 65.8459 43.4118 65.8459Z" fill="#EE6338"/>
<path d="M46.9312 55.1959H51.4312V56.6959H48.5812V59.4709H50.8462V60.9709H48.5812V64.1959L51.4312 64.1959V65.6959L46.9312 65.6959V55.1959Z" fill="#EE6338"/>
</svg>
