<svg width="684" height="74" viewBox="0 0 684 74" fill="none" xmlns="http://www.w3.org/2000/svg">
<path d="M-13.0837 55.4441L10.3445 64.9161L32.8059 55.4441L56.4759 15.0809L78.541 1.48633L101.412 14.6673L123.477 46.9509H145.945H170.414L193.278 40.2019L218.157 52.1488L239.014 61.2073L262.294 55.8922L285.226 55.5544L309.137 43.2834L330.773 41.236L352.69 40.65L377.455 23.705L400.225 53.5069L423.217 60.0284L445.779 63.0134L470.248 58.7186L490.171 62.2758L512.941 67.8253L537.706 64.6128L560.758 67.8253H583.817L604.593 65.4883L629.928 70.4863L650.704 63.4478H677.463L696.855 68.2458" stroke="white" stroke-miterlimit="10" stroke-linecap="round"/>
<path d="M9.99171 66.6339C12.1431 66.6339 12.1498 63.1699 9.99171 63.1699C7.83359 63.1699 7.82689 66.6339 9.99171 66.6339Z" fill="white"/>
<path d="M32.3368 57.4054C34.495 57.4054 34.495 53.9414 32.3368 53.9414C30.1787 53.9414 30.1787 57.4054 32.3368 57.4054Z" fill="white"/>
<path d="M56.1967 17.1476C58.3548 17.1476 58.3548 13.6836 56.1967 13.6836C54.0386 13.6836 54.0386 17.1476 56.1967 17.1476Z" fill="white"/>
<path d="M78.2136 3.46398C80.365 3.46398 80.3717 0 78.2136 0C76.0555 0 76.0488 3.46398 78.2136 3.46398Z" fill="white"/>
<path d="M101.142 16.8273C103.293 16.8273 103.3 13.3633 101.142 13.3633C98.9837 13.3633 98.9837 16.8273 101.142 16.8273Z" fill="white"/>
<path d="M123.313 48.9738C125.471 48.9738 125.471 45.5098 123.313 45.5098C121.155 45.5098 121.155 48.9738 123.313 48.9738Z" fill="white"/>
<path d="M147.327 48.8214C149.485 48.8214 149.485 45.3574 147.327 45.3574C145.169 45.3574 145.169 48.8214 147.327 48.8214Z" fill="white"/>
<path d="M170.724 48.8214C172.882 48.8214 172.889 45.3574 170.724 45.3574C168.56 45.3574 168.566 48.8214 170.724 48.8214Z" fill="white"/>
<path d="M192.587 42.4484C194.738 42.4484 194.745 38.9844 192.587 38.9844C190.429 38.9844 190.429 42.4484 192.587 42.4484Z" fill="white"/>
<path d="M216.42 53.7472C218.578 53.7472 218.578 50.2832 216.42 50.2832C214.262 50.2832 214.262 53.7472 216.42 53.7472Z" fill="white"/>
<path d="M238.457 63.6124C240.615 63.6124 240.622 60.1484 238.457 60.1484C236.292 60.1484 236.299 63.6124 238.457 63.6124Z" fill="white"/>
<path d="M261.546 57.8839C263.704 57.8839 263.711 54.4199 261.546 54.4199C259.382 54.4199 259.388 57.8839 261.546 57.8839Z" fill="white"/>
<path d="M284.025 57.2452C286.183 57.2452 286.183 53.7812 284.025 53.7812C281.867 53.7812 281.867 57.2452 284.025 57.2452Z" fill="white"/>
<path d="M308.194 45.4757C310.345 45.4757 310.352 42.0117 308.194 42.0117C306.036 42.0117 306.029 45.4757 308.194 45.4757Z" fill="white"/>
<path d="M329.895 43.2784C332.053 43.2784 332.06 39.8145 329.895 39.8145C327.73 39.8145 327.737 43.2784 329.895 43.2784Z" fill="white"/>
<path d="M352.683 42.7667C354.834 42.7667 354.841 39.3027 352.683 39.3027C350.525 39.3027 350.518 42.7667 352.683 42.7667Z" fill="white"/>
<path d="M376.543 25.9034C378.694 25.9034 378.701 22.4395 376.543 22.4395C374.385 22.4395 374.378 25.9034 376.543 25.9034Z" fill="white"/>
<path d="M399.478 55.2843C401.636 55.2843 401.636 51.8203 399.478 51.8203C397.32 51.8203 397.32 55.2843 399.478 55.2843Z" fill="white"/>
<path d="M469.675 60.4863C472.282 60.4863 472.29 56.4863 469.675 56.4863C467.06 56.4863 467.068 60.4863 469.675 60.4863Z" fill="white"/>
<path d="M490.762 65.046C492.92 65.046 492.92 61.582 490.762 61.582C488.604 61.582 488.604 65.046 490.762 65.046Z" fill="white"/>
<path d="M512.156 70.4581C514.314 70.4581 514.321 66.9941 512.156 66.9941C509.991 66.9941 509.998 70.4581 512.156 70.4581Z" fill="white"/>
<path d="M602.984 67.9073C605.136 67.9073 605.142 64.4434 602.984 64.4434C600.826 64.4434 600.819 67.9073 602.984 67.9073Z" fill="white"/>
<path d="M628.071 72.9991C630.229 72.9991 630.236 69.5352 628.071 69.5352C625.906 69.5352 625.913 72.9991 628.071 72.9991Z" fill="white"/>
<path d="M674.718 65.046C676.869 65.046 676.876 61.582 674.718 61.582C672.56 61.582 672.553 65.046 674.718 65.046Z" fill="white"/>
<path d="M-12.1045 68.9046L11.5454 67.3156L33.3755 70.4863H57.3947L80.6819 68.9046L103.244 65.7265L126.901 70.4863L149.093 65.7265H172.381L195.675 68.1064L218.23 70.4863L240.429 68.1064L263.717 65.7265L285.553 59.3777L308.841 68.5019L331.403 64.9357L354.327 68.9046L376.889 70.4863L400.902 67.711L424.189 59.3777L446.751 62.5484L468.588 64.9357L492.238 45.4863L514.075 62.5484L538.812 66.5174L561.375 68.5019L583.574 66.5174L606.136 57.9863L629.423 66.9201L652.71 64.9357L676.367 68.1064H697.835" stroke="#12182E" stroke-miterlimit="10" stroke-linecap="round"/>
<path d="M11.1537 69.7705C13.3114 69.7705 13.3114 66.1328 11.1537 66.1328C8.99597 66.1328 8.99597 69.7705 11.1537 69.7705Z" fill="#12182E"/>
<path d="M34.1047 72.7666C36.2557 72.7666 36.2624 69.1289 34.1047 69.1289C31.947 69.1289 31.9403 72.7666 34.1047 72.7666Z" fill="#12182E"/>
<path d="M56.1911 73.0147C58.3421 73.0147 58.3488 69.377 56.1911 69.377C54.0334 69.377 54.0267 73.0147 56.1911 73.0147Z" fill="#12182E"/>
<path d="M78.914 70.9268C81.065 70.9268 81.0717 67.2891 78.914 67.2891C76.7563 67.2891 76.7496 70.9268 78.914 70.9268Z" fill="#12182E"/>
<path d="M102.481 67.4639C104.639 67.4639 104.646 63.8262 102.481 63.8262C100.317 63.8262 100.323 67.4639 102.481 67.4639Z" fill="#12182E"/>
<path d="M125.841 72.2862C127.999 72.2862 128.005 68.6484 125.841 68.6484C123.677 68.6484 123.683 72.2862 125.841 72.2862Z" fill="#12182E"/>
<path d="M148.356 67.2373C150.514 67.2373 150.514 63.5996 148.356 63.5996C146.198 63.5996 146.198 67.2373 148.356 67.2373Z" fill="#12182E"/>
<path d="M171.307 67.4639C173.458 67.4639 173.465 63.8262 171.307 63.8262C169.149 63.8262 169.142 67.4639 171.307 67.4639Z" fill="#12182E"/>
<path d="M193.373 70.003C195.531 70.003 195.538 66.3652 193.373 66.3652C191.209 66.3652 191.216 70.003 193.373 70.003Z" fill="#12182E"/>
<path d="M216.739 72.7666C218.891 72.7666 218.897 69.1289 216.739 69.1289C214.582 69.1289 214.575 72.7666 216.739 72.7666Z" fill="#12182E"/>
<path d="M239.884 69.7705C242.042 69.7705 242.042 66.1328 239.884 66.1328C237.727 66.1328 237.727 69.7705 239.884 69.7705Z" fill="#12182E"/>
<path d="M262.185 67.4639C264.337 67.4639 264.343 63.8262 262.185 63.8262C260.028 63.8262 260.021 67.4639 262.185 67.4639Z" fill="#12182E"/>
<path d="M283.629 61.4678C285.786 61.4678 285.793 57.8301 283.629 57.8301C281.464 57.8301 281.471 61.4678 283.629 61.4678Z" fill="#12182E"/>
<path d="M308.476 70.46C310.633 70.46 310.64 66.8223 308.476 66.8223C306.311 66.8223 306.318 70.46 308.476 70.46Z" fill="#12182E"/>
<path d="M329.718 67.2373C331.869 67.2373 331.876 63.5996 329.718 63.5996C327.56 63.5996 327.554 67.2373 329.718 67.2373Z" fill="#12182E"/>
<path d="M352.863 71.1514C355.021 71.1514 355.021 67.5137 352.863 67.5137C350.705 67.5137 350.705 71.1514 352.863 71.1514Z" fill="#12182E"/>
<path d="M375.164 72.5342C377.315 72.5342 377.321 68.8965 375.164 68.8965C373.006 68.8965 372.999 72.5342 375.164 72.5342Z" fill="#12182E"/>
<path d="M400.153 69.4863C402.756 69.4863 402.764 66.4863 400.153 66.4863C397.542 66.4863 397.534 69.4863 400.153 69.4863Z" fill="#12182E"/>
<path d="M423.162 61.4863C425.12 61.4863 425.12 57.4863 423.162 57.4863C421.203 57.4863 421.203 61.4863 423.162 61.4863Z" fill="#12182E"/>
<path d="M445.684 64.4863C447.639 64.4863 447.645 60.4863 445.684 60.4863C443.722 60.4863 443.729 64.4863 445.684 64.4863Z" fill="#12182E"/>
<path d="M468.206 66.4863C470.162 66.4863 470.168 63.4863 468.206 63.4863C466.245 63.4863 466.251 66.4863 468.206 66.4863Z" fill="#12182E"/>
<path d="M491.111 47.6377C493.269 47.6377 493.269 44 491.111 44C488.953 44 488.953 47.6377 491.111 47.6377Z" fill="#12182E"/>
<path d="M512.775 64.2412C514.926 64.2412 514.933 60.6035 512.775 60.6035C510.617 60.6035 510.617 64.2412 512.775 64.2412Z" fill="#12182E"/>
<path d="M535.92 69.0791C538.078 69.0791 538.078 65.4414 535.92 65.4414C533.762 65.4414 533.762 69.0791 535.92 69.0791Z" fill="#12182E"/>
<path d="M559.494 70.2276C561.652 70.2276 561.652 66.5898 559.494 66.5898C557.336 66.5898 557.336 70.2276 559.494 70.2276Z" fill="#12182E"/>
<path d="M581.795 69.5362C583.946 69.5362 583.953 65.8984 581.795 65.8984C579.637 65.8984 579.63 69.5362 581.795 69.5362Z" fill="#12182E"/>
<path d="M604.726 59.8526C606.883 59.8526 606.89 56.2148 604.726 56.2148C602.561 56.2148 602.568 59.8526 604.726 59.8526Z" fill="#12182E"/>
<path d="M627.878 69.0791C630.029 69.0791 630.035 65.4414 627.878 65.4414C625.72 65.4414 625.713 69.0791 627.878 69.0791Z" fill="#12182E"/>
<path d="M650.601 66.7725C652.752 66.7725 652.758 63.1348 650.601 63.1348C648.443 63.1348 648.436 66.7725 650.601 66.7725Z" fill="#12182E"/>
<path d="M673.531 70.003C675.689 70.003 675.696 66.3652 673.531 66.3652C671.367 66.3652 671.374 70.003 673.531 70.003Z" fill="#12182E"/>
</svg>
