<svg width="96" height="96" viewBox="0 0 96 96" fill="none" xmlns="http://www.w3.org/2000/svg">
<circle cx="47.8709" cy="48.073" r="34" transform="rotate(-31 47.8709 48.073)" fill="#FAF5EE" stroke="#504DE6"/>
<path fill-rule="evenodd" clip-rule="evenodd" d="M50.7979 36.8159L61.5176 39.4487C62.1755 39.6103 62.574 40.2736 62.4078 40.9302L59.6999 51.6312C59.5337 52.2879 58.8657 52.6892 58.2079 52.5277C57.5501 52.3661 57.1516 51.7028 57.3177 51.0461L59.2993 43.2156L36.5268 56.8987C35.9442 57.2488 35.19 57.0636 34.8424 56.485C34.4947 55.9064 34.6852 55.1536 35.2679 54.8035L58.0404 41.1204L50.1962 39.1939C49.5384 39.0323 49.1398 38.369 49.306 37.7123C49.4721 37.0557 50.1401 36.6543 50.7979 36.8159Z" fill="#504DE6"/>
</svg>
