<svg width="86" height="29" viewBox="0 0 86 29" fill="none" xmlns="http://www.w3.org/2000/svg">
<path d="M5.5226 16.087H0.162598V12.967H5.5226V7.56695H8.6426V12.967H14.0026V16.087H8.6426V21.567H5.5226V16.087Z" fill="#504DE6"/>
<path d="M29.3045 7.16695H24.7045V4.04695C25.9578 4.04695 26.9578 3.94029 27.7045 3.72695C28.4778 3.51362 29.0911 3.16695 29.5445 2.68695C29.9978 2.18029 30.3978 1.46029 30.7445 0.526953H33.7045V28.527H29.3045V7.16695Z" fill="#504DE6"/>
<path d="M39.0801 25.487C39.0801 23.487 39.4001 21.7803 40.0401 20.367C40.6801 18.927 41.8268 17.3403 43.4801 15.607C45.1068 13.8736 46.2268 12.3936 46.8401 11.167C47.4801 9.94029 47.8001 8.66029 47.8001 7.32695C47.8001 6.12695 47.6001 5.30029 47.2001 4.84695C46.8268 4.36695 46.2668 4.12695 45.5201 4.12695C44.0001 4.12695 43.2401 5.04695 43.2401 6.88695V9.88695H39.0801V7.16695C39.0801 4.90029 39.6401 3.16695 40.7601 1.96695C41.8801 0.740286 43.5068 0.126953 45.6401 0.126953C47.7734 0.126953 49.4001 0.740286 50.5201 1.96695C51.6401 3.16695 52.2001 4.90029 52.2001 7.16695C52.2001 8.87362 51.7868 10.5403 50.9601 12.167C50.1601 13.7936 48.7601 15.6603 46.7601 17.767C45.4534 19.1536 44.5734 20.287 44.1201 21.167C43.6668 22.0203 43.4401 22.9403 43.4401 23.927V24.527H51.8001V28.527H39.0801V25.487Z" fill="#504DE6"/>
<path d="M61.5357 28.927C59.3757 28.927 57.7224 28.3136 56.5757 27.087C55.4291 25.8603 54.8557 24.127 54.8557 21.887V7.16695C54.8557 4.92695 55.4291 3.19362 56.5757 1.96695C57.7224 0.740286 59.3757 0.126953 61.5357 0.126953C63.6957 0.126953 65.3491 0.740286 66.4957 1.96695C67.6424 3.19362 68.2157 4.92695 68.2157 7.16695V21.887C68.2157 24.127 67.6424 25.8603 66.4957 27.087C65.3491 28.3136 63.6957 28.927 61.5357 28.927ZM61.5357 24.927C63.0557 24.927 63.8157 24.007 63.8157 22.167V6.88695C63.8157 5.04695 63.0557 4.12695 61.5357 4.12695C60.0157 4.12695 59.2557 5.04695 59.2557 6.88695V22.167C59.2557 24.007 60.0157 24.927 61.5357 24.927Z" fill="#504DE6"/>
<path d="M71.1913 0.526953H75.5913V12.327L81.1913 0.526953H85.5913L80.3513 10.807L85.6713 28.527H81.0714L77.3513 16.047L75.5913 19.607V28.527H71.1913V0.526953Z" fill="#504DE6"/>
</svg>
