<svg width="66" height="67" viewBox="0 0 66 67" fill="none" xmlns="http://www.w3.org/2000/svg">
<path d="M21.3728 54.5147H24.1924C25.1726 54.5147 25.8912 54.7147 26.3483 55.1147C26.8051 55.5046 27.0409 56.1095 27.0558 56.9294L27.0675 57.5743C27.0873 58.6642 26.6846 59.3541 25.8596 59.6441L25.8601 59.6741C26.3236 59.7941 26.6509 60.039 26.8421 60.409C27.0449 60.779 27.1519 61.2739 27.1631 61.8938L27.1966 63.7386C27.202 64.0385 27.218 64.2835 27.2445 64.4735C27.2709 64.6535 27.3318 64.8335 27.4273 65.0134H25.4899C25.4176 64.8435 25.3686 64.6835 25.3428 64.5335C25.317 64.3835 25.3006 64.1135 25.2935 63.7236L25.2587 61.8038C25.25 61.3239 25.1517 60.9889 24.9637 60.799C24.7873 60.609 24.48 60.514 24.0418 60.514H23.3844L23.4661 65.0134H21.5633L21.3728 54.5147ZM24.0492 59.0142C24.4297 59.0142 24.7107 58.9292 24.8921 58.7592C25.0851 58.5892 25.1779 58.3043 25.1707 57.9043L25.156 57.0944C25.1491 56.7145 25.0634 56.4395 24.8989 56.2695C24.7459 56.0995 24.5022 56.0145 24.1677 56.0145H23.3028L23.3572 59.0142H24.0492Z" fill="#504DE6"/>
<path d="M28.3495 54.5147H33.5389L33.5661 56.0145H30.2795L30.3298 58.7892H32.9418L32.969 60.289H30.357L30.4155 63.5136H33.7021L33.7293 65.0134H28.5399L28.3495 54.5147Z" fill="#504DE6"/>
<path d="M37.3341 65.1634C36.4115 65.1634 35.7098 64.9384 35.2288 64.4885C34.7476 64.0286 34.4993 63.3736 34.4839 62.5237L34.473 61.9238H36.272L36.2851 62.6437C36.2974 63.3236 36.6323 63.6636 37.2896 63.6636C37.6125 63.6636 37.8532 63.5836 38.0117 63.4236C38.1816 63.2536 38.2632 62.9837 38.2565 62.6137C38.2485 62.1738 38.1262 61.7888 37.8896 61.4589C37.6528 61.1189 37.2188 60.714 36.5875 60.244C35.7925 59.6441 35.2349 59.1042 34.9148 58.6242C34.5946 58.1343 34.4289 57.5843 34.4179 56.9744C34.4028 56.1445 34.6334 55.5046 35.1096 55.0547C35.5856 54.5947 36.2848 54.3647 37.2074 54.3647C38.1184 54.3647 38.8088 54.5947 39.2784 55.0547C39.7594 55.5046 40.0075 56.1545 40.023 57.0044L40.0309 57.4394H38.2319L38.2221 56.8994C38.2155 56.5395 38.1301 56.2795 37.9657 56.1195C37.8012 55.9496 37.5633 55.8646 37.2519 55.8646C36.6176 55.8646 36.3066 56.1995 36.3187 56.8694C36.3256 57.2494 36.4474 57.6043 36.684 57.9343C36.9322 58.2643 37.3719 58.6642 38.0031 59.1342C38.8097 59.7341 39.3674 60.279 39.6761 60.769C39.9848 61.2589 40.1452 61.8338 40.1571 62.4937C40.1727 63.3536 39.9368 64.0136 39.4492 64.4735C38.9732 64.9334 38.2682 65.1634 37.3341 65.1634Z" fill="#504DE6"/>
<path d="M44.0642 65.1634C43.1417 65.1634 42.4341 64.9384 41.9416 64.4885C41.4489 64.0286 41.1949 63.3736 41.1795 62.5237L41.0342 54.5147H42.937L43.0844 62.6437C43.091 63.0037 43.1764 63.2636 43.3407 63.4236C43.5166 63.5836 43.7603 63.6636 44.0716 63.6636C44.383 63.6636 44.6179 63.5836 44.7765 63.4236C44.9466 63.2636 45.0283 63.0037 45.0218 62.6437L44.8744 54.5147H46.7079L46.8532 62.5237C46.8686 63.3736 46.6383 64.0286 46.1623 64.4885C45.6862 64.9384 44.9868 65.1634 44.0642 65.1634Z" fill="#504DE6"/>
<path d="M48.0631 54.5147H49.9659L50.1292 63.5136H53.2601L53.2873 65.0134H48.2536L48.0631 54.5147Z" fill="#504DE6"/>
<path d="M54.1728 56.0145H52.1835L52.1563 54.5147H58.0376L58.0648 56.0145H56.0755L56.2388 65.0134H54.336L54.1728 56.0145Z" fill="#504DE6"/>
<path d="M38.979 27.4072L38.5437 26.7203L38.1272 27.4188L29.226 42.3471L13.404 42.3375L38.0487 1.00385L64.2549 42.3687L48.4533 42.3592L38.979 27.4072Z" stroke="#504DE6"/>
</svg>
