<svg width="92" height="29" viewBox="0 0 92 29" fill="none" xmlns="http://www.w3.org/2000/svg">
<path d="M5.71742 16.087H0.357422V12.967H5.71742V7.56695H8.83742V12.967H14.1974V16.087H8.83742V21.567H5.71742V16.087Z" fill="#504DE6"/>
<path d="M30.6993 23.447H22.2993V19.447L30.2993 0.526953H35.0993V19.447H37.1793V23.447H35.0993V28.527H30.6993V23.447ZM30.6993 19.447V8.52695H30.6193L26.2993 19.447H30.6993Z" fill="#504DE6"/>
<path d="M45.7149 28.927C43.5549 28.927 41.9016 28.3136 40.7549 27.087C39.6083 25.8603 39.0349 24.127 39.0349 21.887V7.16695C39.0349 4.92695 39.6083 3.19362 40.7549 1.96695C41.9016 0.740286 43.5549 0.126953 45.7149 0.126953C47.8749 0.126953 49.5283 0.740286 50.6749 1.96695C51.8216 3.19362 52.3949 4.92695 52.3949 7.16695V21.887C52.3949 24.127 51.8216 25.8603 50.6749 27.087C49.5283 28.3136 47.8749 28.927 45.7149 28.927ZM45.7149 24.927C47.2349 24.927 47.9949 24.007 47.9949 22.167V6.88695C47.9949 5.04695 47.2349 4.12695 45.7149 4.12695C44.1949 4.12695 43.4349 5.04695 43.4349 6.88695V22.167C43.4349 24.007 44.1949 24.927 45.7149 24.927Z" fill="#504DE6"/>
<path d="M61.6105 28.927C59.4505 28.927 57.8105 28.327 56.6905 27.127C55.5972 25.927 55.0505 24.207 55.0505 21.967V19.687H59.2105V22.167C59.2105 24.007 59.9705 24.927 61.4905 24.927C62.2372 24.927 62.7972 24.7003 63.1705 24.247C63.5705 23.767 63.7705 22.9403 63.7705 21.767V19.487C63.7705 18.207 63.5439 17.3003 63.0905 16.767C62.6372 16.207 61.9039 15.927 60.8905 15.927H59.4105V11.927H61.0105C61.8905 11.927 62.5439 11.7003 62.9705 11.247C63.4239 10.7936 63.6505 10.0336 63.6505 8.96695V6.92695C63.6505 5.96695 63.4505 5.26029 63.0505 4.80695C62.6505 4.35362 62.1172 4.12695 61.4505 4.12695C60.0372 4.12695 59.3305 4.99362 59.3305 6.72695V8.56695H55.1705V7.08695C55.1705 4.84695 55.7172 3.12695 56.8105 1.92695C57.9305 0.726953 59.5305 0.126953 61.6105 0.126953C63.7172 0.126953 65.3172 0.726953 66.4105 1.92695C67.5039 3.10029 68.0505 4.80695 68.0505 7.04695V8.04695C68.0505 9.56695 67.7972 10.7936 67.2905 11.727C66.7839 12.6336 65.9972 13.287 64.9305 13.687V13.767C66.0772 14.1936 66.9039 14.887 67.4105 15.847C67.9172 16.807 68.1705 18.0336 68.1705 19.527V22.007C68.1705 24.247 67.6105 25.967 66.4905 27.167C65.3972 28.3403 63.7705 28.927 61.6105 28.927Z" fill="#504DE6"/>
<path d="M75.3862 16.087C73.9995 16.087 72.9462 15.7003 72.2262 14.927C71.5062 14.1536 71.1462 13.047 71.1462 11.607V4.60695C71.1462 3.16695 71.5062 2.06029 72.2262 1.28695C72.9462 0.51362 73.9995 0.126953 75.3862 0.126953C76.7728 0.126953 77.8262 0.51362 78.5462 1.28695C79.2662 2.06029 79.6262 3.16695 79.6262 4.60695V11.607C79.6262 13.047 79.2662 14.1536 78.5462 14.927C77.8262 15.7003 76.7728 16.087 75.3862 16.087ZM85.5462 0.526953H88.3462L77.5062 28.527H74.7062L85.5462 0.526953ZM75.3862 13.567C76.3462 13.567 76.8262 12.9803 76.8262 11.807V4.40695C76.8262 3.23362 76.3462 2.64695 75.3862 2.64695C74.4262 2.64695 73.9462 3.23362 73.9462 4.40695V11.807C73.9462 12.9803 74.4262 13.567 75.3862 13.567ZM87.6662 28.927C86.2795 28.927 85.2262 28.5403 84.5062 27.767C83.7862 26.9936 83.4262 25.887 83.4262 24.447V17.447C83.4262 16.007 83.7862 14.9003 84.5062 14.127C85.2262 13.3536 86.2795 12.967 87.6662 12.967C89.0528 12.967 90.1062 13.3536 90.8262 14.127C91.5462 14.9003 91.9062 16.007 91.9062 17.447V24.447C91.9062 25.887 91.5462 26.9936 90.8262 27.767C90.1062 28.5403 89.0528 28.927 87.6662 28.927ZM87.6662 26.407C88.6262 26.407 89.1062 25.8203 89.1062 24.647V17.247C89.1062 16.0736 88.6262 15.487 87.6662 15.487C86.7062 15.487 86.2262 16.0736 86.2262 17.247V24.647C86.2262 25.8203 86.7062 26.407 87.6662 26.407Z" fill="#504DE6"/>
</svg>
