<svg width="52" height="66" viewBox="0 0 52 66" fill="none" xmlns="http://www.w3.org/2000/svg">
<path d="M27.9212 31.151L28.7345 31.153L28.3691 30.4264L20.5614 14.8983L29.0705 1.55932L50.6894 44.553L1.7221 44.4297L10.2203 31.108L27.9212 31.151Z" stroke="#504DE6"/>
<path d="M7.19597 65.6636C6.39597 65.6636 5.79487 65.4386 5.39267 64.9887C4.99064 64.5288 4.79699 63.8739 4.81172 63.024L4.82212 62.4241H6.38212L6.36964 63.144C6.35786 63.8239 6.63697 64.1638 7.20697 64.1638C7.48697 64.1638 7.69835 64.0839 7.84112 63.9239C7.99407 63.7539 8.07375 63.4839 8.08016 63.114C8.08779 62.6741 7.99446 62.2891 7.80018 61.9592C7.60607 61.6192 7.24309 61.2143 6.71123 60.7444C6.04163 60.1444 5.57599 59.6045 5.3143 59.1246C5.05279 58.6347 4.92733 58.0848 4.9379 57.4748C4.95228 56.645 5.17337 56.0051 5.60117 55.5551C6.02914 55.0952 6.64312 54.8652 7.44312 54.8652C8.23312 54.8652 8.82414 55.0952 9.21617 55.5551C9.61837 56.0051 9.81211 56.655 9.79738 57.5048L9.78984 57.9398H8.22984L8.2392 57.3999C8.24543 57.0399 8.17994 56.7799 8.04271 56.62C7.90566 56.45 7.70213 56.365 7.43213 56.365C6.88213 56.365 6.60133 56.7 6.58972 57.3699C6.58313 57.7498 6.67698 58.1047 6.87126 58.4347C7.07554 58.7646 7.44361 59.1646 7.97547 59.6345C8.65507 60.2344 9.12062 60.7793 9.37213 61.2693C9.62364 61.7592 9.74368 62.3341 9.73224 62.994C9.71734 63.8539 9.4909 64.5138 9.05293 64.9737C8.62496 65.4336 8.00597 65.6636 7.19597 65.6636Z" fill="#504DE6"/>
<path d="M13.017 65.6636C12.207 65.6636 11.591 65.4336 11.169 64.9737C10.747 64.5138 10.5432 63.8639 10.5578 63.024L10.6534 57.5048C10.668 56.665 10.8943 56.0151 11.3322 55.5551C11.7702 55.0952 12.3942 54.8652 13.2042 54.8652C14.0142 54.8652 14.6302 55.0952 15.0522 55.5551C15.4743 56.0151 15.678 56.665 15.6634 57.5048L15.5678 63.024C15.5532 63.8639 15.327 64.5138 14.889 64.9737C14.451 65.4336 13.827 65.6636 13.017 65.6636ZM13.043 64.1638C13.613 64.1638 13.904 63.8189 13.916 63.129L14.0152 57.3999C14.0272 56.71 13.7482 56.365 13.1782 56.365C12.6082 56.365 12.3172 56.71 12.3053 57.3999L12.206 63.129C12.194 63.8189 12.473 64.1638 13.043 64.1638Z" fill="#504DE6"/>
<path d="M16.8224 55.0152H18.4724L18.3165 64.0139H21.0315L21.0055 65.5136H16.6405L16.8224 55.0152Z" fill="#504DE6"/>
<path d="M24.1941 65.6636C23.3941 65.6636 22.788 65.4386 22.3758 64.9887C21.9638 64.5288 21.7652 63.8739 21.7799 63.024L21.9187 55.0152H23.5687L23.4278 63.144C23.4216 63.5039 23.4871 63.7639 23.6243 63.9239C23.7715 64.0839 23.9801 64.1638 24.2501 64.1638C24.5201 64.1638 24.7265 64.0839 24.8693 63.9239C25.0221 63.7639 25.1016 63.5039 25.1078 63.144L25.2487 55.0152H26.8387L26.6999 63.024C26.6852 63.8739 26.4638 64.5288 26.0358 64.9887C25.608 65.4386 24.9941 65.6636 24.1941 65.6636Z" fill="#504DE6"/>
<path d="M29.2778 56.515H27.5529L27.5788 55.0152H32.6788L32.6528 56.515H30.9279L30.7719 65.5136H29.1219L29.2778 56.515Z" fill="#504DE6"/>
<path d="M33.4777 55.0152H35.1277L34.9458 65.5136H33.2958L33.4777 55.0152Z" fill="#504DE6"/>
<path d="M38.5639 65.6636C37.7539 65.6636 37.1379 65.4336 36.7159 64.9737C36.2938 64.5138 36.0901 63.8639 36.1046 63.024L36.2003 57.5048C36.2149 56.665 36.4411 56.0151 36.8791 55.5551C37.3171 55.0952 37.941 54.8652 38.7511 54.8652C39.5611 54.8652 40.1771 55.0952 40.5991 55.5551C41.0211 56.0151 41.2249 56.665 41.2103 57.5048L41.1147 63.024C41.1001 63.8639 40.8738 64.5138 40.4359 64.9737C39.9979 65.4336 39.3739 65.6636 38.5639 65.6636ZM38.5899 64.1638C39.1599 64.1638 39.4509 63.8189 39.4628 63.129L39.5621 57.3999C39.5741 56.71 39.2951 56.365 38.7251 56.365C38.1551 56.365 37.8641 56.71 37.8521 57.3999L37.7528 63.129C37.7409 63.8189 38.0199 64.1638 38.5899 64.1638Z" fill="#504DE6"/>
<path d="M42.3693 55.0152H44.4393L45.9354 61.2993H45.9654L46.0743 55.0152H47.5443L47.3624 65.5136H45.6674L43.8202 57.8498H43.7902L43.6574 65.5136H42.1874L42.3693 55.0152Z" fill="#504DE6"/>
</svg>
