<svg width="92" height="29" viewBox="0 0 92 29" fill="none" xmlns="http://www.w3.org/2000/svg">
<path d="M5.40834 16.087H0.0483398V12.967H5.40834V7.56695H8.52834V12.967H13.8883V16.087H8.52834V21.567H5.40834V16.087Z" fill="#504DE6"/>
<path d="M29.1902 7.16695H24.5902V4.04695C25.8435 4.04695 26.8435 3.94029 27.5902 3.72695C28.3636 3.51362 28.9769 3.16695 29.4302 2.68695C29.8835 2.18029 30.2835 1.46029 30.6302 0.526953H33.5902V28.527H29.1902V7.16695Z" fill="#504DE6"/>
<path d="M45.2058 7.16695H40.6058V4.04695C41.8592 4.04695 42.8592 3.94029 43.6058 3.72695C44.3792 3.51362 44.9925 3.16695 45.4458 2.68695C45.8992 2.18029 46.2992 1.46029 46.6458 0.526953H49.6058V28.527H45.2058V7.16695Z" fill="#504DE6"/>
<path d="M54.9815 25.487C54.9815 23.487 55.3015 21.7803 55.9415 20.367C56.5815 18.927 57.7281 17.3403 59.3815 15.607C61.0081 13.8736 62.1281 12.3936 62.7415 11.167C63.3815 9.94029 63.7015 8.66029 63.7015 7.32695C63.7015 6.12695 63.5015 5.30029 63.1015 4.84695C62.7281 4.36695 62.1681 4.12695 61.4215 4.12695C59.9015 4.12695 59.1415 5.04695 59.1415 6.88695V9.88695H54.9815V7.16695C54.9815 4.90029 55.5415 3.16695 56.6615 1.96695C57.7815 0.740286 59.4081 0.126953 61.5415 0.126953C63.6748 0.126953 65.3015 0.740286 66.4215 1.96695C67.5415 3.16695 68.1015 4.90029 68.1015 7.16695C68.1015 8.87362 67.6881 10.5403 66.8615 12.167C66.0615 13.7936 64.6615 15.6603 62.6615 17.767C61.3548 19.1536 60.4748 20.287 60.0215 21.167C59.5681 22.0203 59.3415 22.9403 59.3415 23.927V24.527H67.7015V28.527H54.9815V25.487Z" fill="#504DE6"/>
<path d="M75.0771 16.087C73.6904 16.087 72.6371 15.7003 71.9171 14.927C71.1971 14.1536 70.8371 13.047 70.8371 11.607V4.60695C70.8371 3.16695 71.1971 2.06029 71.9171 1.28695C72.6371 0.51362 73.6904 0.126953 75.0771 0.126953C76.4638 0.126953 77.5171 0.51362 78.2371 1.28695C78.9571 2.06029 79.3171 3.16695 79.3171 4.60695V11.607C79.3171 13.047 78.9571 14.1536 78.2371 14.927C77.5171 15.7003 76.4638 16.087 75.0771 16.087ZM85.2371 0.526953H88.0371L77.1971 28.527H74.3971L85.2371 0.526953ZM75.0771 13.567C76.0371 13.567 76.5171 12.9803 76.5171 11.807V4.40695C76.5171 3.23362 76.0371 2.64695 75.0771 2.64695C74.1171 2.64695 73.6371 3.23362 73.6371 4.40695V11.807C73.6371 12.9803 74.1171 13.567 75.0771 13.567ZM87.3571 28.927C85.9704 28.927 84.9171 28.5403 84.1971 27.767C83.4771 26.9936 83.1171 25.887 83.1171 24.447V17.447C83.1171 16.007 83.4771 14.9003 84.1971 14.127C84.9171 13.3536 85.9704 12.967 87.3571 12.967C88.7438 12.967 89.7971 13.3536 90.5171 14.127C91.2371 14.9003 91.5971 16.007 91.5971 17.447V24.447C91.5971 25.887 91.2371 26.9936 90.5171 27.767C89.7971 28.5403 88.7438 28.927 87.3571 28.927ZM87.3571 26.407C88.3171 26.407 88.7971 25.8203 88.7971 24.647V17.247C88.7971 16.0736 88.3171 15.487 87.3571 15.487C86.3971 15.487 85.9171 16.0736 85.9171 17.247V24.647C85.9171 25.8203 86.3971 26.407 87.3571 26.407Z" fill="#504DE6"/>
</svg>
