<svg width="51" height="66" viewBox="0 0 51 66" fill="none" xmlns="http://www.w3.org/2000/svg">
<path d="M23.2808 31.2059L22.926 31.9277L23.7303 31.9265L41.4274 31.9007L49.9241 45.6L0.935469 45.6687L22.6178 1.579L31.1127 15.2754L23.2808 31.2059Z" stroke="#504DE6"/>
<path d="M23.2808 31.2059L22.926 31.9277L23.7303 31.9265L41.4274 31.9007L49.9241 45.6L0.935469 45.6687L22.6178 1.579L31.1127 15.2754L23.2808 31.2059Z" stroke="#504DE6"/>
<path d="M23.2808 31.2059L22.926 31.9277L23.7303 31.9265L41.4274 31.9007L49.9241 45.6L0.935469 45.6687L22.6178 1.579L31.1127 15.2754L23.2808 31.2059Z" stroke="#504DE6"/>
<path d="M2.56184 65.6643C1.77184 65.6643 1.16684 65.4393 0.746836 64.9893C0.336836 64.5393 0.131836 63.9043 0.131836 63.0843L0.131836 57.4443C0.131836 56.6243 0.336836 55.9893 0.746836 55.5393C1.16684 55.0893 1.77184 54.8643 2.56184 54.8643C3.35184 54.8643 3.95184 55.0893 4.36184 55.5393C4.78184 55.9893 4.99184 56.6243 4.99184 57.4443L4.99184 58.5543H3.43184V57.3393C3.43184 56.6893 3.15684 56.3643 2.60684 56.3643C2.05684 56.3643 1.78184 56.6893 1.78184 57.3393L1.78184 63.2043C1.78184 63.8443 2.05684 64.1643 2.60684 64.1643C3.15684 64.1643 3.43184 63.8443 3.43184 63.2043L3.43184 61.5993H4.99184V63.0843C4.99184 63.9043 4.78184 64.5393 4.36184 64.9893C3.95184 65.4393 3.35184 65.6643 2.56184 65.6643Z" fill="#504DE6"/>
<path d="M5.97902 55.0143H7.62902L7.62902 59.2893H9.39902V55.0143H11.049L11.049 65.5143H9.39902V60.7893H7.62902L7.62902 65.5143H5.97902L5.97902 55.0143Z" fill="#504DE6"/>
<path d="M13.5529 55.0143H15.7879L17.4979 65.5143H15.8479L15.5479 63.4293V63.4593H13.6729L13.3729 65.5143H11.8429L13.5529 55.0143ZM15.3529 62.0343L14.6179 56.8443H14.5879L13.8679 62.0343H15.3529Z" fill="#504DE6"/>
<path d="M18.2984 55.0143H19.9484V64.0143H22.6634V65.5143H18.2984V55.0143Z" fill="#504DE6"/>
<path d="M23.4546 55.0143H25.1046V64.0143H27.8196V65.5143H23.4546V55.0143Z" fill="#504DE6"/>
<path d="M28.6109 55.0143H33.1109V56.5143H30.2609V59.2893H32.5259V60.7893H30.2609V64.0143H33.1109V65.5143H28.6109V55.0143Z" fill="#504DE6"/>
<path d="M34.0601 55.0143H36.1301L37.7351 61.2993H37.7651V55.0143H39.2351V65.5143H37.5401L35.5601 57.8493H35.5301V65.5143H34.0601V55.0143Z" fill="#504DE6"/>
<path d="M42.8014 65.6643C42.0014 65.6643 41.3914 65.4393 40.9714 64.9893C40.5514 64.5293 40.3414 63.8743 40.3414 63.0243V57.5043C40.3414 56.6543 40.5514 56.0043 40.9714 55.5543C41.3914 55.0943 42.0014 54.8643 42.8014 54.8643C43.6014 54.8643 44.2114 55.0943 44.6314 55.5543C45.0514 56.0043 45.2614 56.6543 45.2614 57.5043V58.4043H43.7014V57.3993C43.7014 56.7093 43.4164 56.3643 42.8464 56.3643C42.2764 56.3643 41.9914 56.7093 41.9914 57.3993V63.1443C41.9914 63.8243 42.2764 64.1643 42.8464 64.1643C43.4164 64.1643 43.7014 63.8243 43.7014 63.1443V61.0893H42.8764V59.5893H45.2614V63.0243C45.2614 63.8743 45.0514 64.5293 44.6314 64.9893C44.2114 65.4393 43.6014 65.6643 42.8014 65.6643Z" fill="#504DE6"/>
<path d="M46.3208 55.0143H50.8208V56.5143H47.9708V59.2893H50.2358V60.7893H47.9708V64.0143L50.8208 64.0143V65.5143L46.3208 65.5143V55.0143Z" fill="#504DE6"/>
</svg>
