<svg fill="none" xmlns="http://www.w3.org/2000/svg" viewBox="0 0 72 90"><path d="M36 4v65A33 33 0 0 1 7 22v-1A33 33 0 0 1 36 4Z" fill="#4E5AE4"/><path d="M33 4v65l3-3C20 66 6 53 6 36 6 20 20 7 36 6c4 0 4-6 0-5C17 1 0 17 0 36c0 20 17 36 36 36a3 3 0 0 0 3-3V4c0-4-6-4-6 0Z" fill="#4E5AE4"/><path d="m12 46 24 7V21l-23 7" fill="#4E5AE4"/><path d="m12 49 23 7a3 3 0 0 0 4-3V21a3 3 0 0 0-4-2l-23 6c-3 1-2 7 2 6l23-7-4-3v32l4-3-24-7c-4-1-5 5-1 6Z" fill="#4E5AE4"/><path d="M15 36a17 17 0 0 1-8 15 33 33 0 0 1 0-29v-1a17 17 0 0 1 8 15Z" fill="#4E5AE4"/><path d="M12 36a15 15 0 0 1-7 12l5 2a30 30 0 0 1-1-27l-4 1a15 15 0 0 1 7 12c0 4 6 4 6 0A21 21 0 0 0 8 19a3 3 0 0 0-4 1 36 36 0 0 0 0 33 3 3 0 0 0 4 1 21 21 0 0 0 10-18c0-4-6-4-6 0ZM36 87V21a33 33 0 0 1 30 47l-1 1a33 33 0 0 1-29 18Z" fill="#4E5AE4"/><path d="M39 87V21l-3 3c16 0 30 13 30 30 0 16-14 29-30 30-4 0-4 6 0 6 20-1 36-17 36-36 0-20-16-36-36-36a3 3 0 0 0-3 3v66c0 3 6 3 6 0Z" fill="#4E5AE4"/><path d="m60 44-24-7v32l23-7" fill="#4E5AE4"/><path d="m61 41-24-7a3 3 0 0 0-4 3v32a3 3 0 0 0 4 2l23-6c4-1 2-7-2-6l-23 7 4 3V37l-4 3 24 7c4 1 6-5 2-6Z" fill="#4E5AE4"/><path d="M57 54a17 17 0 0 1 8-15h1a33 33 0 0 1 0 29l-1 1a17 17 0 0 1-8-15Z" fill="#4E5AE4"/><path d="M60 54a15 15 0 0 1 7-12l-4-2a30 30 0 0 1 0 27l4-1a15 15 0 0 1-7-12c0-4-6-4-6 0a21 21 0 0 0 10 17 3 3 0 0 0 4-1 36 36 0 0 0 0-33 3 3 0 0 0-4-1 21 21 0 0 0-10 18c0 4 6 4 6 0ZM36 4v65A33 33 0 0 1 7 22v-1A33 33 0 0 1 36 4Z" fill="#4E5AE4"/><path d="m12 46 24 7V21l-23 7-1 18Z" fill="#4E5AE4"/><path d="M15 36a17 17 0 0 1-8 15 33 33 0 0 1 0-29v-1a17 17 0 0 1 8 15ZM36 87V21a33 33 0 0 1 30 47l-1 1a33 33 0 0 1-29 18Z" fill="#4E5AE4"/><path d="m60 44-24-7v32l23-7 1-18Z" fill="#4E5AE4"/><path d="M57 54a17 17 0 0 1 8-15h1a33 33 0 0 1 0 29l-1 1a17 17 0 0 1-8-15Z" fill="#4E5AE4"/><path d="M36 4v65A33 33 0 0 1 7 22v-1A33 33 0 0 1 36 4Z" fill="#4E5AE4" stroke="#FAF5EE" stroke-miterlimit="10"/><path d="m12 46 24 7V21l-23 7" fill="#4E5AE4"/><path d="m12 46 24 7V21l-23 7" stroke="#FAF5EE" stroke-miterlimit="10"/><path d="M15 36a17 17 0 0 1-8 15 33 33 0 0 1 0-29v-1a17 17 0 0 1 8 15ZM36 87V21a33 33 0 0 1 30 47l-1 1a33 33 0 0 1-29 18Z" fill="#4E5AE4" stroke="#FAF5EE" stroke-miterlimit="10"/><path d="m60 44-24-7v32l23-7" fill="#4E5AE4"/><path d="m60 44-24-7v32l23-7" stroke="#FAF5EE" stroke-miterlimit="10"/><path d="M57 54a17 17 0 0 1 8-15h1a33 33 0 0 1 0 29l-1 1a17 17 0 0 1-8-15Z" fill="#4E5AE4" stroke="#FAF5EE" stroke-miterlimit="10"/></svg>