<svg xmlns="http://www.w3.org/2000/svg" fill="none" viewBox="0 0 46 87"><path fill="#4E5AE4" d="M26 33h16V4H4v29h16"/><path fill="#4E5AE4" d="M26 36h16a3 3 0 0 0 3-3V3a3 3 0 0 0-3-2H4a3 3 0 0 0-3 2v30a3 3 0 0 0 3 3h16c4 0 4-6 0-6H4l3 3V3L4 6h38l-3-3v30l3-3H26c-4 0-4 6 0 6ZM18 54H4v29h38V54H28"/><path fill="#4E5AE4" d="M18 51H4a3 3 0 0 0-3 3v29a3 3 0 0 0 3 3h38a3 3 0 0 0 3-3V54a3 3 0 0 0-3-3H28c-4 0-4 6 0 6h14l-3-3v29l3-3H4l3 3V54l-3 3h14c4 0 4-6 0-6ZM26 33h7V14L23 4 13 14v19h7"/><path fill="#4E5AE4" d="M26 36h7a3 3 0 0 0 3-3V15c0-3-3-5-5-7l-6-7a3 3 0 0 0-4 0l-6 7c-2 2-5 4-5 7v18a3 3 0 0 0 3 3h7c4 0 4-6 0-6h-7l3 3V14l-1 2L25 6h-4l10 10-1-2v19l3-3h-7c-4 0-4 6 0 6ZM18 54h-5v18l10 11 10-11V54h-5"/><path fill="#4E5AE4" d="M18 51h-5a3 3 0 0 0-3 3v18c0 3 3 5 5 7l6 6a3 3 0 0 0 4 0l7-6c1-2 4-4 4-7V54a3 3 0 0 0-3-3h-5c-4 0-4 6 0 6h5l-3-3v18l1-2-10 11h4L15 70l1 2V54l-3 3h5c4 0 4-6 0-6Z"/><path fill="#4E5AE4" d="M39 44 23 30 7 44l16 14 16-14Z"/><path fill="#4E5AE4" d="M41 42 25 28l1 2c0-3-3-4-5-2L5 42a3 3 0 0 0 0 4l16 14a3 3 0 0 0 4 0l16-14c3-2-1-7-4-4L21 56h4L9 42v4l16-14-5-2c0 2 2 3 3 4l5 4 9 8c3 3 7-1 4-4Z"/><path fill="#4E5AE4" d="M26 33h16V4H4v29h22ZM18 54H4v29h38V54H18Z"/><path fill="#4E5AE4" d="M26 33h7V14L23 4 13 14v19h13ZM18 54h-5v18l10 11 10-11V54H18Z"/><path fill="#4E5AE4" d="M39 44 23 30 7 44l16 14 16-14Z"/><path fill="#4E5AE4" d="M26 33h16V4H4v29h16"/><path stroke="#FAF5EE" stroke-miterlimit="10" d="M26 33h16V4H4v29h16"/><path fill="#4E5AE4" d="M18 54H4v29h38V54H28"/><path stroke="#FAF5EE" stroke-miterlimit="10" d="M18 54H4v29h38V54H28"/><path fill="#4E5AE4" d="M26 33h7V14L23 4 13 14v19h7"/><path stroke="#FAF5EE" stroke-miterlimit="10" d="M26 33h7V14L23 4 13 14v19h7"/><path fill="#4E5AE4" d="M18 54h-5v18l10 11 10-11V54h-5"/><path stroke="#FAF5EE" stroke-miterlimit="10" d="M18 54h-5v18l10 11 10-11V54h-5"/><path fill="#4E5AE4" stroke="#FAF5EE" stroke-miterlimit="10" d="M39 44 23 30 7 44l16 14 16-14Z"/></svg>