<svg xmlns="http://www.w3.org/2000/svg" fill="none" viewBox="0 0 72 104"><path fill="#4E5AE4" d="M45.2 83.2a32.8 32.8 0 0 0 0-62.8"/><path fill="#4E5AE4" d="M46 86a36.2 36.2 0 0 0 25.6-34.2A36.1 36.1 0 0 0 46 17.6c-3.7-1.2-5.2 4.6-1.6 5.7a30.1 30.1 0 0 1 21.3 28.5 30 30 0 0 1-21.3 28.5c-3.6 1.2-2 6.9 1.6 5.8ZM26.5 83.2a32.8 32.8 0 0 1 0-62.8"/><path fill="#4E5AE4" d="M27.3 80.3A30.1 30.1 0 0 1 6.1 51.8a30 30 0 0 1 21.2-28.5c3.7-1.1 2.1-6.9-1.6-5.7A36.2 36.2 0 0 0 .1 51.8a36.2 36.2 0 0 0 25.6 34.3c3.7 1 5.3-4.7 1.6-5.8Z"/><path fill="#4E5AE4" d="M35.9 3.5 25.7 22l10.2 18.5L46 22 35.9 3.5Z"/><path fill="#4E5AE4" d="M33.3 2 23.1 20.5l2.6-1.5a3 3 0 0 0-2.6 4.5L33.3 42a3 3 0 0 0 5.2 0l5.3-9.8 3.5-6.4C48 24.7 49 23.3 49 22c0-1.3-1-2.8-1.7-3.9l-3.5-6.4L38.5 2c-1.9-3.4-7-.4-5.2 3l10.2 18.4v-3L33.3 39h5.2L28.3 20.4 25.7 25a3 3 0 0 0 2.6-1.5L38.5 5c1.8-3.3-3.3-6.3-5.2-3Z"/><path fill="#4E5AE4" d="M47.3 51.8 35.9 41.6 24.5 51.8 35.9 62l11.4-10.2Z"/><path fill="#4E5AE4" d="M49.4 49.7 38 39.5l.9 2.1c0-2.6-3.2-3.7-5.1-2L22.4 49.6a3 3 0 0 0 0 4.2l11.4 10.2a3 3 0 0 0 4.2 0l11.4-10.2c2.8-2.5-1.4-6.7-4.2-4.2L33.8 60H38L26.6 49.7V54L38 43.7l-5.1-2c0 2.5 4 5 5.7 6.4l6.5 5.8c3 2.6 7.1-1.6 4.3-4.2Z"/><path fill="#4E5AE4" d="M35.9 100.2 46 81.7 35.9 63.2 25.7 81.7l10.2 18.5Z"/><path fill="#4E5AE4" d="m38.5 101.7 10.1-18.5-2.5 1.4a3 3 0 0 0 2.5-4.4L38.5 61.7a3 3 0 0 0-5.2 0l-5.4 9.8-3.5 6.3c-.6 1.1-1.7 2.6-1.7 3.9 0 1.3 1.1 2.7 1.7 3.8l3.6 6.4 5.3 9.8c1.9 3.3 7 .3 5.2-3L28.3 80.2v3l10.2-18.6h-5.2l10.2 18.5 2.6-4.4a3 3 0 0 0-2.6 1.5L33.3 98.6c-1.8 3.4 3.3 6.4 5.2 3Z"/><path fill="#4E5AE4" d="M26.5 83.2a32.8 32.8 0 0 1 0-62.8h18.7a32.8 32.8 0 0 1 0 62.8H26.5Z"/><path fill="#4E5AE4" d="M35.9 3.5 25.7 22l10.2 18.5L46 22 35.9 3.5ZM47.3 51.8 35.9 41.6 24.5 51.8 35.9 62l11.4-10.2ZM35.9 100.2 46 81.7 35.9 63.2 25.7 81.7l10.2 18.5Z"/><path fill="#4E5AE4" d="M45.2 83.2a32.8 32.8 0 0 0 0-62.8"/><path stroke="#FAF5EE" stroke-miterlimit="10" d="M45.2 83.2a32.8 32.8 0 0 0 0-62.8"/><path fill="#4E5AE4" d="M26.5 83.2a32.8 32.8 0 0 1 0-62.8"/><path stroke="#FAF5EE" stroke-miterlimit="10" d="M26.5 83.2a32.8 32.8 0 0 1 0-62.8"/><path fill="#4E5AE4" stroke="#FAF5EE" stroke-miterlimit="10" d="M35.9 3.5 25.7 22l10.2 18.5L46 22 35.9 3.5ZM47.3 51.8 35.9 41.6 24.5 51.8 35.9 62l11.4-10.2ZM35.9 100.2 46 81.7 35.9 63.2 25.7 81.7l10.2 18.5Z"/></svg>