<svg xmlns="http://www.w3.org/2000/svg" fill="none" viewBox="0 0 89 85"><path fill="#4E5AE4" d="M38.3 71.97c-.24 4.37-6.82 4.4-6.82 0s6.55-4.36 6.82 0c.2 3.81 6.16 3.84 5.96 0-.28-5.07-4.08-9.35-9.37-9.35a9.37 9.37 0 0 0-9.26 9.17 9.34 9.34 0 0 0 8.9 9.52c5.43.23 9.45-4.17 9.73-9.34.2-3.82-5.76-3.81-5.96 0ZM57.91 71.97c-.24 4.37-6.82 4.4-6.82 0s6.56-4.36 6.82 0c.2 3.81 6.16 3.84 5.96 0-.27-5.07-4.08-9.35-9.37-9.35a9.37 9.37 0 0 0-9.25 9.17 9.34 9.34 0 0 0 8.9 9.52c5.43.23 9.44-4.17 9.72-9.34.2-3.82-5.76-3.81-5.96 0Z"/><path fill="#4E5AE4" d="M74.07 48.95c-.16 12.3-7.75 23.69-19.48 27.93A30.2 30.2 0 0 1 21.4 68c-8.05-9.53-9.07-23.6-2.7-34.28A29.96 29.96 0 0 1 50 19.75a30.16 30.16 0 0 1 24.08 29.2c.05 3.83 6 3.84 5.96 0a36.14 36.14 0 0 0-23.48-33.52c-14.01-5.2-30.45-.7-39.87 10.87-9.43 11.56-10.79 28.07-3.13 40.9a36.15 36.15 0 0 0 37.63 16.77c16.7-3.15 28.61-18.25 28.85-35.02.05-3.83-5.91-3.83-5.96 0Z"/><path fill="#4E5AE4" d="M82.65 21.23c-.09 6.39-1.66 12.94-5.58 18.11-2.98 3.97-8.04 7.46-13.27 6.55-5.23-.9-8.94-6.12-11.26-10.5a42.04 42.04 0 0 1-4.77-19.18 3.02 3.02 0 0 0-2.98-2.97h-.53a3.02 3.02 0 0 0-2.98 2.97 42.21 42.21 0 0 1-4.57 18.8c-2.33 4.49-6.07 9.96-11.46 10.88-5.11.88-10.01-2.38-13.03-6.22-4.1-5.2-5.74-11.9-5.82-18.45L3.42 24.2l36.13-4.46c2.62-.42 5.29-.48 7.93-.19l21.28 2.6 16.87 2.06c3.8.46 3.76-5.5 0-5.95l-36.28-4.42c-2.9-.36-5.15-.6-8-.26l-21.03 2.6-16.9 2.08c-1.57.2-2.97 1.19-2.97 2.97C.62 34.7 9.08 53.8 25.48 51.82c6.85-.82 12.02-6.34 15.35-12a48 48 0 0 0 6.39-23.62l-2.98 2.97h.53L41.8 16.2a48.2 48.2 0 0 0 6.18 23.28c3.32 5.78 8.57 11.5 15.56 12.34 16.42 1.97 24.89-17.12 25.03-30.59.12-3.85-5.84-3.85-5.91 0Z"/><path fill="#4E5AE4" d="M40.33 9.86c-.24 4.36-6.82 4.4-6.82 0s6.56-4.37 6.82 0c.2 3.8 6.17 3.83 5.96 0C46 4.79 42.22.5 36.92.5a9.37 9.37 0 0 0-9.25 9.18 9.34 9.34 0 0 0 8.9 9.51c5.43.23 9.44-4.17 9.72-9.33.21-3.83-5.75-3.82-5.96 0Z"/><path fill="#4E5AE4" d="M56.12 9.86c-.24 4.36-6.82 4.4-6.82 0s6.56-4.37 6.82 0c.2 3.8 6.17 3.83 5.96 0C61.81 4.79 58.01.5 52.71.5a9.37 9.37 0 0 0-9.25 9.17 9.34 9.34 0 0 0 8.9 9.52c5.43.23 9.44-4.17 9.72-9.33.2-3.83-5.75-3.82-5.96 0Z"/><path fill="#4E5AE4" d="M44.28 81.68a32.74 32.74 0 0 0 32.77-32.72 32.74 32.74 0 0 0-32.77-32.72 32.74 32.74 0 0 0-32.76 32.72A32.74 32.74 0 0 0 44.3 81.68Z"/><path fill="#4E5AE4" d="M3.45 21.23c0 15.32 9.14 27.74 20.41 27.74 11.28 0 20.43-17.45 20.43-32.77M44.82 16.18c0 15.32 9.14 32.77 20.42 32.77 11.27 0 20.39-12.42 20.39-27.72M36.92 16.24a6.39 6.39 0 1 0 .01-12.77 6.39 6.39 0 0 0 0 12.77ZM52.71 16.24a6.39 6.39 0 1 0 .01-12.77 6.39 6.39 0 0 0 0 12.77Z"/><path fill="#4E5AE4" stroke="#FAF5EE" stroke-miterlimit="10" d="M53.04 79.89a6.39 6.39 0 1 0 .01-12.77 6.39 6.39 0 0 0 0 12.77ZM36.06 79.89a6.39 6.39 0 1 0 0-12.77 6.39 6.39 0 0 0 0 12.77Z"/><path stroke="#FAF5EE" stroke-miterlimit="10" d="M44.28 81.68a32.74 32.74 0 0 0 32.77-32.72 32.74 32.74 0 0 0-32.77-32.72 32.74 32.74 0 0 0-32.76 32.72A32.74 32.74 0 0 0 44.3 81.68Z"/><path stroke="#FAF5EE" stroke-miterlimit="10" d="M44.82 16.18 3.45 21.2c0 15.32 9.14 27.74 20.41 27.74 11.28 0 20.43-17.45 20.43-32.77M44.82 16.18c0 15.32 9.14 32.77 20.42 32.77 11.27 0 20.39-12.42 20.39-27.72l-40.8-5.05ZM36.92 16.24a6.39 6.39 0 1 0 .01-12.77 6.39 6.39 0 0 0 0 12.77ZM52.71 16.24a6.39 6.39 0 1 0 .01-12.77 6.39 6.39 0 0 0 0 12.77Z"/></svg>