<svg xmlns="http://www.w3.org/2000/svg" fill="none" viewBox="0 0 85 96"><g filter="url(#a)"><path fill="#34D4B0" d="M48 22V11H11v74h37V74A26 26 0 0 0 48 22Z"/><path fill="#34D4B0" d="M50.9 22V11a3 3 0 0 0-3-3H11A3 3 0 0 0 8 11v74a3 3 0 0 0 3 3h37a3 3 0 0 0 2.9-3V74l-3 2.9c15.8-.3 28.9-13 28.9-28.8A29.2 29.2 0 0 0 48 19c-3.8 0-3.8 5.8 0 5.9 12.5.1 23 10.3 23 23a23.2 23.2 0 0 1-23 23 3 3 0 0 0-3 2.9V85l3-2.9H11l2.8 3V10.8L11 14h37l-2.8-3v11.2c0 3.7 5.8 3.7 5.8 0Z"/><path stroke="#FAF5EE" stroke-miterlimit="10" stroke-width=".7" d="M48 22V11H11v74h37V74A26 26 0 0 0 48 22Z"/><path stroke="#FAF5EE" stroke-miterlimit="10" d="M41.8 62a6.2 6.2 0 1 0 0-12.6 6.2 6.2 0 0 0 0 12.5ZM41.8 46.5a6.2 6.2 0 1 0 0-12.4 6.2 6.2 0 0 0 0 12.4ZM48 22v54.3"/></g><defs><filter id="a" width="84.8" height="95.9" x="0" y="0" color-interpolation-filters="sRGB" filterUnits="userSpaceOnUse"><feFlood flood-opacity="0" result="BackgroundImageFix"/><feColorMatrix in="SourceAlpha" result="hardAlpha" values="0 0 0 0 0 0 0 0 0 0 0 0 0 0 0 0 0 0 127 0"/><feOffset/><feGaussianBlur stdDeviation="4"/><feComposite in2="hardAlpha" operator="out"/><feColorMatrix values="0 0 0 0 0.702821 0 0 0 0 0.726596 0 0 0 0 1 0 0 0 0.3 0"/><feBlend in2="BackgroundImageFix" result="effect1_dropShadow_1086_25"/><feBlend in="SourceGraphic" in2="effect1_dropShadow_1086_25" result="shape"/></filter></defs></svg>