<svg xmlns="http://www.w3.org/2000/svg" fill="none" viewBox="0 0 101 101"><g filter="url(#a)"><path fill="#EE6338" d="M76.1 11.3 11.3 76.1l13 13 64.8-64.8-13-13Z"/><path fill="#EE6338" d="m26.7 86.7-13-13v4.8l56.8-56.8 8-8h-4.8l13 13v-4.8L30 78.7l-8 8c-3 3 1.7 7.8 4.8 4.8l56.8-56.8 8-8a3.4 3.4 0 0 0 0-4.8l-13-13a3.4 3.4 0 0 0-4.8 0L17 65.9l-8 8a3.4 3.4 0 0 0 0 4.7l13 13c3 3 7.8-1.7 4.7-4.8Z"/><path fill="#EE6338" d="m24.3 11.3-13 13 64.8 64.8 13-13-64.8-64.8Z"/><path fill="#EE6338" d="m86.7 73.7-13 13h4.8L21.7 30l-8-8v4.8l13-13h-4.8l56.8 56.8 8 8c3 3 7.8-1.7 4.8-4.8L34.7 17l-8-8a3.4 3.4 0 0 0-4.8 0L9 22a3.4 3.4 0 0 0 0 4.7l56.9 56.8 8 8a3.4 3.4 0 0 0 4.7 0l13-13c3-3-1.7-7.8-4.8-4.8Z"/><path fill="#EE6338" d="M76.1 11.3 11.3 76.1l13 13 64.8-64.8-13-13Z"/><path fill="#EE6338" d="m26.7 86.7-13-13v4.8l56.8-56.8 8-8h-4.8l13 13v-4.8L30 78.7l-8 8c-3 3 1.7 7.8 4.8 4.8l56.8-56.8 8-8a3.4 3.4 0 0 0 0-4.8l-13-13a3.4 3.4 0 0 0-4.8 0L17 65.9l-8 8a3.4 3.4 0 0 0 0 4.7l13 13c3 3 7.8-1.7 4.7-4.8Z"/><path fill="#EE6338" d="M78.4 57.4a7.2 7.2 0 1 0 0-14.4 7.2 7.2 0 0 0 0 14.4Z"/><path fill="#EE6338" d="M78.4 46.4c5 .2 5 7.7 0 7.7s-4.9-7.4 0-7.7c4.3-.3 4.4-7 0-6.8a10.6 10.6 0 1 0 10.6 11c.3-6.1-4.7-10.6-10.6-11-4.3-.2-4.3 6.5 0 6.8Z"/><path stroke="#FAF5EE" stroke-miterlimit="10" d="M78.4 57.4a7.2 7.2 0 1 0 0-14.4 7.2 7.2 0 0 0 0 14.4Z"/><path fill="#EE6338" d="M50.2 28.9a7.2 7.2 0 1 0 0-14.4 7.2 7.2 0 0 0 0 14.4Z"/><path fill="#EE6338" d="M50.2 17.8c5 .3 5 7.7 0 7.7s-5-7.4 0-7.7c4.3-.2 4.4-7 0-6.7-5.7.3-10.6 4.6-10.6 10.6a10.6 10.6 0 0 0 21.2.4c.2-6.2-4.7-10.7-10.6-11-4.3-.2-4.3 6.5 0 6.7Z"/><path stroke="#FAF5EE" stroke-miterlimit="10" d="M50.2 28.9a7.2 7.2 0 1 0 0-14.4 7.2 7.2 0 0 0 0 14.4ZM89.1 24.3l-13-13-64.8 64.8 13 13 64.8-64.8Z"/><path stroke="#FAF5EE" stroke-miterlimit="10" d="m24.3 11.3-13 13 64.8 64.8 13-13-64.8-64.8Z"/><path stroke="#FAF5EE" stroke-miterlimit="10" d="m89.1 24.3-13-13-64.8 64.8 13 13 64.8-64.8Z"/></g><defs><filter id="a" width="100.5" height="100.5" x="0" y="0" color-interpolation-filters="sRGB" filterUnits="userSpaceOnUse"><feFlood flood-opacity="0" result="BackgroundImageFix"/><feColorMatrix in="SourceAlpha" result="hardAlpha" values="0 0 0 0 0 0 0 0 0 0 0 0 0 0 0 0 0 0 127 0"/><feOffset/><feGaussianBlur stdDeviation="4"/><feComposite in2="hardAlpha" operator="out"/><feColorMatrix values="0 0 0 0 0.702821 0 0 0 0 0.726596 0 0 0 0 1 0 0 0 0.3 0"/><feBlend in2="BackgroundImageFix" result="effect1_dropShadow_1086_97"/><feBlend in="SourceGraphic" in2="effect1_dropShadow_1086_97" result="shape"/></filter></defs></svg>