<svg xmlns="http://www.w3.org/2000/svg" fill="none" viewBox="0 0 104 96"><g filter="url(#a)"><path fill="#FFB436" d="M19.2 48H47c1.9-1 3.5-2.2 5-3.7a16.4 16.4 0 0 0 4.9 3.7H85l2.2-1.4c10.7-7.8 12.2-26 1.5-34.5a18.7 18.7 0 0 0-26.1 3 36.2 36.2 0 0 0-11-1.7h-.2A35 35 0 0 0 41.3 15 18.6 18.6 0 0 0 25 8C12 9.6 6 22.4 8.6 34.3A20.2 20.2 0 0 0 19.2 48Z"/><path stroke="#FAF5EE" stroke-miterlimit="10" d="M26.6 24.3c-.2 1.4-.2 2.9 0 4.3 2 9.2 15.3 6.3 14.7-3.6 0-2-.5-4.1-1.4-6-6.1-12.7-28.7-10-28.7 9.2 0 8.1 3.5 13.3 8.4 16.4A25 25 0 0 0 32.1 48h1.1c9.6-.2 18.7-4.8 18.7-11.4v-20m.1 0v20c0 6.6 9 11.2 18.7 11.4h1c10.3-.2 21-5.7 21-19.8 0-19-22.6-22-28.7-9.2-.9 2-1.4 4-1.5 6-.6 11.3 16.6 13.5 14.8-.7M71.7 48h-1M33 48h-.6"/><path stroke="#FAF5EE" stroke-miterlimit="10" d="M64 19c-3.8-1.5-8-2.3-12-2.3h-.1c-4.1 0-8.2.8-12 2.3"/><path fill="#FFB436" d="M19.2 48H47c1.9 1 3.5 2.2 5 3.7a16.4 16.4 0 0 1 4.9-3.7H85l2.2 1.4c10.7 7.7 12.2 26 1.5 34.5a18.7 18.7 0 0 1-26.1-3 36.2 36.2 0 0 1-11 1.6h-.2a35 35 0 0 1-10.1-1.6A18.6 18.6 0 0 1 25 88C12 86.5 6 73.7 8.6 61.8A20.2 20.2 0 0 1 19.2 48Z"/><path stroke="#FAF5EE" stroke-miterlimit="10" d="M52 79.4v-20c0-6.6-9.2-11.2-18.8-11.4h-1.1a25 25 0 0 0-12.5 3.4c-4.9 3-8.4 8.3-8.4 16.3 0 19.1 22.6 22 28.7 9.3.9-1.9 1.4-4 1.4-6 .6-10-12.7-12.8-14.6-3.7a13 13 0 0 0-.1 4.4"/><path stroke="#FAF5EE" stroke-miterlimit="10" d="M77.3 71.7c1.8-14.2-15.4-12-14.8-.8.1 2.1.6 4.2 1.5 6 6 12.8 28.6 10 28.6-9.1 0-14.1-10.6-19.6-21-19.8h-.9c-9.6.2-18.8 4.8-18.8 11.4v20M70.7 48h1m-39.3 0h.6"/><path stroke="#FAF5EE" stroke-miterlimit="10" d="M39.9 77A32.5 32.5 0 0 0 64 77"/></g><defs><filter id="a" width="104" height="95.9" x="0" y="0" color-interpolation-filters="sRGB" filterUnits="userSpaceOnUse"><feFlood flood-opacity="0" result="BackgroundImageFix"/><feColorMatrix in="SourceAlpha" result="hardAlpha" values="0 0 0 0 0 0 0 0 0 0 0 0 0 0 0 0 0 0 127 0"/><feOffset/><feGaussianBlur stdDeviation="4"/><feComposite in2="hardAlpha" operator="out"/><feColorMatrix values="0 0 0 0 0.702821 0 0 0 0 0.726596 0 0 0 0 1 0 0 0 0.3 0"/><feBlend in2="BackgroundImageFix" result="effect1_dropShadow_1086_16"/><feBlend in="SourceGraphic" in2="effect1_dropShadow_1086_16" result="shape"/></filter></defs></svg>