<svg xmlns="http://www.w3.org/2000/svg" fill="none" viewBox="0 0 88 119"><g filter="url(#a)"><path fill="#EE6338" d="M53 90.7a32.7 32.7 0 0 0 0-62.8"/><path fill="#EE6338" d="M53.8 93.6a36.2 36.2 0 0 0 25.6-34.3 36.1 36.1 0 0 0-25.6-34.2c-3.6-1.2-5.2 4.6-1.5 5.7a30 30 0 0 1 21.2 28.5 30 30 0 0 1-21.2 28.5c-3.7 1.2-2.1 6.9 1.5 5.8ZM34.4 90.7a32.7 32.7 0 0 1 0-62.8"/><path fill="#EE6338" d="M35.2 87.8A30 30 0 0 1 14 59.3a30 30 0 0 1 21.2-28.5c3.6-1.1 2-6.9-1.6-5.7A36.2 36.2 0 0 0 8 59.3a36.2 36.2 0 0 0 25.6 34.3c3.7 1 5.2-4.6 1.6-5.8Z"/><path fill="#EE6338" d="M43.7 11 33.5 29.5 43.7 48 54 29.5 43.7 11Z"/><path fill="#EE6338" d="M41.1 9.5 31 28l2.5-1.5A3 3 0 0 0 31 31L41 49.5a3 3 0 0 0 5.2 0l5.3-9.8 3.6-6.4c.6-1.1 1.7-2.5 1.7-3.8 0-1.3-1.1-2.8-1.7-3.9l-3.6-6.4-5.3-9.7c-1.9-3.4-7-.4-5.2 3l10.2 18.4v-3L41.1 46.4h5.2L36 28l-2.6 4.5a3 3 0 0 0 2.6-1.5l10.2-18.5C48 9.1 43 6.1 41 9.4Z"/><path fill="#EE6338" d="M55 59.3 43.8 49.1 32.3 59.3l11.4 10.2 11.4-10.2Z"/><path fill="#EE6338" d="M57.2 57.2 45.8 47l.9 2.1c0-2.6-3.2-3.7-5-2L30.1 57.1a3 3 0 0 0 0 4.2l11.4 10.2a3 3 0 0 0 4.2 0l11.4-10.2c2.9-2.5-1.4-6.7-4.2-4.2L41.6 67.4h4.2L34.4 57.2v4.2l11.4-10.2-5-2c0 2.5 4 5 5.6 6.4l6.6 5.8c2.8 2.6 7-1.6 4.2-4.2Z"/><path fill="#EE6338" d="M43.7 107.7 54 89.2 43.7 70.7 33.5 89.2l10.2 18.5Z"/><path fill="#EE6338" d="m46.3 109.2 10.2-18.5-2.6 1.4a3 3 0 0 0 2.6-4.4L46.3 69.2a3 3 0 0 0-5.2 0L35.8 79l-3.5 6.3c-.6 1.1-1.7 2.6-1.7 3.9 0 1.3 1 2.7 1.7 3.8l3.5 6.4 5.4 9.8c1.8 3.3 7 .3 5.1-3L36.1 87.7v3L46.3 72H41l10.2 18.5 2.6-4.4a3 3 0 0 0-2.6 1.5L41.2 106c-1.9 3.4 3.2 6.4 5 3Z"/><path fill="#EE6338" d="M34.4 90.7a32.7 32.7 0 0 1 0-62.8H53a32.7 32.7 0 0 1 0 62.8H34.4Z"/><path fill="#EE6338" d="M43.7 11 33.5 29.5 43.7 48 54 29.5 43.7 11ZM55 59.3 43.8 49.1 32.3 59.3l11.4 10.2 11.4-10.2ZM43.7 107.7 54 89.2 43.7 70.7 33.5 89.2l10.2 18.5Z"/><path fill="#EE6338" d="M53 90.7a32.7 32.7 0 0 0 0-62.8"/><path stroke="#FAF5EE" stroke-miterlimit="10" d="M53 90.7a32.7 32.7 0 0 0 0-62.8"/><path fill="#EE6338" d="M34.4 90.7a32.7 32.7 0 0 1 0-62.8"/><path stroke="#FAF5EE" stroke-miterlimit="10" d="M34.4 90.7a32.7 32.7 0 0 1 0-62.8"/><path fill="#EE6338" stroke="#FAF5EE" stroke-miterlimit="10" d="M43.7 11 33.5 29.5 43.7 48 54 29.5 43.7 11ZM55 59.3 43.8 49.1 32.3 59.3l11.4 10.2 11.4-10.2ZM43.7 107.7 54 89.2 43.7 70.7 33.5 89.2l10.2 18.5Z"/></g><defs><filter id="a" width="87.4" height="118.6" x="0" y="0" color-interpolation-filters="sRGB" filterUnits="userSpaceOnUse"><feFlood flood-opacity="0" result="BackgroundImageFix"/><feColorMatrix in="SourceAlpha" result="hardAlpha" values="0 0 0 0 0 0 0 0 0 0 0 0 0 0 0 0 0 0 127 0"/><feOffset/><feGaussianBlur stdDeviation="4"/><feComposite in2="hardAlpha" operator="out"/><feColorMatrix values="0 0 0 0 0.702821 0 0 0 0 0.726596 0 0 0 0 1 0 0 0 0.3 0"/><feBlend in2="BackgroundImageFix" result="effect1_dropShadow_908_171"/><feBlend in="SourceGraphic" in2="effect1_dropShadow_908_171" result="shape"/></filter></defs></svg>