<svg xmlns="http://www.w3.org/2000/svg" fill="none" viewBox="0 0 104 101"><g filter="url(#a)"><path fill="#504DE6" d="M45.8 79.5c-.2 4.3-6.8 4.4-6.8 0s6.5-4.4 6.8 0c.2 3.8 6.2 3.8 6 0-.3-5.1-4.1-9.4-9.4-9.4a9.4 9.4 0 0 0-.4 18.7c5.5.2 9.5-4.2 9.7-9.3.3-3.9-5.7-3.8-5.9 0ZM65.4 79.5c-.3 4.3-6.8 4.4-6.8 0s6.5-4.4 6.8 0c.2 3.8 6.1 3.8 6 0C71 74.4 67.2 70 62 70a9.4 9.4 0 0 0-.4 18.7c5.5.2 9.5-4.2 9.7-9.3.2-3.9-5.7-3.8-6 0Z"/><path fill="#504DE6" d="M81.5 56.5a30 30 0 0 1-19.4 27.9 30.1 30.1 0 0 1-33.2-8.9 30 30 0 0 1-2.7-34.3 30 30 0 0 1 31.3-14 30.1 30.1 0 0 1 24 29.3c0 3.8 6 3.8 6 0A36.2 36.2 0 0 0 64 22.9a36 36 0 0 0-39.8 10.9 36 36 0 0 0-3.1 40.9 36.1 36.1 0 0 0 37.6 16.8 36.1 36.1 0 0 0 28.8-35c0-3.9-6-3.9-6 0Z"/><path fill="#504DE6" d="M90 28.7c0 6.4-1.6 13-5.5 18.1-3 4-8 7.5-13.2 6.6-5.3-1-9-6.1-11.3-10.5a42 42 0 0 1-4.7-19.2 3 3 0 0 0-3-3h-.6a3 3 0 0 0-3 3c0 6.5-1.5 13-4.5 18.8-2.3 4.5-6 10-11.4 10.9-5.1.9-10-2.4-13-6.2a30.3 30.3 0 0 1-5.9-18.5l-3 3L47 27.2c2.7-.4 5.3-.4 8-.1l21.2 2.5 16.9 2.1c3.8.5 3.7-5.5 0-6l-36.3-4.4a31 31 0 0 0-8-.2l-21 2.6-16.8 2c-1.6.3-3 1.2-3 3 .2 13.5 8.6 32.6 25 30.6 6.8-.8 12-6.3 15.3-12a48 48 0 0 0 6.4-23.6l-3 3h.6l-3-3c0 8.2 2.2 16.2 6.2 23.3C58.8 52.8 64 58.5 71 59.3c16.4 2 24.8-17.1 25-30.6.1-3.8-5.8-3.8-6 0Z"/><path fill="#504DE6" d="M47.8 17.4c-.2 4.3-6.8 4.4-6.8 0s6.6-4.4 6.8 0c.2 3.8 6.2 3.8 6 0-.3-5.1-4-9.4-9.4-9.4a9.4 9.4 0 0 0-.3 18.7c5.4.2 9.4-4.2 9.7-9.3.2-3.9-5.8-3.9-6 0Z"/><path fill="#504DE6" d="M63.6 17.4c-.2 4.3-6.8 4.4-6.8 0s6.5-4.4 6.8 0c.2 3.8 6.2 3.8 6 0-.3-5.1-4.1-9.4-9.4-9.4a9.4 9.4 0 0 0-.4 18.7c5.5.2 9.5-4.2 9.8-9.3.2-3.9-5.8-3.9-6 0Z"/><path fill="#504DE6" d="M51.8 89.2a32.7 32.7 0 1 0 0-65.5 32.7 32.7 0 0 0 0 65.5Z"/><path fill="#504DE6" d="M11 28.7c0 15.4 9.1 27.8 20.4 27.8 11.2 0 20.4-17.5 20.4-32.8M52.3 23.7c0 15.3 9.1 32.8 20.4 32.8C84 56.5 93.1 44 93.1 28.7M44.4 23.7a6.4 6.4 0 1 0 0-12.7 6.4 6.4 0 0 0 0 12.7ZM60.2 23.7a6.4 6.4 0 1 0 0-12.7 6.4 6.4 0 0 0 0 12.7Z"/><path fill="#504DE6" stroke="#FAF5EE" stroke-miterlimit="10" d="M60.5 87.4a6.4 6.4 0 1 0 0-12.8 6.4 6.4 0 0 0 0 12.8ZM43.6 87.4a6.4 6.4 0 1 0 0-12.8 6.4 6.4 0 0 0 0 12.8Z"/><path stroke="#FAF5EE" stroke-miterlimit="10" d="M51.8 89.2a32.7 32.7 0 1 0 0-65.5 32.7 32.7 0 0 0 0 65.5Z"/><path stroke="#FAF5EE" stroke-miterlimit="10" d="m52.3 23.7-41.3 5c0 15.3 9.1 27.8 20.4 27.8 11.2 0 20.4-17.5 20.4-32.8M52.3 23.7c0 15.3 9.1 32.8 20.4 32.8C84 56.5 93.1 44 93.1 28.7l-40.8-5ZM44.4 23.7a6.4 6.4 0 1 0 0-12.7 6.4 6.4 0 0 0 0 12.7ZM60.2 23.7a6.4 6.4 0 1 0 0-12.7 6.4 6.4 0 0 0 0 12.7Z"/></g><defs><filter id="a" width="104" height="100.1" x="0" y="0" color-interpolation-filters="sRGB" filterUnits="userSpaceOnUse"><feFlood flood-opacity="0" result="BackgroundImageFix"/><feColorMatrix in="SourceAlpha" result="hardAlpha" values="0 0 0 0 0 0 0 0 0 0 0 0 0 0 0 0 0 0 127 0"/><feOffset/><feGaussianBlur stdDeviation="4"/><feComposite in2="hardAlpha" operator="out"/><feColorMatrix values="0 0 0 0 0.702821 0 0 0 0 0.726596 0 0 0 0 1 0 0 0 0.3 0"/><feBlend in2="BackgroundImageFix" result="effect1_dropShadow_908_191"/><feBlend in="SourceGraphic" in2="effect1_dropShadow_908_191" result="shape"/></filter></defs></svg>