<svg xmlns="http://www.w3.org/2000/svg" fill="none" viewBox="0 0 61 102"><g filter="url(#a)"><path fill="#FFAA1C" d="M33.3 40.1h16.3V11H11v29.1h16.2"/><path fill="#FFAA1C" d="M33.3 43.1h16.3a3 3 0 0 0 3-3V11a3 3 0 0 0-3-3H11a3 3 0 0 0-3 3V40a3 3 0 0 0 3 3h16.3c3.8 0 3.8-6 0-6H11l3 3V11l-3 3h38.6l-3-3V40l3-3H33.3c-3.9 0-3.9 6 0 6ZM25.5 61.5H11v29.1h38.6V61.5H35"/><path fill="#FFAA1C" d="M25.5 58.5H11a3 3 0 0 0-3 3v29.1a3 3 0 0 0 3 3h38.6a3 3 0 0 0 3-3V61.5a3 3 0 0 0-3-3H35c-3.8 0-3.8 6 0 6h14.5l-3-3v29.1l3-3H11l3 3V61.5l-3 3h14.5c3.8 0 3.8-6 0-6ZM33.2 40.1h7.3l-.1-18.3L30.2 11 20.1 21.9V40h7.2"/><path fill="#FFAA1C" d="M33.2 43h7.3a3 3 0 0 0 3-2.9c0-6 .4-12.1-.1-18-.3-2.7-3.1-4.7-4.8-6.5l-6.3-6.7a3 3 0 0 0-4.2 0l-6.3 6.7c-1.6 1.8-4.5 4-4.7 6.5-.5 6 0 12.1 0 18a3 3 0 0 0 3 3h7.2c3.8 0 3.8-6 0-6h-7.1l3 3L23 22l-.8 2 10-10.8h-4.1L38.3 24l-.9-2 .1 18.2 3-3h-7.3c-3.8 0-3.8 6 0 6ZM25.5 61.5H20v18.3l10.2 10.8 10.2-10.8V61.5H35"/><path fill="#FFAA1C" d="M25.5 58.5H20a3 3 0 0 0-3 3c0 6-.4 12.1 0 18 .3 2.6 3.2 4.7 4.8 6.5l6.3 6.7a3 3 0 0 0 4.2 0l6.3-6.7c1.7-1.8 4.5-3.9 4.8-6.5.5-6 0-12 0-18a3 3 0 0 0-3-3H35c-3.8 0-3.9 6 0 6h5.3l-3-3 .1 18.3.9-2.2-10.2 10.9h4.2L22.3 77.6l.9 2.2V61.5l-3 3h5.3c3.8 0 3.8-6 0-6Z"/><path fill="#FFAA1C" d="M46.1 51.6 30.3 37.5 14.5 51.6l15.8 14.2L46 51.6Z"/><path fill="#FFAA1C" d="M48.2 49.5 32.4 35.4l.9 2c0-2.6-3.2-3.7-5.1-2L12.3 49.5a3 3 0 0 0 0 4.2L28.2 68a3 3 0 0 0 4.2 0l15.8-14.2c2.9-2.5-1.3-6.7-4.2-4.2L28.2 63.7h4.2L16.6 49.5v4.2l15.8-14.1-5.1-2.1c0 1.6 1.5 2.6 2.6 3.6l5.3 4.7 8.8 8c2.9 2.5 7-1.7 4.2-4.3Z"/><path fill="#FFAA1C" d="M33.3 40.1h16.3V11H11v29.1h22.2ZM25.5 61.5H11v29.1h38.6V61.5H25.5Z"/><path fill="#FFAA1C" d="M33.2 40.1h7.3l-.1-18.3L30.2 11 20.1 21.9V40h13.2ZM25.5 61.5H20v18.3l10.2 10.8 10.2-10.8V61.5h-15Z"/><path fill="#FFAA1C" d="M46.1 51.6 30.3 37.5 14.5 51.6l15.8 14.2L46 51.6Z"/><path fill="#FFAA1C" d="M33.3 40.1h16.3V11H11v29.1h16.2"/><path stroke="#FAF5EE" stroke-miterlimit="10" d="M33.3 40.1h16.3V11H11v29.1h16.2"/><path fill="#FFAA1C" d="M25.5 61.5H11v29.1h38.6V61.5H35"/><path stroke="#FAF5EE" stroke-miterlimit="10" d="M25.5 61.5H11v29.1h38.6V61.5H35"/><path fill="#FFAA1C" d="M33.2 40.1h7.3l-.1-18.3L30.2 11 20.1 21.9V40h7.2"/><path stroke="#FAF5EE" stroke-miterlimit="10" d="M33.2 40.1h7.3l-.1-18.3L30.2 11 20.1 21.9V40h7.2"/><path fill="#FFAA1C" d="M25.5 61.5H20v18.3l10.2 10.8 10.2-10.8V61.5H35"/><path stroke="#FAF5EE" stroke-miterlimit="10" d="M25.5 61.5H20v18.3l10.2 10.8 10.2-10.8V61.5H35"/><path fill="#FFAA1C" stroke="#FAF5EE" stroke-miterlimit="10" d="M46.1 51.6 30.3 37.5 14.5 51.6l15.8 14.2L46 51.6Z"/></g><defs><filter id="a" width="60.6" height="101.6" x="0" y="0" color-interpolation-filters="sRGB" filterUnits="userSpaceOnUse"><feFlood flood-opacity="0" result="BackgroundImageFix"/><feColorMatrix in="SourceAlpha" result="hardAlpha" values="0 0 0 0 0 0 0 0 0 0 0 0 0 0 0 0 0 0 127 0"/><feOffset/><feGaussianBlur stdDeviation="4"/><feComposite in2="hardAlpha" operator="out"/><feColorMatrix values="0 0 0 0 0.702821 0 0 0 0 0.726596 0 0 0 0 1 0 0 0 0.3 0"/><feBlend in2="BackgroundImageFix" result="effect1_dropShadow_908_210"/><feBlend in="SourceGraphic" in2="effect1_dropShadow_908_210" result="shape"/></filter></defs></svg>