<svg xmlns="http://www.w3.org/2000/svg" fill="none" viewBox="0 0 81 102"><g fill="#504DE6" filter="url(#a)"><path d="M8.6 76.6A38.6 38.6 0 0 0 40.5 94c13 0 24.7-6.7 31.9-17.4 2.2-3.3-3.2-6.4-5.4-3a31.8 31.8 0 0 1-53 0c-2.3-3.4-7.7-.3-5.4 3ZM72.3 25.8A38.6 38.6 0 0 0 40.4 8.4c-13 0-24.7 6.7-31.9 17.4-2.2 3.3 3.2 6.4 5.4 3a31.8 31.8 0 0 1 53 0c2.3 3.4 7.7.3 5.4-3ZM18 57.2c4.5.2 4.5 7.1 0 7.1-4.7 0-4.6-6.9 0-7.1 4-.2 4-6.5 0-6.3-5.4.3-9.9 4.3-9.9 9.8a9.8 9.8 0 0 0 19.6.4c.3-5.7-4.4-9.9-9.8-10.2-4-.2-4 6 0 6.3Z"/><path d="M18 40.7c4.5.2 4.5 7.1 0 7.1-4.7 0-4.6-6.9 0-7.1 4-.2 4-6.5 0-6.3-5.4.3-9.9 4.3-9.9 9.8a9.8 9.8 0 0 0 19.6.4c.3-5.7-4.4-9.9-9.8-10.2-4-.2-4 6 0 6.3ZM63 57.2c4.6.2 4.6 7.1 0 7.1s-4.6-6.9 0-7.1c4-.2 4-6.5 0-6.3-5.3.3-9.8 4.3-9.8 9.8a9.8 9.8 0 0 0 19.6.4c.2-5.7-4.4-9.9-9.8-10.2-4-.2-4 6 0 6.3Z"/><path d="M63 40.7c4.6.2 4.6 7.1 0 7.1s-4.6-6.9 0-7.1c4-.2 4-6.5 0-6.3-5.3.3-9.8 4.3-9.8 9.8a9.8 9.8 0 0 0 19.6.4c.2-5.7-4.4-9.9-9.8-10.2-4-.2-4 6 0 6.3ZM31 11.8v77.9h19.3V11.8H31Z"/><path d="M40.5 14.6c3.4 0 6.9.7 10.2 1.7l-2.3-3v75.8l2.3-3a33.2 33.2 0 0 1-20.5 0l2.3 3V13.3l-2.3 3c3.3-1 6.8-1.6 10.3-1.7 4 0 4-6.3 0-6.2-4 0-8 .7-12 1.9a3.2 3.2 0 0 0-2.2 3v75.8a3.2 3.2 0 0 0 2.3 3c7.7 2.5 16 2.5 23.7 0a3.2 3.2 0 0 0 2.3-3V13.3a3.2 3.2 0 0 0-2.3-3 41.4 41.4 0 0 0-11.8-1.9c-4 0-4 6.2 0 6.2ZM69.7 60.8a6.7 6.7 0 1 0-13.4 0 6.7 6.7 0 0 0 13.4 0ZM69.7 44.2a6.7 6.7 0 1 0-13.4 0 6.7 6.7 0 0 0 13.4 0Z"/></g><path stroke="#fff" stroke-miterlimit="10" d="M11.2 75a34.9 34.9 0 0 0 58.4 0M69.7 27.3a34.9 34.9 0 0 0-58.4 0"/><path stroke="#fff" stroke-miterlimit="10" d="M40.5 11.5c3.7 0 7.4.6 11 1.8v75.8a35 35 0 0 1-22 0V13.3c3.5-1.2 7.2-1.8 11-1.8Z"/><path fill="#504DE6" d="M24.6 60.8a6.7 6.7 0 1 0-13.3 0 6.7 6.7 0 0 0 13.3 0ZM24.6 44.2a6.7 6.7 0 1 0-13.3 0 6.7 6.7 0 0 0 13.3 0Z"/><path stroke="#fff" stroke-miterlimit="10" d="M24.6 60.8a6.7 6.7 0 1 0-13.3 0 6.7 6.7 0 0 0 13.3 0ZM24.6 44.2a6.7 6.7 0 1 0-13.3 0 6.7 6.7 0 0 0 13.3 0ZM69.7 60.8a6.7 6.7 0 1 0-13.4 0 6.7 6.7 0 0 0 13.4 0ZM69.7 44.2a6.7 6.7 0 1 0-13.4 0 6.7 6.7 0 0 0 13.4 0Z"/><defs><filter id="a" width="80.9" height="101.6" x="0" y=".4" color-interpolation-filters="sRGB" filterUnits="userSpaceOnUse"><feFlood flood-opacity="0" result="BackgroundImageFix"/><feColorMatrix in="SourceAlpha" result="hardAlpha" values="0 0 0 0 0 0 0 0 0 0 0 0 0 0 0 0 0 0 127 0"/><feOffset/><feGaussianBlur stdDeviation="4"/><feComposite in2="hardAlpha" operator="out"/><feColorMatrix values="0 0 0 0 0.702821 0 0 0 0 0.726596 0 0 0 0 1 0 0 0 0.3 0"/><feBlend in2="BackgroundImageFix" result="effect1_dropShadow_1086_59"/><feBlend in="SourceGraphic" in2="effect1_dropShadow_1086_59" result="shape"/></filter></defs></svg>