<svg xmlns="http://www.w3.org/2000/svg" fill="none" viewBox="0 0 88 106"><g filter="url(#a)"><path fill="#34D4B0" d="M43.7 11v65.5a32.7 32.7 0 0 1-29.4-47.2l.2-.3a32.7 32.7 0 0 1 29.2-18Z"/><path fill="#34D4B0" d="M40.7 11v65.5l3-3A30 30 0 0 1 14 43.7 30 30 0 0 1 43.7 14c3.8-.1 3.9-6 0-6C24.3 8.3 8 24 8 43.7a36.1 36.1 0 0 0 35.7 35.7 3 3 0 0 0 3-3V11c0-3.8-6-3.8-6 0Z"/><path fill="#34D4B0" d="m19.9 53.4 23.8 7V29l-22.9 6.7"/><path fill="#34D4B0" d="m19 56.3 23.9 7a3 3 0 0 0 3.8-3V29a3 3 0 0 0-3.8-2.9l-23 6.7c-3.6 1-2 6.8 1.7 5.8l22.9-6.7-3.8-3v31.5l3.8-2.9-23.8-7c-3.7-1-5.3 4.7-1.6 5.8Z"/><path fill="#34D4B0" d="M22.8 43.8a17.3 17.3 0 0 1-8.3 14.8l-.2-.5a32.8 32.8 0 0 1 0-28.8l.2-.3a17.3 17.3 0 0 1 8.3 14.8Z"/><path fill="#34D4B0" d="M19.8 43.8A14.7 14.7 0 0 1 13 56l4.1 1a29.8 29.8 0 0 1 0-26.5l-4.1 1a14.7 14.7 0 0 1 6.8 12.3c.1 3.8 6 3.8 6 0A20.9 20.9 0 0 0 16 26.4a3 3 0 0 0-4 1A36.1 36.1 0 0 0 12 60a3 3 0 0 0 4 1.1 20.9 20.9 0 0 0 9.8-17.3c0-3.8-5.9-3.8-6 0ZM43.7 94V28.6a32.7 32.7 0 0 1 29.4 47l-.2.4a32.7 32.7 0 0 1-29.2 18Z"/><path fill="#34D4B0" d="M46.7 94V28.6l-3 3a30 30 0 0 1 29.8 29.7 30 30 0 0 1-29.8 29.8c-3.8 0-3.8 6 0 6 19.4-.3 35.7-16.1 35.7-35.8a36.1 36.1 0 0 0-35.7-35.7 3 3 0 0 0-3 3V94c0 3.8 6 3.9 6 0Z"/><path fill="#34D4B0" d="m67.5 51.6-23.8-7V76l23-6.7"/><path fill="#34D4B0" d="m68.3 48.7-23.8-7a3 3 0 0 0-3.7 3V76a3 3 0 0 0 3.7 3l23-6.8c3.6-1 2-6.8-1.6-5.7l-23 6.7 3.8 2.8V44.6l-3.8 3 23.9 6.9c3.6 1 5.2-4.7 1.5-5.8Z"/><path fill="#34D4B0" d="M64.6 61.2A17.3 17.3 0 0 1 73 46.5l.2.4a32.8 32.8 0 0 1 0 28.8l-.2.3a17.3 17.3 0 0 1-8.3-14.8Z"/><path fill="#34D4B0" d="M67.6 61.2A14.7 14.7 0 0 1 74.4 49l-4-1a29.8 29.8 0 0 1 0 26.5l4-1a14.7 14.7 0 0 1-6.8-12.3c-.1-3.8-6-3.8-6 0a21 21 0 0 0 9.8 17.4 3 3 0 0 0 4.1-1 36.1 36.1 0 0 0 0-32.6 3 3 0 0 0-4.1-1.1 21 21 0 0 0-9.8 17.3c0 3.9 5.9 3.9 6 0ZM43.7 11v65.5a32.7 32.7 0 0 1-29.4-47.2l.2-.3a32.7 32.7 0 0 1 29.2-18Z"/><path fill="#34D4B0" d="m19.9 53.4 23.8 7V29l-22.9 6.7-1 17.7Z"/><path fill="#34D4B0" d="M22.8 43.8a17.3 17.3 0 0 1-8.3 14.8l-.2-.5a32.8 32.8 0 0 1 0-28.8l.2-.3a17.3 17.3 0 0 1 8.3 14.8ZM43.7 94V28.6a32.7 32.7 0 0 1 29.4 47l-.2.4a32.7 32.7 0 0 1-29.2 18Z"/><path fill="#34D4B0" d="m67.5 51.6-23.8-7V76l23-6.7.8-17.7Z"/><path fill="#34D4B0" d="M64.6 61.2A17.3 17.3 0 0 1 73 46.5l.2.4a32.8 32.8 0 0 1 0 28.8l-.2.3a17.3 17.3 0 0 1-8.3-14.8Z"/><path fill="#34D4B0" stroke="#FAF5EE" stroke-miterlimit="10" d="M43.7 11v65.5a32.7 32.7 0 0 1-29.4-47.2l.2-.3a32.7 32.7 0 0 1 29.2-18Z"/><path fill="#34D4B0" d="m19.9 53.4 23.8 7V29l-22.9 6.7"/><path stroke="#FAF5EE" stroke-miterlimit="10" d="m19.9 53.4 23.8 7V29l-22.9 6.7"/><path fill="#34D4B0" stroke="#FAF5EE" stroke-miterlimit="10" d="M22.8 43.8a17.3 17.3 0 0 1-8.3 14.8l-.2-.5a32.8 32.8 0 0 1 0-28.8l.2-.3a17.3 17.3 0 0 1 8.3 14.8Z"/><path fill="#34D4B0" stroke="#FAF5EE" stroke-linejoin="round" stroke-miterlimit="10" d="M43.7 94V28.6a32.7 32.7 0 0 1 29.4 47l-.2.4a32.7 32.7 0 0 1-29.2 18Z"/><path fill="#34D4B0" d="m67.5 51.6-23.8-7V76l23-6.7"/><path stroke="#FAF5EE" stroke-miterlimit="10" d="m67.5 51.6-23.8-7V76l23-6.7"/><path fill="#34D4B0" stroke="#FAF5EE" stroke-miterlimit="10" d="M64.6 61.2A17.3 17.3 0 0 1 73 46.5l.2.4a32.8 32.8 0 0 1 0 28.8l-.2.3a17.3 17.3 0 0 1-8.3-14.8Z"/></g><defs><filter id="a" width="87.4" height="105" x="0" y="0" color-interpolation-filters="sRGB" filterUnits="userSpaceOnUse"><feFlood flood-opacity="0" result="BackgroundImageFix"/><feColorMatrix in="SourceAlpha" result="hardAlpha" values="0 0 0 0 0 0 0 0 0 0 0 0 0 0 0 0 0 0 127 0"/><feOffset/><feGaussianBlur stdDeviation="4"/><feComposite in2="hardAlpha" operator="out"/><feColorMatrix values="0 0 0 0 0.702821 0 0 0 0 0.726596 0 0 0 0 1 0 0 0 0.3 0"/><feBlend in2="BackgroundImageFix" result="effect1_dropShadow_1264_4"/><feBlend in="SourceGraphic" in2="effect1_dropShadow_1264_4" result="shape"/></filter></defs></svg>